<?xml version="1.0" encoding="utf-8" standalone="no"?>
<!DOCTYPE svg PUBLIC "-//W3C//DTD SVG 1.1//EN"
  "http://www.w3.org/Graphics/SVG/1.1/DTD/svg11.dtd">
<svg xmlns:xlink="http://www.w3.org/1999/xlink" width="856.52375pt" height="495.21125pt" viewBox="0 0 856.52375 495.21125" xmlns="http://www.w3.org/2000/svg" version="1.1">
 <metadata>
  <rdf:RDF xmlns:dc="http://purl.org/dc/elements/1.1/" xmlns:cc="http://creativecommons.org/ns#" xmlns:rdf="http://www.w3.org/1999/02/22-rdf-syntax-ns#">
   <cc:Work>
    <dc:type rdf:resource="http://purl.org/dc/dcmitype/StillImage"/>
    <dc:date>2026-02-21T00:11:28.176405</dc:date>
    <dc:format>image/svg+xml</dc:format>
    <dc:creator>
     <cc:Agent>
      <dc:title>Matplotlib v3.9.1, https://matplotlib.org/</dc:title>
     </cc:Agent>
    </dc:creator>
   </cc:Work>
  </rdf:RDF>
 </metadata>
 <defs>
  <style type="text/css">*{stroke-linejoin: round; stroke-linecap: butt}</style>
 </defs>
 <g id="figure_1">
  <g id="patch_1">
   <path d="M 0 495.21125 
L 856.52375 495.21125 
L 856.52375 0 
L 0 0 
z
" style="fill: #ffffff"/>
  </g>
  <g id="axes_1">
   <g id="patch_2">
    <path d="M 50.14375 457.376875 
L 849.32375 457.376875 
L 849.32375 22.318125 
L 50.14375 22.318125 
z
" style="fill: #ffffff"/>
   </g>
   <g id="PolyCollection_1">
    <defs>
     <path id="me26e0fb321" d="M 293.158393 -37.871018 
L 293.158393 -37.834375 
L 294.732015 -37.834375 
L 296.305636 -37.834375 
L 297.879258 -37.834375 
L 299.45288 -37.834375 
L 301.026502 -37.834375 
L 302.600123 -37.834375 
L 304.173745 -37.834375 
L 305.747367 -37.834375 
L 307.320988 -37.834375 
L 308.89461 -37.834375 
L 310.468232 -37.834375 
L 312.041853 -37.834375 
L 313.615475 -37.834375 
L 315.189097 -37.834375 
L 316.762718 -37.834375 
L 318.33634 -37.834375 
L 319.909962 -37.834375 
L 321.483583 -37.834375 
L 323.057205 -37.834375 
L 324.630827 -37.834375 
L 326.204448 -37.834375 
L 327.77807 -37.834375 
L 329.351692 -37.834375 
L 330.925313 -37.834375 
L 332.498935 -37.834375 
L 334.072557 -37.834375 
L 335.646178 -37.834375 
L 337.2198 -37.834375 
L 338.793422 -37.834375 
L 340.367043 -37.834375 
L 341.940665 -37.834375 
L 343.514287 -37.834375 
L 345.087908 -37.834375 
L 346.66153 -37.834375 
L 348.235152 -37.834375 
L 349.808774 -37.834375 
L 351.382395 -37.834375 
L 352.956017 -37.834375 
L 354.529639 -37.834375 
L 356.10326 -37.834375 
L 357.676882 -37.834375 
L 359.250504 -37.834375 
L 360.824125 -37.834375 
L 362.397747 -37.834375 
L 363.971369 -37.834375 
L 365.54499 -37.834375 
L 367.118612 -37.834375 
L 368.692234 -37.834375 
L 370.265855 -37.834375 
L 371.839477 -37.834375 
L 373.413099 -37.834375 
L 374.98672 -37.834375 
L 376.560342 -37.834375 
L 378.133964 -37.834375 
L 379.707585 -37.834375 
L 381.281207 -37.834375 
L 382.854829 -37.834375 
L 384.42845 -37.834375 
L 386.002072 -37.834375 
L 387.575694 -37.834375 
L 389.149315 -37.834375 
L 390.722937 -37.834375 
L 392.296559 -37.834375 
L 393.87018 -37.834375 
L 395.443802 -37.834375 
L 397.017424 -37.834375 
L 398.591045 -37.834375 
L 400.164667 -37.834375 
L 401.738289 -37.834375 
L 403.311911 -37.834375 
L 404.885532 -37.834375 
L 406.459154 -37.834375 
L 408.032776 -37.834375 
L 409.606397 -37.834375 
L 411.180019 -37.834375 
L 412.753641 -37.834375 
L 414.327262 -37.834375 
L 415.900884 -37.834375 
L 417.474506 -37.834375 
L 419.048127 -37.834375 
L 420.621749 -37.834375 
L 422.195371 -37.834375 
L 423.768992 -37.834375 
L 425.342614 -37.834375 
L 426.916236 -37.834375 
L 428.489857 -37.834375 
L 430.063479 -37.834375 
L 431.637101 -37.834375 
L 433.210722 -37.834375 
L 434.784344 -37.834375 
L 436.357966 -37.834375 
L 437.931587 -37.834375 
L 439.505209 -37.834375 
L 441.078831 -37.834375 
L 442.652452 -37.834375 
L 444.226074 -37.834375 
L 445.799696 -37.834375 
L 447.373317 -37.834375 
L 448.946939 -37.834375 
L 450.520561 -37.834375 
L 452.094183 -37.834375 
L 453.667804 -37.834375 
L 455.241426 -37.834375 
L 456.815048 -37.834375 
L 458.388669 -37.834375 
L 459.962291 -37.834375 
L 461.535913 -37.834375 
L 463.109534 -37.834375 
L 464.683156 -37.834375 
L 466.256778 -37.834375 
L 467.830399 -37.834375 
L 469.404021 -37.834375 
L 470.977643 -37.834375 
L 472.551264 -37.834375 
L 474.124886 -37.834375 
L 475.698508 -37.834375 
L 477.272129 -37.834375 
L 478.845751 -37.834375 
L 480.419373 -37.834375 
L 481.992994 -37.834375 
L 483.566616 -37.834375 
L 485.140238 -37.834375 
L 486.713859 -37.834375 
L 488.287481 -37.834375 
L 489.861103 -37.834375 
L 491.434724 -37.834375 
L 493.008346 -37.834375 
L 494.581968 -37.834375 
L 496.155589 -37.834375 
L 497.729211 -37.834375 
L 499.302833 -37.834375 
L 500.876455 -37.834375 
L 502.450076 -37.834375 
L 504.023698 -37.834375 
L 505.59732 -37.834375 
L 507.170941 -37.834375 
L 508.744563 -37.834375 
L 510.318185 -37.834375 
L 511.891806 -37.834375 
L 513.465428 -37.834375 
L 515.03905 -37.834375 
L 516.612671 -37.834375 
L 518.186293 -37.834375 
L 519.759915 -37.834375 
L 521.333536 -37.834375 
L 522.907158 -37.834375 
L 524.48078 -37.834375 
L 526.054401 -37.834375 
L 527.628023 -37.834375 
L 529.201645 -37.834375 
L 530.775266 -37.834375 
L 532.348888 -37.834375 
L 533.92251 -37.834375 
L 535.496131 -37.834375 
L 537.069753 -37.834375 
L 538.643375 -37.834375 
L 540.216996 -37.834375 
L 541.790618 -37.834375 
L 543.36424 -37.834375 
L 544.937861 -37.834375 
L 546.511483 -37.834375 
L 548.085105 -37.834375 
L 549.658726 -37.834375 
L 551.232348 -37.834375 
L 552.80597 -37.834375 
L 554.379592 -37.834375 
L 555.953213 -37.834375 
L 557.526835 -37.834375 
L 559.100457 -37.834375 
L 560.674078 -37.834375 
L 562.2477 -37.834375 
L 563.821322 -37.834375 
L 565.394943 -37.834375 
L 566.968565 -37.834375 
L 568.542187 -37.834375 
L 570.115808 -37.834375 
L 571.68943 -37.834375 
L 573.263052 -37.834375 
L 574.836673 -37.834375 
L 576.410295 -37.834375 
L 577.983917 -37.834375 
L 579.557538 -37.834375 
L 581.13116 -37.834375 
L 582.704782 -37.834375 
L 584.278403 -37.834375 
L 585.852025 -37.834375 
L 587.425647 -37.834375 
L 588.999268 -37.834375 
L 590.57289 -37.834375 
L 592.146512 -37.834375 
L 593.720133 -37.834375 
L 595.293755 -37.834375 
L 596.867377 -37.834375 
L 598.440998 -37.834375 
L 600.01462 -37.834375 
L 601.588242 -37.834375 
L 603.161864 -37.834375 
L 604.735485 -37.834375 
L 606.309107 -37.834375 
L 606.309107 -37.870756 
L 606.309107 -37.870756 
L 604.735485 -37.889364 
L 603.161864 -37.915853 
L 601.588242 -37.952726 
L 600.01462 -38.002901 
L 598.440998 -38.069622 
L 596.867377 -38.156295 
L 595.293755 -38.266228 
L 593.720133 -38.402297 
L 592.146512 -38.566536 
L 590.57289 -38.75969 
L 588.999268 -38.980777 
L 587.425647 -39.226728 
L 585.852025 -39.492154 
L 584.278403 -39.769319 
L 582.704782 -40.048363 
L 581.13116 -40.317776 
L 579.557538 -40.565134 
L 577.983917 -40.778014 
L 576.410295 -40.945022 
L 574.836673 -41.056791 
L 573.263052 -41.106857 
L 571.68943 -41.092276 
L 570.115808 -41.013907 
L 568.542187 -40.876334 
L 566.968565 -40.687418 
L 565.394943 -40.457556 
L 563.821322 -40.198731 
L 562.2477 -39.92349 
L 560.674078 -39.643951 
L 559.100457 -39.37096 
L 557.526835 -39.113466 
L 555.953213 -38.878165 
L 554.379592 -38.66939 
L 552.80597 -38.489239 
L 551.232348 -38.337877 
L 549.658726 -38.21394 
L 548.085105 -38.114992 
L 546.511483 -38.037963 
L 544.937861 -37.979545 
L 543.36424 -37.936508 
L 541.790618 -37.90594 
L 540.216996 -37.885416 
L 538.643375 -37.873101 
L 537.069753 -37.867823 
L 535.496131 -37.869116 
L 533.92251 -37.877264 
L 532.348888 -37.893347 
L 530.775266 -37.919304 
L 529.201645 -37.957999 
L 527.628023 -38.013294 
L 526.054401 -38.090112 
L 524.48078 -38.194472 
L 522.907158 -38.33349 
L 521.333536 -38.515322 
L 519.759915 -38.749032 
L 518.186293 -39.044394 
L 516.612671 -39.411618 
L 515.03905 -39.860993 
L 513.465428 -40.40249 
L 511.891806 -41.045325 
L 510.318185 -41.797521 
L 508.744563 -42.66553 
L 507.170941 -43.653966 
L 505.59732 -44.765532 
L 504.023698 -46.001241 
L 502.450076 -47.361019 
L 500.876455 -48.844792 
L 499.302833 -50.454101 
L 497.729211 -52.194257 
L 496.155589 -54.076959 
L 494.581968 -56.123196 
L 493.008346 -58.366165 
L 491.434724 -60.853858 
L 489.861103 -63.65092 
L 488.287481 -66.839396 
L 486.713859 -70.518063 
L 485.140238 -74.800166 
L 483.566616 -79.809557 
L 481.992994 -85.675414 
L 480.419373 -92.525865 
L 478.845751 -100.480971 
L 477.272129 -109.645518 
L 475.698508 -120.102047 
L 474.124886 -131.904424 
L 472.551264 -145.072121 
L 470.977643 -159.585238 
L 469.404021 -175.38026 
L 467.830399 -192.346503 
L 466.256778 -210.323379 
L 464.683156 -229.098726 
L 463.109534 -248.408721 
L 461.535913 -267.940036 
L 459.962291 -287.334988 
L 458.388669 -306.20037 
L 456.815048 -324.120368 
L 455.241426 -340.673505 
L 453.667804 -355.453022 
L 452.094183 -368.089419 
L 450.520561 -378.273366 
L 448.946939 -385.776791 
L 447.373317 -390.469865 
L 445.799696 -392.331792 
L 444.226074 -391.453881 
L 442.652452 -388.034147 
L 441.078831 -382.363632 
L 439.505209 -374.805613 
L 437.931587 -365.769666 
L 436.357966 -355.683138 
L 434.784344 -344.962849 
L 433.210722 -333.989703 
L 431.637101 -323.088501 
L 430.063479 -312.514511 
L 428.489857 -302.447572 
L 426.916236 -292.993578 
L 425.342614 -284.192425 
L 423.768992 -276.030873 
L 422.195371 -268.458344 
L 420.621749 -261.403564 
L 419.048127 -254.790031 
L 417.474506 -248.548655 
L 415.900884 -242.626371 
L 414.327262 -236.990147 
L 412.753641 -231.626412 
L 411.180019 -226.536511 
L 409.606397 -221.729246 
L 408.032776 -217.211904 
L 406.459154 -212.981276 
L 404.885532 -209.016125 
L 403.311911 -205.27231 
L 401.738289 -201.681384 
L 400.164667 -198.152962 
L 398.591045 -194.580646 
L 397.017424 -190.850769 
L 395.443802 -186.852833 
L 393.87018 -182.490275 
L 392.296559 -177.690171 
L 390.722937 -172.410644 
L 389.149315 -166.645113 
L 387.575694 -160.422951 
L 386.002072 -153.806656 
L 384.42845 -146.886076 
L 382.854829 -139.77058 
L 381.281207 -132.580247 
L 379.707585 -125.43712 
L 378.133964 -118.45745 
L 376.560342 -111.745511 
L 374.98672 -105.389319 
L 373.413099 -99.458201 
L 371.839477 -94.001974 
L 370.265855 -89.05134 
L 368.692234 -84.619054 
L 367.118612 -80.701525 
L 365.54499 -77.280589 
L 363.971369 -74.325357 
L 362.397747 -71.794145 
L 360.824125 -69.636563 
L 359.250504 -67.79585 
L 357.676882 -66.211511 
L 356.10326 -64.822218 
L 354.529639 -63.568855 
L 352.956017 -62.397509 
L 351.382395 -61.262146 
L 349.808774 -60.126717 
L 348.235152 -58.966473 
L 346.66153 -57.768329 
L 345.087908 -56.530257 
L 343.514287 -55.259765 
L 341.940665 -53.97166 
L 340.367043 -52.685349 
L 338.793422 -51.422007 
L 337.2198 -50.201928 
L 335.646178 -49.042333 
L 334.072557 -47.955859 
L 332.498935 -46.94982 
L 330.925313 -46.026235 
L 329.351692 -45.182524 
L 327.77807 -44.412681 
L 326.204448 -43.708696 
L 324.630827 -43.061975 
L 323.057205 -42.464578 
L 321.483583 -41.910101 
L 319.909962 -41.394148 
L 318.33634 -40.914382 
L 316.762718 -40.47024 
L 315.189097 -40.062404 
L 313.615475 -39.692162 
L 312.041853 -39.360786 
L 310.468232 -39.069019 
L 308.89461 -38.816726 
L 307.320988 -38.602732 
L 305.747367 -38.424849 
L 304.173745 -38.28002 
L 302.600123 -38.164575 
L 301.026502 -38.074501 
L 299.45288 -38.005722 
L 297.879258 -37.954327 
L 296.305636 -37.916745 
L 294.732015 -37.889852 
L 293.158393 -37.871018 
z
" style="stroke: #0000ff"/>
    </defs>
    <g clip-path="url(#pfa6eae7f34)">
     <use xlink:href="#me26e0fb321" x="0" y="495.21125" style="fill: #0000ff; fill-opacity: 0.25; stroke: #0000ff"/>
    </g>
   </g>
   <g id="PolyCollection_2">
    <defs>
     <path id="m36894a9d1f" d="M 319.252789 -37.901092 
L 319.252789 -37.834375 
L 320.25348 -37.834375 
L 321.254172 -37.834375 
L 322.254863 -37.834375 
L 323.255555 -37.834375 
L 324.256246 -37.834375 
L 325.256937 -37.834375 
L 326.257629 -37.834375 
L 327.25832 -37.834375 
L 328.259012 -37.834375 
L 329.259703 -37.834375 
L 330.260395 -37.834375 
L 331.261086 -37.834375 
L 332.261778 -37.834375 
L 333.262469 -37.834375 
L 334.26316 -37.834375 
L 335.263852 -37.834375 
L 336.264543 -37.834375 
L 337.265235 -37.834375 
L 338.265926 -37.834375 
L 339.266618 -37.834375 
L 340.267309 -37.834375 
L 341.268001 -37.834375 
L 342.268692 -37.834375 
L 343.269383 -37.834375 
L 344.270075 -37.834375 
L 345.270766 -37.834375 
L 346.271458 -37.834375 
L 347.272149 -37.834375 
L 348.272841 -37.834375 
L 349.273532 -37.834375 
L 350.274224 -37.834375 
L 351.274915 -37.834375 
L 352.275606 -37.834375 
L 353.276298 -37.834375 
L 354.276989 -37.834375 
L 355.277681 -37.834375 
L 356.278372 -37.834375 
L 357.279064 -37.834375 
L 358.279755 -37.834375 
L 359.280447 -37.834375 
L 360.281138 -37.834375 
L 361.281829 -37.834375 
L 362.282521 -37.834375 
L 363.283212 -37.834375 
L 364.283904 -37.834375 
L 365.284595 -37.834375 
L 366.285287 -37.834375 
L 367.285978 -37.834375 
L 368.28667 -37.834375 
L 369.287361 -37.834375 
L 370.288052 -37.834375 
L 371.288744 -37.834375 
L 372.289435 -37.834375 
L 373.290127 -37.834375 
L 374.290818 -37.834375 
L 375.29151 -37.834375 
L 376.292201 -37.834375 
L 377.292893 -37.834375 
L 378.293584 -37.834375 
L 379.294275 -37.834375 
L 380.294967 -37.834375 
L 381.295658 -37.834375 
L 382.29635 -37.834375 
L 383.297041 -37.834375 
L 384.297733 -37.834375 
L 385.298424 -37.834375 
L 386.299115 -37.834375 
L 387.299807 -37.834375 
L 388.300498 -37.834375 
L 389.30119 -37.834375 
L 390.301881 -37.834375 
L 391.302573 -37.834375 
L 392.303264 -37.834375 
L 393.303956 -37.834375 
L 394.304647 -37.834375 
L 395.305338 -37.834375 
L 396.30603 -37.834375 
L 397.306721 -37.834375 
L 398.307413 -37.834375 
L 399.308104 -37.834375 
L 400.308796 -37.834375 
L 401.309487 -37.834375 
L 402.310179 -37.834375 
L 403.31087 -37.834375 
L 404.311561 -37.834375 
L 405.312253 -37.834375 
L 406.312944 -37.834375 
L 407.313636 -37.834375 
L 408.314327 -37.834375 
L 409.315019 -37.834375 
L 410.31571 -37.834375 
L 411.316402 -37.834375 
L 412.317093 -37.834375 
L 413.317784 -37.834375 
L 414.318476 -37.834375 
L 415.319167 -37.834375 
L 416.319859 -37.834375 
L 417.32055 -37.834375 
L 418.321242 -37.834375 
L 419.321933 -37.834375 
L 420.322625 -37.834375 
L 421.323316 -37.834375 
L 422.324007 -37.834375 
L 423.324699 -37.834375 
L 424.32539 -37.834375 
L 425.326082 -37.834375 
L 426.326773 -37.834375 
L 427.327465 -37.834375 
L 428.328156 -37.834375 
L 429.328848 -37.834375 
L 430.329539 -37.834375 
L 431.33023 -37.834375 
L 432.330922 -37.834375 
L 433.331613 -37.834375 
L 434.332305 -37.834375 
L 435.332996 -37.834375 
L 436.333688 -37.834375 
L 437.334379 -37.834375 
L 438.335071 -37.834375 
L 439.335762 -37.834375 
L 440.336453 -37.834375 
L 441.337145 -37.834375 
L 442.337836 -37.834375 
L 443.338528 -37.834375 
L 444.339219 -37.834375 
L 445.339911 -37.834375 
L 446.340602 -37.834375 
L 447.341293 -37.834375 
L 448.341985 -37.834375 
L 449.342676 -37.834375 
L 450.343368 -37.834375 
L 451.344059 -37.834375 
L 452.344751 -37.834375 
L 453.345442 -37.834375 
L 454.346134 -37.834375 
L 455.346825 -37.834375 
L 456.347516 -37.834375 
L 457.348208 -37.834375 
L 458.348899 -37.834375 
L 459.349591 -37.834375 
L 460.350282 -37.834375 
L 461.350974 -37.834375 
L 462.351665 -37.834375 
L 463.352357 -37.834375 
L 464.353048 -37.834375 
L 465.353739 -37.834375 
L 466.354431 -37.834375 
L 467.355122 -37.834375 
L 468.355814 -37.834375 
L 469.356505 -37.834375 
L 470.357197 -37.834375 
L 471.357888 -37.834375 
L 472.35858 -37.834375 
L 473.359271 -37.834375 
L 474.359962 -37.834375 
L 475.360654 -37.834375 
L 476.361345 -37.834375 
L 477.362037 -37.834375 
L 478.362728 -37.834375 
L 479.36342 -37.834375 
L 480.364111 -37.834375 
L 481.364803 -37.834375 
L 482.365494 -37.834375 
L 483.366185 -37.834375 
L 484.366877 -37.834375 
L 485.367568 -37.834375 
L 486.36826 -37.834375 
L 487.368951 -37.834375 
L 488.369643 -37.834375 
L 489.370334 -37.834375 
L 490.371026 -37.834375 
L 491.371717 -37.834375 
L 492.372408 -37.834375 
L 493.3731 -37.834375 
L 494.373791 -37.834375 
L 495.374483 -37.834375 
L 496.375174 -37.834375 
L 497.375866 -37.834375 
L 498.376557 -37.834375 
L 499.377249 -37.834375 
L 500.37794 -37.834375 
L 501.378631 -37.834375 
L 502.379323 -37.834375 
L 503.380014 -37.834375 
L 504.380706 -37.834375 
L 505.381397 -37.834375 
L 506.382089 -37.834375 
L 507.38278 -37.834375 
L 508.383472 -37.834375 
L 509.384163 -37.834375 
L 510.384854 -37.834375 
L 511.385546 -37.834375 
L 512.386237 -37.834375 
L 513.386929 -37.834375 
L 514.38762 -37.834375 
L 515.388312 -37.834375 
L 516.389003 -37.834375 
L 517.389694 -37.834375 
L 518.390386 -37.834375 
L 518.390386 -37.92411 
L 518.390386 -37.92411 
L 517.389694 -37.956327 
L 516.389003 -37.998517 
L 515.388312 -38.053181 
L 514.38762 -38.123261 
L 513.386929 -38.212157 
L 512.386237 -38.323732 
L 511.385546 -38.462294 
L 510.384854 -38.632564 
L 509.384163 -38.839602 
L 508.383472 -39.088727 
L 507.38278 -39.38539 
L 506.382089 -39.735044 
L 505.381397 -40.142989 
L 504.380706 -40.61422 
L 503.380014 -41.153282 
L 502.379323 -41.764154 
L 501.378631 -42.450172 
L 500.37794 -43.214017 
L 499.377249 -44.057781 
L 498.376557 -44.983117 
L 497.375866 -45.991491 
L 496.375174 -47.084532 
L 495.374483 -48.264469 
L 494.373791 -49.534643 
L 493.3731 -50.900077 
L 492.372408 -52.368053 
L 491.371717 -53.948673 
L 490.371026 -55.655365 
L 489.370334 -57.505271 
L 488.369643 -59.519505 
L 487.368951 -61.723231 
L 486.36826 -64.145545 
L 485.367568 -66.81915 
L 484.366877 -69.779826 
L 483.366185 -73.065722 
L 482.365494 -76.716481 
L 481.364803 -80.772262 
L 480.364111 -85.272686 
L 479.36342 -90.255775 
L 478.362728 -95.756913 
L 477.362037 -101.807891 
L 476.361345 -108.436053 
L 475.360654 -115.663576 
L 474.359962 -123.506868 
L 473.359271 -131.976099 
L 472.35858 -141.074815 
L 471.357888 -150.799624 
L 470.357197 -161.139896 
L 469.356505 -172.07745 
L 468.355814 -183.586187 
L 467.355122 -195.631653 
L 466.354431 -208.170524 
L 465.353739 -221.150034 
L 464.353048 -234.507373 
L 463.352357 -248.169141 
L 462.351665 -262.050907 
L 461.350974 -276.056995 
L 460.350282 -290.080586 
L 459.349591 -304.004237 
L 458.348899 -317.700905 
L 457.348208 -331.035542 
L 456.347516 -343.867289 
L 455.346825 -356.052266 
L 454.346134 -367.446902 
L 453.345442 -377.911713 
L 452.344751 -387.315381 
L 451.344059 -395.538961 
L 450.343368 -402.480009 
L 449.342676 -408.05642 
L 448.341985 -412.209742 
L 447.341293 -414.907783 
L 446.340602 -416.146332 
L 445.339911 -415.949867 
L 444.339219 -414.371187 
L 443.338528 -411.489936 
L 442.337836 -407.410103 
L 441.337145 -402.256571 
L 440.336453 -396.170896 
L 439.335762 -389.306515 
L 438.335071 -381.823609 
L 437.334379 -373.883856 
L 436.333688 -365.645334 
L 435.332996 -357.25778 
L 434.332305 -348.858414 
L 433.331613 -340.568488 
L 432.330922 -332.490677 
L 431.33023 -324.707384 
L 430.329539 -317.27998 
L 429.328848 -310.248958 
L 428.328156 -303.634936 
L 427.327465 -297.440412 
L 426.326773 -291.652127 
L 425.326082 -286.243909 
L 424.32539 -281.179809 
L 423.324699 -276.417385 
L 422.324007 -271.910952 
L 421.323316 -267.614659 
L 420.322625 -263.485243 
L 419.321933 -259.484369 
L 418.321242 -255.580448 
L 417.32055 -251.749885 
L 416.319859 -247.977736 
L 415.319167 -244.257765 
L 414.318476 -240.591941 
L 413.317784 -236.989422 
L 412.317093 -233.465117 
L 411.316402 -230.037908 
L 410.31571 -226.728652 
L 409.315019 -223.55807 
L 408.314327 -220.544653 
L 407.313636 -217.702702 
L 406.312944 -215.040599 
L 405.312253 -212.559433 
L 404.311561 -210.252037 
L 403.31087 -208.102515 
L 402.310179 -206.086283 
L 401.309487 -204.170634 
L 400.308796 -202.315808 
L 399.308104 -200.476507 
L 398.307413 -198.603777 
L 397.306721 -196.64716 
L 396.30603 -194.556982 
L 395.305338 -192.28666 
L 394.304647 -189.794873 
L 393.303956 -187.047494 
L 392.303264 -184.019148 
L 391.302573 -180.694329 
L 390.301881 -177.068001 
L 389.30119 -173.145679 
L 388.300498 -168.942984 
L 387.299807 -164.484728 
L 386.299115 -159.803611 
L 385.298424 -154.938608 
L 384.297733 -149.933183 
L 383.297041 -144.833423 
L 382.29635 -139.686231 
L 381.295658 -134.537649 
L 380.294967 -129.431418 
L 379.294275 -124.40781 
L 378.293584 -119.502774 
L 377.292893 -114.747396 
L 376.292201 -110.167645 
L 375.29151 -105.78438 
L 374.290818 -101.613548 
L 373.290127 -97.666528 
L 372.289435 -93.950553 
L 371.288744 -90.469157 
L 370.288052 -87.22261 
L 369.287361 -84.208298 
L 368.28667 -81.421052 
L 367.285978 -78.853396 
L 366.285287 -76.495754 
L 365.284595 -74.336615 
L 364.283904 -72.362684 
L 363.283212 -70.559062 
L 362.282521 -68.909448 
L 361.281829 -67.396408 
L 360.281138 -66.001712 
L 359.280447 -64.70673 
L 358.279755 -63.492891 
L 357.279064 -62.342179 
L 356.278372 -61.237644 
L 355.277681 -60.163895 
L 354.276989 -59.107553 
L 353.276298 -58.05762 
L 352.275606 -57.005755 
L 351.274915 -55.946428 
L 350.274224 -54.876946 
L 349.273532 -53.797347 
L 348.272841 -52.710173 
L 347.272149 -51.620138 
L 346.271458 -50.533706 
L 345.270766 -49.458614 
L 344.270075 -48.403373 
L 343.269383 -47.37676 
L 342.268692 -46.387345 
L 341.268001 -45.443075 
L 340.267309 -44.55092 
L 339.266618 -43.71661 
L 338.265926 -42.944461 
L 337.265235 -42.237284 
L 336.264543 -41.59639 
L 335.263852 -41.021655 
L 334.26316 -40.511656 
L 333.262469 -40.063843 
L 332.261778 -39.674747 
L 331.261086 -39.340199 
L 330.260395 -39.055549 
L 329.259703 -38.815869 
L 328.259012 -38.616147 
L 327.25832 -38.451442 
L 326.257629 -38.317014 
L 325.256937 -38.208426 
L 324.256246 -38.121612 
L 323.255555 -38.052916 
L 322.254863 -37.999113 
L 321.254172 -37.957403 
L 320.25348 -37.925399 
L 319.252789 -37.901092 
z
" style="stroke: #008000"/>
    </defs>
    <g clip-path="url(#pfa6eae7f34)">
     <use xlink:href="#m36894a9d1f" x="0" y="495.21125" style="fill: #008000; fill-opacity: 0.25; stroke: #008000"/>
    </g>
   </g>
   <g id="PolyCollection_3">
    <defs>
     <path id="m7d14d557f7" d="M 86.470114 -38.272946 
L 86.470114 -37.834375 
L 90.121004 -37.834375 
L 93.771895 -37.834375 
L 97.422786 -37.834375 
L 101.073677 -37.834375 
L 104.724568 -37.834375 
L 108.375459 -37.834375 
L 112.026349 -37.834375 
L 115.67724 -37.834375 
L 119.328131 -37.834375 
L 122.979022 -37.834375 
L 126.629913 -37.834375 
L 130.280803 -37.834375 
L 133.931694 -37.834375 
L 137.582585 -37.834375 
L 141.233476 -37.834375 
L 144.884367 -37.834375 
L 148.535258 -37.834375 
L 152.186148 -37.834375 
L 155.837039 -37.834375 
L 159.48793 -37.834375 
L 163.138821 -37.834375 
L 166.789712 -37.834375 
L 170.440602 -37.834375 
L 174.091493 -37.834375 
L 177.742384 -37.834375 
L 181.393275 -37.834375 
L 185.044166 -37.834375 
L 188.695057 -37.834375 
L 192.345947 -37.834375 
L 195.996838 -37.834375 
L 199.647729 -37.834375 
L 203.29862 -37.834375 
L 206.949511 -37.834375 
L 210.600401 -37.834375 
L 214.251292 -37.834375 
L 217.902183 -37.834375 
L 221.553074 -37.834375 
L 225.203965 -37.834375 
L 228.854856 -37.834375 
L 232.505746 -37.834375 
L 236.156637 -37.834375 
L 239.807528 -37.834375 
L 243.458419 -37.834375 
L 247.10931 -37.834375 
L 250.7602 -37.834375 
L 254.411091 -37.834375 
L 258.061982 -37.834375 
L 261.712873 -37.834375 
L 265.363764 -37.834375 
L 269.014655 -37.834375 
L 272.665545 -37.834375 
L 276.316436 -37.834375 
L 279.967327 -37.834375 
L 283.618218 -37.834375 
L 287.269109 -37.834375 
L 290.919999 -37.834375 
L 294.57089 -37.834375 
L 298.221781 -37.834375 
L 301.872672 -37.834375 
L 305.523563 -37.834375 
L 309.174454 -37.834375 
L 312.825344 -37.834375 
L 316.476235 -37.834375 
L 320.127126 -37.834375 
L 323.778017 -37.834375 
L 327.428908 -37.834375 
L 331.079798 -37.834375 
L 334.730689 -37.834375 
L 338.38158 -37.834375 
L 342.032471 -37.834375 
L 345.683362 -37.834375 
L 349.334253 -37.834375 
L 352.985143 -37.834375 
L 356.636034 -37.834375 
L 360.286925 -37.834375 
L 363.937816 -37.834375 
L 367.588707 -37.834375 
L 371.239597 -37.834375 
L 374.890488 -37.834375 
L 378.541379 -37.834375 
L 382.19227 -37.834375 
L 385.843161 -37.834375 
L 389.494052 -37.834375 
L 393.144942 -37.834375 
L 396.795833 -37.834375 
L 400.446724 -37.834375 
L 404.097615 -37.834375 
L 407.748506 -37.834375 
L 411.399396 -37.834375 
L 415.050287 -37.834375 
L 418.701178 -37.834375 
L 422.352069 -37.834375 
L 426.00296 -37.834375 
L 429.653851 -37.834375 
L 433.304741 -37.834375 
L 436.955632 -37.834375 
L 440.606523 -37.834375 
L 444.257414 -37.834375 
L 447.908305 -37.834375 
L 451.559195 -37.834375 
L 455.210086 -37.834375 
L 458.860977 -37.834375 
L 462.511868 -37.834375 
L 466.162759 -37.834375 
L 469.813649 -37.834375 
L 473.46454 -37.834375 
L 477.115431 -37.834375 
L 480.766322 -37.834375 
L 484.417213 -37.834375 
L 488.068104 -37.834375 
L 491.718994 -37.834375 
L 495.369885 -37.834375 
L 499.020776 -37.834375 
L 502.671667 -37.834375 
L 506.322558 -37.834375 
L 509.973448 -37.834375 
L 513.624339 -37.834375 
L 517.27523 -37.834375 
L 520.926121 -37.834375 
L 524.577012 -37.834375 
L 528.227903 -37.834375 
L 531.878793 -37.834375 
L 535.529684 -37.834375 
L 539.180575 -37.834375 
L 542.831466 -37.834375 
L 546.482357 -37.834375 
L 550.133247 -37.834375 
L 553.784138 -37.834375 
L 557.435029 -37.834375 
L 561.08592 -37.834375 
L 564.736811 -37.834375 
L 568.387702 -37.834375 
L 572.038592 -37.834375 
L 575.689483 -37.834375 
L 579.340374 -37.834375 
L 582.991265 -37.834375 
L 586.642156 -37.834375 
L 590.293046 -37.834375 
L 593.943937 -37.834375 
L 597.594828 -37.834375 
L 601.245719 -37.834375 
L 604.89661 -37.834375 
L 608.547501 -37.834375 
L 612.198391 -37.834375 
L 615.849282 -37.834375 
L 619.500173 -37.834375 
L 623.151064 -37.834375 
L 626.801955 -37.834375 
L 630.452845 -37.834375 
L 634.103736 -37.834375 
L 637.754627 -37.834375 
L 641.405518 -37.834375 
L 645.056409 -37.834375 
L 648.7073 -37.834375 
L 652.35819 -37.834375 
L 656.009081 -37.834375 
L 659.659972 -37.834375 
L 663.310863 -37.834375 
L 666.961754 -37.834375 
L 670.612644 -37.834375 
L 674.263535 -37.834375 
L 677.914426 -37.834375 
L 681.565317 -37.834375 
L 685.216208 -37.834375 
L 688.867099 -37.834375 
L 692.517989 -37.834375 
L 696.16888 -37.834375 
L 699.819771 -37.834375 
L 703.470662 -37.834375 
L 707.121553 -37.834375 
L 710.772443 -37.834375 
L 714.423334 -37.834375 
L 718.074225 -37.834375 
L 721.725116 -37.834375 
L 725.376007 -37.834375 
L 729.026898 -37.834375 
L 732.677788 -37.834375 
L 736.328679 -37.834375 
L 739.97957 -37.834375 
L 743.630461 -37.834375 
L 747.281352 -37.834375 
L 750.932242 -37.834375 
L 754.583133 -37.834375 
L 758.234024 -37.834375 
L 761.884915 -37.834375 
L 765.535806 -37.834375 
L 769.186697 -37.834375 
L 772.837587 -37.834375 
L 776.488478 -37.834375 
L 780.139369 -37.834375 
L 783.79026 -37.834375 
L 787.441151 -37.834375 
L 791.092041 -37.834375 
L 794.742932 -37.834375 
L 798.393823 -37.834375 
L 802.044714 -37.834375 
L 805.695605 -37.834375 
L 809.346496 -37.834375 
L 812.997386 -37.834375 
L 812.997386 -38.067466 
L 812.997386 -38.067466 
L 809.346496 -38.102131 
L 805.695605 -38.141349 
L 802.044714 -38.185624 
L 798.393823 -38.235502 
L 794.742932 -38.291573 
L 791.092041 -38.354471 
L 787.441151 -38.42488 
L 783.79026 -38.503527 
L 780.139369 -38.591193 
L 776.488478 -38.688704 
L 772.837587 -38.796937 
L 769.186697 -38.916817 
L 765.535806 -39.049318 
L 761.884915 -39.19546 
L 758.234024 -39.356307 
L 754.583133 -39.532967 
L 750.932242 -39.726588 
L 747.281352 -39.93835 
L 743.630461 -40.16947 
L 739.97957 -40.421186 
L 736.328679 -40.694761 
L 732.677788 -40.991468 
L 729.026898 -41.312592 
L 725.376007 -41.659415 
L 721.725116 -42.033208 
L 718.074225 -42.435228 
L 714.423334 -42.866702 
L 710.772443 -43.328819 
L 707.121553 -43.82272 
L 703.470662 -44.349487 
L 699.819771 -44.910129 
L 696.16888 -45.505575 
L 692.517989 -46.136657 
L 688.867099 -46.804101 
L 685.216208 -47.508515 
L 681.565317 -48.250377 
L 677.914426 -49.030023 
L 674.263535 -49.847636 
L 670.612644 -50.703236 
L 666.961754 -51.59667 
L 663.310863 -52.527604 
L 659.659972 -53.495512 
L 656.009081 -54.49967 
L 652.35819 -55.539153 
L 648.7073 -56.612825 
L 645.056409 -57.719341 
L 641.405518 -58.857141 
L 637.754627 -60.024453 
L 634.103736 -61.219292 
L 630.452845 -62.439464 
L 626.801955 -63.682573 
L 623.151064 -64.946027 
L 619.500173 -66.227046 
L 615.849282 -67.522674 
L 612.198391 -68.829794 
L 608.547501 -70.145139 
L 604.89661 -71.465314 
L 601.245719 -72.786813 
L 597.594828 -74.106038 
L 593.943937 -75.419324 
L 590.293046 -76.722966 
L 586.642156 -78.013239 
L 582.991265 -79.286432 
L 579.340374 -80.53887 
L 575.689483 -81.766949 
L 572.038592 -82.967165 
L 568.387702 -84.136143 
L 564.736811 -85.270666 
L 561.08592 -86.367713 
L 557.435029 -87.42448 
L 553.784138 -88.438415 
L 550.133247 -89.407243 
L 546.482357 -90.328992 
L 542.831466 -91.202019 
L 539.180575 -92.025027 
L 535.529684 -92.797087 
L 531.878793 -93.517654 
L 528.227903 -94.186572 
L 524.577012 -94.804088 
L 520.926121 -95.370851 
L 517.27523 -95.887913 
L 513.624339 -96.35672 
L 509.973448 -96.779102 
L 506.322558 -97.157258 
L 502.671667 -97.49373 
L 499.020776 -97.791382 
L 495.369885 -98.053366 
L 491.718994 -98.283084 
L 488.068104 -98.484154 
L 484.417213 -98.660357 
L 480.766322 -98.815596 
L 477.115431 -98.953844 
L 473.46454 -99.079086 
L 469.813649 -99.19527 
L 466.162759 -99.306248 
L 462.511868 -99.415719 
L 458.860977 -99.527174 
L 455.210086 -99.643843 
L 451.559195 -99.76864 
L 447.908305 -99.904115 
L 444.257414 -100.052411 
L 440.606523 -100.215218 
L 436.955632 -100.393743 
L 433.304741 -100.588676 
L 429.653851 -100.80017 
L 426.00296 -101.027826 
L 422.352069 -101.270681 
L 418.701178 -101.52721 
L 415.050287 -101.795335 
L 411.399396 -102.072437 
L 407.748506 -102.355381 
L 404.097615 -102.640548 
L 400.446724 -102.923872 
L 396.795833 -103.200885 
L 393.144942 -103.466773 
L 389.494052 -103.716425 
L 385.843161 -103.944505 
L 382.19227 -104.145511 
L 378.541379 -104.313847 
L 374.890488 -104.443895 
L 371.239597 -104.530087 
L 367.588707 -104.566977 
L 363.937816 -104.549313 
L 360.286925 -104.472107 
L 356.636034 -104.330698 
L 352.985143 -104.120818 
L 349.334253 -103.838648 
L 345.683362 -103.48087 
L 342.032471 -103.044709 
L 338.38158 -102.527974 
L 334.730689 -101.929089 
L 331.079798 -101.247112 
L 327.428908 -100.481753 
L 323.778017 -99.633378 
L 320.127126 -98.703005 
L 316.476235 -97.692301 
L 312.825344 -96.603555 
L 309.174454 -95.439657 
L 305.523563 -94.204067 
L 301.872672 -92.900773 
L 298.221781 -91.534251 
L 294.57089 -90.10941 
L 290.919999 -88.631545 
L 287.269109 -87.106275 
L 283.618218 -85.539489 
L 279.967327 -83.937282 
L 276.316436 -82.305894 
L 272.665545 -80.651652 
L 269.014655 -78.980909 
L 265.363764 -77.299983 
L 261.712873 -75.615105 
L 258.061982 -73.932363 
L 254.411091 -72.257658 
L 250.7602 -70.596653 
L 247.10931 -68.954735 
L 243.458419 -67.336984 
L 239.807528 -65.748134 
L 236.156637 -64.192555 
L 232.505746 -62.67423 
L 228.854856 -61.196738 
L 225.203965 -59.76325 
L 221.553074 -58.376518 
L 217.902183 -57.038878 
L 214.251292 -55.752256 
L 210.600401 -54.518171 
L 206.949511 -53.337752 
L 203.29862 -52.211753 
L 199.647729 -51.140567 
L 195.996838 -50.124251 
L 192.345947 -49.162546 
L 188.695057 -48.254906 
L 185.044166 -47.400515 
L 181.393275 -46.598321 
L 177.742384 -45.84706 
L 174.091493 -45.145281 
L 170.440602 -44.491373 
L 166.789712 -43.883595 
L 163.138821 -43.320092 
L 159.48793 -42.798927 
L 155.837039 -42.318101 
L 152.186148 -41.875572 
L 148.535258 -41.469275 
L 144.884367 -41.097143 
L 141.233476 -40.757119 
L 137.582585 -40.447175 
L 133.931694 -40.16532 
L 130.280803 -39.909613 
L 126.629913 -39.678176 
L 122.979022 -39.469195 
L 119.328131 -39.280932 
L 115.67724 -39.111727 
L 112.026349 -38.960004 
L 108.375459 -38.82427 
L 104.724568 -38.703119 
L 101.073677 -38.595233 
L 97.422786 -38.499379 
L 93.771895 -38.41441 
L 90.121004 -38.33926 
L 86.470114 -38.272946 
z
" style="stroke: #ff0000"/>
    </defs>
    <g clip-path="url(#pfa6eae7f34)">
     <use xlink:href="#m7d14d557f7" x="0" y="495.21125" style="fill: #ff0000; fill-opacity: 0.25; stroke: #ff0000"/>
    </g>
   </g>
   <g id="matplotlib.axis_1">
    <g id="xtick_1">
     <g id="line2d_1">
      <defs>
       <path id="mea74101f3c" d="M 0 0 
L 0 3.5 
" style="stroke: #000000; stroke-width: 0.8"/>
      </defs>
      <g>
       <use xlink:href="#mea74101f3c" x="119.595746" y="457.376875" style="stroke: #000000; stroke-width: 0.8"/>
      </g>
     </g>
     <g id="text_1">
      <!-- −15 -->
      <g transform="translate(109.043402 471.975313) scale(0.1 -0.1)">
       <defs>
        <path id="DejaVuSans-2212" d="M 678 2272 
L 4684 2272 
L 4684 1741 
L 678 1741 
L 678 2272 
z
" transform="scale(0.015625)"/>
        <path id="DejaVuSans-31" d="M 794 531 
L 1825 531 
L 1825 4091 
L 703 3866 
L 703 4441 
L 1819 4666 
L 2450 4666 
L 2450 531 
L 3481 531 
L 3481 0 
L 794 0 
L 794 531 
z
" transform="scale(0.015625)"/>
        <path id="DejaVuSans-35" d="M 691 4666 
L 3169 4666 
L 3169 4134 
L 1269 4134 
L 1269 2991 
Q 1406 3038 1543 3061 
Q 1681 3084 1819 3084 
Q 2600 3084 3056 2656 
Q 3513 2228 3513 1497 
Q 3513 744 3044 326 
Q 2575 -91 1722 -91 
Q 1428 -91 1123 -41 
Q 819 9 494 109 
L 494 744 
Q 775 591 1075 516 
Q 1375 441 1709 441 
Q 2250 441 2565 725 
Q 2881 1009 2881 1497 
Q 2881 1984 2565 2268 
Q 2250 2553 1709 2553 
Q 1456 2553 1204 2497 
Q 953 2441 691 2322 
L 691 4666 
z
" transform="scale(0.015625)"/>
       </defs>
       <use xlink:href="#DejaVuSans-2212"/>
       <use xlink:href="#DejaVuSans-31" x="83.789062"/>
       <use xlink:href="#DejaVuSans-35" x="147.412109"/>
      </g>
     </g>
    </g>
    <g id="xtick_2">
     <g id="line2d_2">
      <g>
       <use xlink:href="#mea74101f3c" x="227.150072" y="457.376875" style="stroke: #000000; stroke-width: 0.8"/>
      </g>
     </g>
     <g id="text_2">
      <!-- −10 -->
      <g transform="translate(216.597728 471.975313) scale(0.1 -0.1)">
       <defs>
        <path id="DejaVuSans-30" d="M 2034 4250 
Q 1547 4250 1301 3770 
Q 1056 3291 1056 2328 
Q 1056 1369 1301 889 
Q 1547 409 2034 409 
Q 2525 409 2770 889 
Q 3016 1369 3016 2328 
Q 3016 3291 2770 3770 
Q 2525 4250 2034 4250 
z
M 2034 4750 
Q 2819 4750 3233 4129 
Q 3647 3509 3647 2328 
Q 3647 1150 3233 529 
Q 2819 -91 2034 -91 
Q 1250 -91 836 529 
Q 422 1150 422 2328 
Q 422 3509 836 4129 
Q 1250 4750 2034 4750 
z
" transform="scale(0.015625)"/>
       </defs>
       <use xlink:href="#DejaVuSans-2212"/>
       <use xlink:href="#DejaVuSans-31" x="83.789062"/>
       <use xlink:href="#DejaVuSans-30" x="147.412109"/>
      </g>
     </g>
    </g>
    <g id="xtick_3">
     <g id="line2d_3">
      <g>
       <use xlink:href="#mea74101f3c" x="334.704398" y="457.376875" style="stroke: #000000; stroke-width: 0.8"/>
      </g>
     </g>
     <g id="text_3">
      <!-- −5 -->
      <g transform="translate(327.333305 471.975313) scale(0.1 -0.1)">
       <use xlink:href="#DejaVuSans-2212"/>
       <use xlink:href="#DejaVuSans-35" x="83.789062"/>
      </g>
     </g>
    </g>
    <g id="xtick_4">
     <g id="line2d_4">
      <g>
       <use xlink:href="#mea74101f3c" x="442.258724" y="457.376875" style="stroke: #000000; stroke-width: 0.8"/>
      </g>
     </g>
     <g id="text_4">
      <!-- 0 -->
      <g transform="translate(439.077474 471.975313) scale(0.1 -0.1)">
       <use xlink:href="#DejaVuSans-30"/>
      </g>
     </g>
    </g>
    <g id="xtick_5">
     <g id="line2d_5">
      <g>
       <use xlink:href="#mea74101f3c" x="549.81305" y="457.376875" style="stroke: #000000; stroke-width: 0.8"/>
      </g>
     </g>
     <g id="text_5">
      <!-- 5 -->
      <g transform="translate(546.6318 471.975313) scale(0.1 -0.1)">
       <use xlink:href="#DejaVuSans-35"/>
      </g>
     </g>
    </g>
    <g id="xtick_6">
     <g id="line2d_6">
      <g>
       <use xlink:href="#mea74101f3c" x="657.367376" y="457.376875" style="stroke: #000000; stroke-width: 0.8"/>
      </g>
     </g>
     <g id="text_6">
      <!-- 10 -->
      <g transform="translate(651.004876 471.975313) scale(0.1 -0.1)">
       <use xlink:href="#DejaVuSans-31"/>
       <use xlink:href="#DejaVuSans-30" x="63.623047"/>
      </g>
     </g>
    </g>
    <g id="xtick_7">
     <g id="line2d_7">
      <g>
       <use xlink:href="#mea74101f3c" x="764.921703" y="457.376875" style="stroke: #000000; stroke-width: 0.8"/>
      </g>
     </g>
     <g id="text_7">
      <!-- 15 -->
      <g transform="translate(758.559203 471.975313) scale(0.1 -0.1)">
       <use xlink:href="#DejaVuSans-31"/>
       <use xlink:href="#DejaVuSans-35" x="63.623047"/>
      </g>
     </g>
    </g>
    <g id="text_8">
     <!-- label_target_delta5 -->
     <g transform="translate(401.592344 485.653437) scale(0.1 -0.1)">
      <defs>
       <path id="DejaVuSans-6c" d="M 603 4863 
L 1178 4863 
L 1178 0 
L 603 0 
L 603 4863 
z
" transform="scale(0.015625)"/>
       <path id="DejaVuSans-61" d="M 2194 1759 
Q 1497 1759 1228 1600 
Q 959 1441 959 1056 
Q 959 750 1161 570 
Q 1363 391 1709 391 
Q 2188 391 2477 730 
Q 2766 1069 2766 1631 
L 2766 1759 
L 2194 1759 
z
M 3341 1997 
L 3341 0 
L 2766 0 
L 2766 531 
Q 2569 213 2275 61 
Q 1981 -91 1556 -91 
Q 1019 -91 701 211 
Q 384 513 384 1019 
Q 384 1609 779 1909 
Q 1175 2209 1959 2209 
L 2766 2209 
L 2766 2266 
Q 2766 2663 2505 2880 
Q 2244 3097 1772 3097 
Q 1472 3097 1187 3025 
Q 903 2953 641 2809 
L 641 3341 
Q 956 3463 1253 3523 
Q 1550 3584 1831 3584 
Q 2591 3584 2966 3190 
Q 3341 2797 3341 1997 
z
" transform="scale(0.015625)"/>
       <path id="DejaVuSans-62" d="M 3116 1747 
Q 3116 2381 2855 2742 
Q 2594 3103 2138 3103 
Q 1681 3103 1420 2742 
Q 1159 2381 1159 1747 
Q 1159 1113 1420 752 
Q 1681 391 2138 391 
Q 2594 391 2855 752 
Q 3116 1113 3116 1747 
z
M 1159 2969 
Q 1341 3281 1617 3432 
Q 1894 3584 2278 3584 
Q 2916 3584 3314 3078 
Q 3713 2572 3713 1747 
Q 3713 922 3314 415 
Q 2916 -91 2278 -91 
Q 1894 -91 1617 61 
Q 1341 213 1159 525 
L 1159 0 
L 581 0 
L 581 4863 
L 1159 4863 
L 1159 2969 
z
" transform="scale(0.015625)"/>
       <path id="DejaVuSans-65" d="M 3597 1894 
L 3597 1613 
L 953 1613 
Q 991 1019 1311 708 
Q 1631 397 2203 397 
Q 2534 397 2845 478 
Q 3156 559 3463 722 
L 3463 178 
Q 3153 47 2828 -22 
Q 2503 -91 2169 -91 
Q 1331 -91 842 396 
Q 353 884 353 1716 
Q 353 2575 817 3079 
Q 1281 3584 2069 3584 
Q 2775 3584 3186 3129 
Q 3597 2675 3597 1894 
z
M 3022 2063 
Q 3016 2534 2758 2815 
Q 2500 3097 2075 3097 
Q 1594 3097 1305 2825 
Q 1016 2553 972 2059 
L 3022 2063 
z
" transform="scale(0.015625)"/>
       <path id="DejaVuSans-5f" d="M 3263 -1063 
L 3263 -1509 
L -63 -1509 
L -63 -1063 
L 3263 -1063 
z
" transform="scale(0.015625)"/>
       <path id="DejaVuSans-74" d="M 1172 4494 
L 1172 3500 
L 2356 3500 
L 2356 3053 
L 1172 3053 
L 1172 1153 
Q 1172 725 1289 603 
Q 1406 481 1766 481 
L 2356 481 
L 2356 0 
L 1766 0 
Q 1100 0 847 248 
Q 594 497 594 1153 
L 594 3053 
L 172 3053 
L 172 3500 
L 594 3500 
L 594 4494 
L 1172 4494 
z
" transform="scale(0.015625)"/>
       <path id="DejaVuSans-72" d="M 2631 2963 
Q 2534 3019 2420 3045 
Q 2306 3072 2169 3072 
Q 1681 3072 1420 2755 
Q 1159 2438 1159 1844 
L 1159 0 
L 581 0 
L 581 3500 
L 1159 3500 
L 1159 2956 
Q 1341 3275 1631 3429 
Q 1922 3584 2338 3584 
Q 2397 3584 2469 3576 
Q 2541 3569 2628 3553 
L 2631 2963 
z
" transform="scale(0.015625)"/>
       <path id="DejaVuSans-67" d="M 2906 1791 
Q 2906 2416 2648 2759 
Q 2391 3103 1925 3103 
Q 1463 3103 1205 2759 
Q 947 2416 947 1791 
Q 947 1169 1205 825 
Q 1463 481 1925 481 
Q 2391 481 2648 825 
Q 2906 1169 2906 1791 
z
M 3481 434 
Q 3481 -459 3084 -895 
Q 2688 -1331 1869 -1331 
Q 1566 -1331 1297 -1286 
Q 1028 -1241 775 -1147 
L 775 -588 
Q 1028 -725 1275 -790 
Q 1522 -856 1778 -856 
Q 2344 -856 2625 -561 
Q 2906 -266 2906 331 
L 2906 616 
Q 2728 306 2450 153 
Q 2172 0 1784 0 
Q 1141 0 747 490 
Q 353 981 353 1791 
Q 353 2603 747 3093 
Q 1141 3584 1784 3584 
Q 2172 3584 2450 3431 
Q 2728 3278 2906 2969 
L 2906 3500 
L 3481 3500 
L 3481 434 
z
" transform="scale(0.015625)"/>
       <path id="DejaVuSans-64" d="M 2906 2969 
L 2906 4863 
L 3481 4863 
L 3481 0 
L 2906 0 
L 2906 525 
Q 2725 213 2448 61 
Q 2172 -91 1784 -91 
Q 1150 -91 751 415 
Q 353 922 353 1747 
Q 353 2572 751 3078 
Q 1150 3584 1784 3584 
Q 2172 3584 2448 3432 
Q 2725 3281 2906 2969 
z
M 947 1747 
Q 947 1113 1208 752 
Q 1469 391 1925 391 
Q 2381 391 2643 752 
Q 2906 1113 2906 1747 
Q 2906 2381 2643 2742 
Q 2381 3103 1925 3103 
Q 1469 3103 1208 2742 
Q 947 2381 947 1747 
z
" transform="scale(0.015625)"/>
      </defs>
      <use xlink:href="#DejaVuSans-6c"/>
      <use xlink:href="#DejaVuSans-61" x="27.783203"/>
      <use xlink:href="#DejaVuSans-62" x="89.0625"/>
      <use xlink:href="#DejaVuSans-65" x="152.539062"/>
      <use xlink:href="#DejaVuSans-6c" x="214.0625"/>
      <use xlink:href="#DejaVuSans-5f" x="241.845703"/>
      <use xlink:href="#DejaVuSans-74" x="291.845703"/>
      <use xlink:href="#DejaVuSans-61" x="331.054688"/>
      <use xlink:href="#DejaVuSans-72" x="392.333984"/>
      <use xlink:href="#DejaVuSans-67" x="431.697266"/>
      <use xlink:href="#DejaVuSans-65" x="495.173828"/>
      <use xlink:href="#DejaVuSans-74" x="556.697266"/>
      <use xlink:href="#DejaVuSans-5f" x="595.90625"/>
      <use xlink:href="#DejaVuSans-64" x="645.90625"/>
      <use xlink:href="#DejaVuSans-65" x="709.382812"/>
      <use xlink:href="#DejaVuSans-6c" x="770.90625"/>
      <use xlink:href="#DejaVuSans-74" x="798.689453"/>
      <use xlink:href="#DejaVuSans-61" x="837.898438"/>
      <use xlink:href="#DejaVuSans-35" x="899.177734"/>
     </g>
    </g>
   </g>
   <g id="matplotlib.axis_2">
    <g id="ytick_1">
     <g id="line2d_8">
      <defs>
       <path id="md14ee277f8" d="M 0 0 
L -3.5 0 
" style="stroke: #000000; stroke-width: 0.8"/>
      </defs>
      <g>
       <use xlink:href="#md14ee277f8" x="50.14375" y="457.376875" style="stroke: #000000; stroke-width: 0.8"/>
      </g>
     </g>
     <g id="text_9">
      <!-- 0.00 -->
      <g transform="translate(20.878125 461.176094) scale(0.1 -0.1)">
       <defs>
        <path id="DejaVuSans-2e" d="M 684 794 
L 1344 794 
L 1344 0 
L 684 0 
L 684 794 
z
" transform="scale(0.015625)"/>
       </defs>
       <use xlink:href="#DejaVuSans-30"/>
       <use xlink:href="#DejaVuSans-2e" x="63.623047"/>
       <use xlink:href="#DejaVuSans-30" x="95.410156"/>
       <use xlink:href="#DejaVuSans-30" x="159.033203"/>
      </g>
     </g>
    </g>
    <g id="ytick_2">
     <g id="line2d_9">
      <g>
       <use xlink:href="#md14ee277f8" x="50.14375" y="402.437549" style="stroke: #000000; stroke-width: 0.8"/>
      </g>
     </g>
     <g id="text_10">
      <!-- 0.05 -->
      <g transform="translate(20.878125 406.236768) scale(0.1 -0.1)">
       <use xlink:href="#DejaVuSans-30"/>
       <use xlink:href="#DejaVuSans-2e" x="63.623047"/>
       <use xlink:href="#DejaVuSans-30" x="95.410156"/>
       <use xlink:href="#DejaVuSans-35" x="159.033203"/>
      </g>
     </g>
    </g>
    <g id="ytick_3">
     <g id="line2d_10">
      <g>
       <use xlink:href="#md14ee277f8" x="50.14375" y="347.498224" style="stroke: #000000; stroke-width: 0.8"/>
      </g>
     </g>
     <g id="text_11">
      <!-- 0.10 -->
      <g transform="translate(20.878125 351.297443) scale(0.1 -0.1)">
       <use xlink:href="#DejaVuSans-30"/>
       <use xlink:href="#DejaVuSans-2e" x="63.623047"/>
       <use xlink:href="#DejaVuSans-31" x="95.410156"/>
       <use xlink:href="#DejaVuSans-30" x="159.033203"/>
      </g>
     </g>
    </g>
    <g id="ytick_4">
     <g id="line2d_11">
      <g>
       <use xlink:href="#md14ee277f8" x="50.14375" y="292.558898" style="stroke: #000000; stroke-width: 0.8"/>
      </g>
     </g>
     <g id="text_12">
      <!-- 0.15 -->
      <g transform="translate(20.878125 296.358117) scale(0.1 -0.1)">
       <use xlink:href="#DejaVuSans-30"/>
       <use xlink:href="#DejaVuSans-2e" x="63.623047"/>
       <use xlink:href="#DejaVuSans-31" x="95.410156"/>
       <use xlink:href="#DejaVuSans-35" x="159.033203"/>
      </g>
     </g>
    </g>
    <g id="ytick_5">
     <g id="line2d_12">
      <g>
       <use xlink:href="#md14ee277f8" x="50.14375" y="237.619573" style="stroke: #000000; stroke-width: 0.8"/>
      </g>
     </g>
     <g id="text_13">
      <!-- 0.20 -->
      <g transform="translate(20.878125 241.418792) scale(0.1 -0.1)">
       <defs>
        <path id="DejaVuSans-32" d="M 1228 531 
L 3431 531 
L 3431 0 
L 469 0 
L 469 531 
Q 828 903 1448 1529 
Q 2069 2156 2228 2338 
Q 2531 2678 2651 2914 
Q 2772 3150 2772 3378 
Q 2772 3750 2511 3984 
Q 2250 4219 1831 4219 
Q 1534 4219 1204 4116 
Q 875 4013 500 3803 
L 500 4441 
Q 881 4594 1212 4672 
Q 1544 4750 1819 4750 
Q 2544 4750 2975 4387 
Q 3406 4025 3406 3419 
Q 3406 3131 3298 2873 
Q 3191 2616 2906 2266 
Q 2828 2175 2409 1742 
Q 1991 1309 1228 531 
z
" transform="scale(0.015625)"/>
       </defs>
       <use xlink:href="#DejaVuSans-30"/>
       <use xlink:href="#DejaVuSans-2e" x="63.623047"/>
       <use xlink:href="#DejaVuSans-32" x="95.410156"/>
       <use xlink:href="#DejaVuSans-30" x="159.033203"/>
      </g>
     </g>
    </g>
    <g id="ytick_6">
     <g id="line2d_13">
      <g>
       <use xlink:href="#md14ee277f8" x="50.14375" y="182.680247" style="stroke: #000000; stroke-width: 0.8"/>
      </g>
     </g>
     <g id="text_14">
      <!-- 0.25 -->
      <g transform="translate(20.878125 186.479466) scale(0.1 -0.1)">
       <use xlink:href="#DejaVuSans-30"/>
       <use xlink:href="#DejaVuSans-2e" x="63.623047"/>
       <use xlink:href="#DejaVuSans-32" x="95.410156"/>
       <use xlink:href="#DejaVuSans-35" x="159.033203"/>
      </g>
     </g>
    </g>
    <g id="ytick_7">
     <g id="line2d_14">
      <g>
       <use xlink:href="#md14ee277f8" x="50.14375" y="127.740922" style="stroke: #000000; stroke-width: 0.8"/>
      </g>
     </g>
     <g id="text_15">
      <!-- 0.30 -->
      <g transform="translate(20.878125 131.540141) scale(0.1 -0.1)">
       <defs>
        <path id="DejaVuSans-33" d="M 2597 2516 
Q 3050 2419 3304 2112 
Q 3559 1806 3559 1356 
Q 3559 666 3084 287 
Q 2609 -91 1734 -91 
Q 1441 -91 1130 -33 
Q 819 25 488 141 
L 488 750 
Q 750 597 1062 519 
Q 1375 441 1716 441 
Q 2309 441 2620 675 
Q 2931 909 2931 1356 
Q 2931 1769 2642 2001 
Q 2353 2234 1838 2234 
L 1294 2234 
L 1294 2753 
L 1863 2753 
Q 2328 2753 2575 2939 
Q 2822 3125 2822 3475 
Q 2822 3834 2567 4026 
Q 2313 4219 1838 4219 
Q 1578 4219 1281 4162 
Q 984 4106 628 3988 
L 628 4550 
Q 988 4650 1302 4700 
Q 1616 4750 1894 4750 
Q 2613 4750 3031 4423 
Q 3450 4097 3450 3541 
Q 3450 3153 3228 2886 
Q 3006 2619 2597 2516 
z
" transform="scale(0.015625)"/>
       </defs>
       <use xlink:href="#DejaVuSans-30"/>
       <use xlink:href="#DejaVuSans-2e" x="63.623047"/>
       <use xlink:href="#DejaVuSans-33" x="95.410156"/>
       <use xlink:href="#DejaVuSans-30" x="159.033203"/>
      </g>
     </g>
    </g>
    <g id="ytick_8">
     <g id="line2d_15">
      <g>
       <use xlink:href="#md14ee277f8" x="50.14375" y="72.801596" style="stroke: #000000; stroke-width: 0.8"/>
      </g>
     </g>
     <g id="text_16">
      <!-- 0.35 -->
      <g transform="translate(20.878125 76.600815) scale(0.1 -0.1)">
       <use xlink:href="#DejaVuSans-30"/>
       <use xlink:href="#DejaVuSans-2e" x="63.623047"/>
       <use xlink:href="#DejaVuSans-33" x="95.410156"/>
       <use xlink:href="#DejaVuSans-35" x="159.033203"/>
      </g>
     </g>
    </g>
    <g id="text_17">
     <!-- Density -->
     <g transform="translate(14.798438 258.856094) rotate(-90) scale(0.1 -0.1)">
      <defs>
       <path id="DejaVuSans-44" d="M 1259 4147 
L 1259 519 
L 2022 519 
Q 2988 519 3436 956 
Q 3884 1394 3884 2338 
Q 3884 3275 3436 3711 
Q 2988 4147 2022 4147 
L 1259 4147 
z
M 628 4666 
L 1925 4666 
Q 3281 4666 3915 4102 
Q 4550 3538 4550 2338 
Q 4550 1131 3912 565 
Q 3275 0 1925 0 
L 628 0 
L 628 4666 
z
" transform="scale(0.015625)"/>
       <path id="DejaVuSans-6e" d="M 3513 2113 
L 3513 0 
L 2938 0 
L 2938 2094 
Q 2938 2591 2744 2837 
Q 2550 3084 2163 3084 
Q 1697 3084 1428 2787 
Q 1159 2491 1159 1978 
L 1159 0 
L 581 0 
L 581 3500 
L 1159 3500 
L 1159 2956 
Q 1366 3272 1645 3428 
Q 1925 3584 2291 3584 
Q 2894 3584 3203 3211 
Q 3513 2838 3513 2113 
z
" transform="scale(0.015625)"/>
       <path id="DejaVuSans-73" d="M 2834 3397 
L 2834 2853 
Q 2591 2978 2328 3040 
Q 2066 3103 1784 3103 
Q 1356 3103 1142 2972 
Q 928 2841 928 2578 
Q 928 2378 1081 2264 
Q 1234 2150 1697 2047 
L 1894 2003 
Q 2506 1872 2764 1633 
Q 3022 1394 3022 966 
Q 3022 478 2636 193 
Q 2250 -91 1575 -91 
Q 1294 -91 989 -36 
Q 684 19 347 128 
L 347 722 
Q 666 556 975 473 
Q 1284 391 1588 391 
Q 1994 391 2212 530 
Q 2431 669 2431 922 
Q 2431 1156 2273 1281 
Q 2116 1406 1581 1522 
L 1381 1569 
Q 847 1681 609 1914 
Q 372 2147 372 2553 
Q 372 3047 722 3315 
Q 1072 3584 1716 3584 
Q 2034 3584 2315 3537 
Q 2597 3491 2834 3397 
z
" transform="scale(0.015625)"/>
       <path id="DejaVuSans-69" d="M 603 3500 
L 1178 3500 
L 1178 0 
L 603 0 
L 603 3500 
z
M 603 4863 
L 1178 4863 
L 1178 4134 
L 603 4134 
L 603 4863 
z
" transform="scale(0.015625)"/>
       <path id="DejaVuSans-79" d="M 2059 -325 
Q 1816 -950 1584 -1140 
Q 1353 -1331 966 -1331 
L 506 -1331 
L 506 -850 
L 844 -850 
Q 1081 -850 1212 -737 
Q 1344 -625 1503 -206 
L 1606 56 
L 191 3500 
L 800 3500 
L 1894 763 
L 2988 3500 
L 3597 3500 
L 2059 -325 
z
" transform="scale(0.015625)"/>
      </defs>
      <use xlink:href="#DejaVuSans-44"/>
      <use xlink:href="#DejaVuSans-65" x="77.001953"/>
      <use xlink:href="#DejaVuSans-6e" x="138.525391"/>
      <use xlink:href="#DejaVuSans-73" x="201.904297"/>
      <use xlink:href="#DejaVuSans-69" x="254.003906"/>
      <use xlink:href="#DejaVuSans-74" x="281.787109"/>
      <use xlink:href="#DejaVuSans-79" x="320.996094"/>
     </g>
    </g>
   </g>
   <g id="LineCollection_1">
    <path d="M 417.435186 457.376875 
L 417.435186 448.6757 
" clip-path="url(#pfa6eae7f34)" style="fill: none; stroke: #008000; stroke-opacity: 0.15"/>
    <path d="M 442.485437 457.376875 
L 442.485437 448.6757 
" clip-path="url(#pfa6eae7f34)" style="fill: none; stroke: #008000; stroke-opacity: 0.15"/>
    <path d="M 451.01318 457.376875 
L 451.01318 448.6757 
" clip-path="url(#pfa6eae7f34)" style="fill: none; stroke: #008000; stroke-opacity: 0.15"/>
    <path d="M 390.69718 457.376875 
L 390.69718 448.6757 
" clip-path="url(#pfa6eae7f34)" style="fill: none; stroke: #008000; stroke-opacity: 0.15"/>
    <path d="M 456.133232 457.376875 
L 456.133232 448.6757 
" clip-path="url(#pfa6eae7f34)" style="fill: none; stroke: #008000; stroke-opacity: 0.15"/>
    <path d="M 454.111211 457.376875 
L 454.111211 448.6757 
" clip-path="url(#pfa6eae7f34)" style="fill: none; stroke: #008000; stroke-opacity: 0.15"/>
    <path d="M 449.679973 457.376875 
L 449.679973 448.6757 
" clip-path="url(#pfa6eae7f34)" style="fill: none; stroke: #008000; stroke-opacity: 0.15"/>
    <path d="M 439.492873 457.376875 
L 439.492873 448.6757 
" clip-path="url(#pfa6eae7f34)" style="fill: none; stroke: #008000; stroke-opacity: 0.15"/>
    <path d="M 422.51175 457.376875 
L 422.51175 448.6757 
" clip-path="url(#pfa6eae7f34)" style="fill: none; stroke: #008000; stroke-opacity: 0.15"/>
    <path d="M 385.878747 457.376875 
L 385.878747 448.6757 
" clip-path="url(#pfa6eae7f34)" style="fill: none; stroke: #008000; stroke-opacity: 0.15"/>
    <path d="M 420.941457 457.376875 
L 420.941457 448.6757 
" clip-path="url(#pfa6eae7f34)" style="fill: none; stroke: #008000; stroke-opacity: 0.15"/>
    <path d="M 460.569193 457.376875 
L 460.569193 448.6757 
" clip-path="url(#pfa6eae7f34)" style="fill: none; stroke: #008000; stroke-opacity: 0.15"/>
    <path d="M 433.601913 457.376875 
L 433.601913 448.6757 
" clip-path="url(#pfa6eae7f34)" style="fill: none; stroke: #008000; stroke-opacity: 0.15"/>
    <path d="M 385.513062 457.376875 
L 385.513062 448.6757 
" clip-path="url(#pfa6eae7f34)" style="fill: none; stroke: #008000; stroke-opacity: 0.15"/>
    <path d="M 400.549157 457.376875 
L 400.549157 448.6757 
" clip-path="url(#pfa6eae7f34)" style="fill: none; stroke: #008000; stroke-opacity: 0.15"/>
    <path d="M 425.114565 457.376875 
L 425.114565 448.6757 
" clip-path="url(#pfa6eae7f34)" style="fill: none; stroke: #008000; stroke-opacity: 0.15"/>
    <path d="M 470.029251 457.376875 
L 470.029251 448.6757 
" clip-path="url(#pfa6eae7f34)" style="fill: none; stroke: #008000; stroke-opacity: 0.15"/>
    <path d="M 458.520938 457.376875 
L 458.520938 448.6757 
" clip-path="url(#pfa6eae7f34)" style="fill: none; stroke: #008000; stroke-opacity: 0.15"/>
    <path d="M 410.935757 457.376875 
L 410.935757 448.6757 
" clip-path="url(#pfa6eae7f34)" style="fill: none; stroke: #008000; stroke-opacity: 0.15"/>
    <path d="M 451.964846 457.376875 
L 451.964846 448.6757 
" clip-path="url(#pfa6eae7f34)" style="fill: none; stroke: #008000; stroke-opacity: 0.15"/>
    <path d="M 379.2534 457.376875 
L 379.2534 448.6757 
" clip-path="url(#pfa6eae7f34)" style="fill: none; stroke: #008000; stroke-opacity: 0.15"/>
    <path d="M 448.324788 457.376875 
L 448.324788 448.6757 
" clip-path="url(#pfa6eae7f34)" style="fill: none; stroke: #008000; stroke-opacity: 0.15"/>
    <path d="M 413.692295 457.376875 
L 413.692295 448.6757 
" clip-path="url(#pfa6eae7f34)" style="fill: none; stroke: #008000; stroke-opacity: 0.15"/>
    <path d="M 468.351404 457.376875 
L 468.351404 448.6757 
" clip-path="url(#pfa6eae7f34)" style="fill: none; stroke: #008000; stroke-opacity: 0.15"/>
    <path d="M 356.258285 457.376875 
L 356.258285 448.6757 
" clip-path="url(#pfa6eae7f34)" style="fill: none; stroke: #008000; stroke-opacity: 0.15"/>
    <path d="M 409.82034 457.376875 
L 409.82034 448.6757 
" clip-path="url(#pfa6eae7f34)" style="fill: none; stroke: #008000; stroke-opacity: 0.15"/>
    <path d="M 349.267254 457.376875 
L 349.267254 448.6757 
" clip-path="url(#pfa6eae7f34)" style="fill: none; stroke: #008000; stroke-opacity: 0.15"/>
    <path d="M 405.86234 457.376875 
L 405.86234 448.6757 
" clip-path="url(#pfa6eae7f34)" style="fill: none; stroke: #008000; stroke-opacity: 0.15"/>
    <path d="M 415.80036 457.376875 
L 415.80036 448.6757 
" clip-path="url(#pfa6eae7f34)" style="fill: none; stroke: #008000; stroke-opacity: 0.15"/>
    <path d="M 440.301236 457.376875 
L 440.301236 448.6757 
" clip-path="url(#pfa6eae7f34)" style="fill: none; stroke: #008000; stroke-opacity: 0.15"/>
    <path d="M 371.325335 457.376875 
L 371.325335 448.6757 
" clip-path="url(#pfa6eae7f34)" style="fill: none; stroke: #008000; stroke-opacity: 0.15"/>
    <path d="M 441.054116 457.376875 
L 441.054116 448.6757 
" clip-path="url(#pfa6eae7f34)" style="fill: none; stroke: #008000; stroke-opacity: 0.15"/>
    <path d="M 460.973177 457.376875 
L 460.973177 448.6757 
" clip-path="url(#pfa6eae7f34)" style="fill: none; stroke: #008000; stroke-opacity: 0.15"/>
    <path d="M 405.905362 457.376875 
L 405.905362 448.6757 
" clip-path="url(#pfa6eae7f34)" style="fill: none; stroke: #008000; stroke-opacity: 0.15"/>
    <path d="M 428.491771 457.376875 
L 428.491771 448.6757 
" clip-path="url(#pfa6eae7f34)" style="fill: none; stroke: #008000; stroke-opacity: 0.15"/>
    <path d="M 444.409811 457.376875 
L 444.409811 448.6757 
" clip-path="url(#pfa6eae7f34)" style="fill: none; stroke: #008000; stroke-opacity: 0.15"/>
    <path d="M 456.708255 457.376875 
L 456.708255 448.6757 
" clip-path="url(#pfa6eae7f34)" style="fill: none; stroke: #008000; stroke-opacity: 0.15"/>
    <path d="M 408.610073 457.376875 
L 408.610073 448.6757 
" clip-path="url(#pfa6eae7f34)" style="fill: none; stroke: #008000; stroke-opacity: 0.15"/>
    <path d="M 451.615951 457.376875 
L 451.615951 448.6757 
" clip-path="url(#pfa6eae7f34)" style="fill: none; stroke: #008000; stroke-opacity: 0.15"/>
    <path d="M 398.425293 457.376875 
L 398.425293 448.6757 
" clip-path="url(#pfa6eae7f34)" style="fill: none; stroke: #008000; stroke-opacity: 0.15"/>
    <path d="M 451.766527 457.376875 
L 451.766527 448.6757 
" clip-path="url(#pfa6eae7f34)" style="fill: none; stroke: #008000; stroke-opacity: 0.15"/>
    <path d="M 439.376268 457.376875 
L 439.376268 448.6757 
" clip-path="url(#pfa6eae7f34)" style="fill: none; stroke: #008000; stroke-opacity: 0.15"/>
    <path d="M 417.843892 457.376875 
L 417.843892 448.6757 
" clip-path="url(#pfa6eae7f34)" style="fill: none; stroke: #008000; stroke-opacity: 0.15"/>
    <path d="M 463.619013 457.376875 
L 463.619013 448.6757 
" clip-path="url(#pfa6eae7f34)" style="fill: none; stroke: #008000; stroke-opacity: 0.15"/>
    <path d="M 363.937664 457.376875 
L 363.937664 448.6757 
" clip-path="url(#pfa6eae7f34)" style="fill: none; stroke: #008000; stroke-opacity: 0.15"/>
    <path d="M 446.13068 457.376875 
L 446.13068 448.6757 
" clip-path="url(#pfa6eae7f34)" style="fill: none; stroke: #008000; stroke-opacity: 0.15"/>
    <path d="M 444.990604 457.376875 
L 444.990604 448.6757 
" clip-path="url(#pfa6eae7f34)" style="fill: none; stroke: #008000; stroke-opacity: 0.15"/>
    <path d="M 441.011094 457.376875 
L 441.011094 448.6757 
" clip-path="url(#pfa6eae7f34)" style="fill: none; stroke: #008000; stroke-opacity: 0.15"/>
    <path d="M 389.858257 457.376875 
L 389.858257 448.6757 
" clip-path="url(#pfa6eae7f34)" style="fill: none; stroke: #008000; stroke-opacity: 0.15"/>
    <path d="M 453.83157 457.376875 
L 453.83157 448.6757 
" clip-path="url(#pfa6eae7f34)" style="fill: none; stroke: #008000; stroke-opacity: 0.15"/>
    <path d="M 407.893806 457.376875 
L 407.893806 448.6757 
" clip-path="url(#pfa6eae7f34)" style="fill: none; stroke: #008000; stroke-opacity: 0.15"/>
    <path d="M 357.075698 457.376875 
L 357.075698 448.6757 
" clip-path="url(#pfa6eae7f34)" style="fill: none; stroke: #008000; stroke-opacity: 0.15"/>
    <path d="M 452.85676 457.376875 
L 452.85676 448.6757 
" clip-path="url(#pfa6eae7f34)" style="fill: none; stroke: #008000; stroke-opacity: 0.15"/>
    <path d="M 445.420822 457.376875 
L 445.420822 448.6757 
" clip-path="url(#pfa6eae7f34)" style="fill: none; stroke: #008000; stroke-opacity: 0.15"/>
    <path d="M 406.687098 457.376875 
L 406.687098 448.6757 
" clip-path="url(#pfa6eae7f34)" style="fill: none; stroke: #008000; stroke-opacity: 0.15"/>
    <path d="M 454.115933 457.376875 
L 454.115933 448.6757 
" clip-path="url(#pfa6eae7f34)" style="fill: none; stroke: #008000; stroke-opacity: 0.15"/>
    <path d="M 444.710963 457.376875 
L 444.710963 448.6757 
" clip-path="url(#pfa6eae7f34)" style="fill: none; stroke: #008000; stroke-opacity: 0.15"/>
    <path d="M 434.256682 457.376875 
L 434.256682 448.6757 
" clip-path="url(#pfa6eae7f34)" style="fill: none; stroke: #008000; stroke-opacity: 0.15"/>
    <path d="M 404.607241 457.376875 
L 404.607241 448.6757 
" clip-path="url(#pfa6eae7f34)" style="fill: none; stroke: #008000; stroke-opacity: 0.15"/>
    <path d="M 447.764962 457.376875 
L 447.764962 448.6757 
" clip-path="url(#pfa6eae7f34)" style="fill: none; stroke: #008000; stroke-opacity: 0.15"/>
    <path d="M 446.949662 457.376875 
L 446.949662 448.6757 
" clip-path="url(#pfa6eae7f34)" style="fill: none; stroke: #008000; stroke-opacity: 0.15"/>
    <path d="M 447.021834 457.376875 
L 447.021834 448.6757 
" clip-path="url(#pfa6eae7f34)" style="fill: none; stroke: #008000; stroke-opacity: 0.15"/>
    <path d="M 375.725618 457.376875 
L 375.725618 448.6757 
" clip-path="url(#pfa6eae7f34)" style="fill: none; stroke: #008000; stroke-opacity: 0.15"/>
    <path d="M 428.857455 457.376875 
L 428.857455 448.6757 
" clip-path="url(#pfa6eae7f34)" style="fill: none; stroke: #008000; stroke-opacity: 0.15"/>
    <path d="M 414.789349 457.376875 
L 414.789349 448.6757 
" clip-path="url(#pfa6eae7f34)" style="fill: none; stroke: #008000; stroke-opacity: 0.15"/>
    <path d="M 444.732474 457.376875 
L 444.732474 448.6757 
" clip-path="url(#pfa6eae7f34)" style="fill: none; stroke: #008000; stroke-opacity: 0.15"/>
    <path d="M 447.571908 457.376875 
L 447.571908 448.6757 
" clip-path="url(#pfa6eae7f34)" style="fill: none; stroke: #008000; stroke-opacity: 0.15"/>
    <path d="M 422.898946 457.376875 
L 422.898946 448.6757 
" clip-path="url(#pfa6eae7f34)" style="fill: none; stroke: #008000; stroke-opacity: 0.15"/>
    <path d="M 451.013646 457.376875 
L 451.013646 448.6757 
" clip-path="url(#pfa6eae7f34)" style="fill: none; stroke: #008000; stroke-opacity: 0.15"/>
    <path d="M 454.799559 457.376875 
L 454.799559 448.6757 
" clip-path="url(#pfa6eae7f34)" style="fill: none; stroke: #008000; stroke-opacity: 0.15"/>
    <path d="M 435.509828 457.376875 
L 435.509828 448.6757 
" clip-path="url(#pfa6eae7f34)" style="fill: none; stroke: #008000; stroke-opacity: 0.15"/>
    <path d="M 421.999253 457.376875 
L 421.999253 448.6757 
" clip-path="url(#pfa6eae7f34)" style="fill: none; stroke: #008000; stroke-opacity: 0.15"/>
    <path d="M 408.356324 457.376875 
L 408.356324 448.6757 
" clip-path="url(#pfa6eae7f34)" style="fill: none; stroke: #008000; stroke-opacity: 0.15"/>
    <path d="M 410.863978 457.376875 
L 410.863978 448.6757 
" clip-path="url(#pfa6eae7f34)" style="fill: none; stroke: #008000; stroke-opacity: 0.15"/>
    <path d="M 430.131566 457.376875 
L 430.131566 448.6757 
" clip-path="url(#pfa6eae7f34)" style="fill: none; stroke: #008000; stroke-opacity: 0.15"/>
    <path d="M 473.528177 457.376875 
L 473.528177 448.6757 
" clip-path="url(#pfa6eae7f34)" style="fill: none; stroke: #008000; stroke-opacity: 0.15"/>
    <path d="M 439.548355 457.376875 
L 439.548355 448.6757 
" clip-path="url(#pfa6eae7f34)" style="fill: none; stroke: #008000; stroke-opacity: 0.15"/>
    <path d="M 453.119088 457.376875 
L 453.119088 448.6757 
" clip-path="url(#pfa6eae7f34)" style="fill: none; stroke: #008000; stroke-opacity: 0.15"/>
    <path d="M 441.420837 457.376875 
L 441.420837 448.6757 
" clip-path="url(#pfa6eae7f34)" style="fill: none; stroke: #008000; stroke-opacity: 0.15"/>
    <path d="M 436.907241 457.376875 
L 436.907241 448.6757 
" clip-path="url(#pfa6eae7f34)" style="fill: none; stroke: #008000; stroke-opacity: 0.15"/>
    <path d="M 377.683107 457.376875 
L 377.683107 448.6757 
" clip-path="url(#pfa6eae7f34)" style="fill: none; stroke: #008000; stroke-opacity: 0.15"/>
    <path d="M 442.667431 457.376875 
L 442.667431 448.6757 
" clip-path="url(#pfa6eae7f34)" style="fill: none; stroke: #008000; stroke-opacity: 0.15"/>
    <path d="M 422.25362 457.376875 
L 422.25362 448.6757 
" clip-path="url(#pfa6eae7f34)" style="fill: none; stroke: #008000; stroke-opacity: 0.15"/>
    <path d="M 401.925852 457.376875 
L 401.925852 448.6757 
" clip-path="url(#pfa6eae7f34)" style="fill: none; stroke: #008000; stroke-opacity: 0.15"/>
    <path d="M 440.338486 457.376875 
L 440.338486 448.6757 
" clip-path="url(#pfa6eae7f34)" style="fill: none; stroke: #008000; stroke-opacity: 0.15"/>
    <path d="M 440.215192 457.376875 
L 440.215192 448.6757 
" clip-path="url(#pfa6eae7f34)" style="fill: none; stroke: #008000; stroke-opacity: 0.15"/>
    <path d="M 391.213441 457.376875 
L 391.213441 448.6757 
" clip-path="url(#pfa6eae7f34)" style="fill: none; stroke: #008000; stroke-opacity: 0.15"/>
    <path d="M 416.340755 457.376875 
L 416.340755 448.6757 
" clip-path="url(#pfa6eae7f34)" style="fill: none; stroke: #008000; stroke-opacity: 0.15"/>
    <path d="M 427.683802 457.376875 
L 427.683802 448.6757 
" clip-path="url(#pfa6eae7f34)" style="fill: none; stroke: #008000; stroke-opacity: 0.15"/>
    <path d="M 446.001615 457.376875 
L 446.001615 448.6757 
" clip-path="url(#pfa6eae7f34)" style="fill: none; stroke: #008000; stroke-opacity: 0.15"/>
    <path d="M 437.504823 457.376875 
L 437.504823 448.6757 
" clip-path="url(#pfa6eae7f34)" style="fill: none; stroke: #008000; stroke-opacity: 0.15"/>
    <path d="M 375.187847 457.376875 
L 375.187847 448.6757 
" clip-path="url(#pfa6eae7f34)" style="fill: none; stroke: #008000; stroke-opacity: 0.15"/>
    <path d="M 445.033626 457.376875 
L 445.033626 448.6757 
" clip-path="url(#pfa6eae7f34)" style="fill: none; stroke: #008000; stroke-opacity: 0.15"/>
    <path d="M 441.785485 457.376875 
L 441.785485 448.6757 
" clip-path="url(#pfa6eae7f34)" style="fill: none; stroke: #008000; stroke-opacity: 0.15"/>
    <path d="M 383.942769 457.376875 
L 383.942769 448.6757 
" clip-path="url(#pfa6eae7f34)" style="fill: none; stroke: #008000; stroke-opacity: 0.15"/>
    <path d="M 437.956551 457.376875 
L 437.956551 448.6757 
" clip-path="url(#pfa6eae7f34)" style="fill: none; stroke: #008000; stroke-opacity: 0.15"/>
    <path d="M 445.287959 457.376875 
L 445.287959 448.6757 
" clip-path="url(#pfa6eae7f34)" style="fill: none; stroke: #008000; stroke-opacity: 0.15"/>
    <path d="M 426.801902 457.376875 
L 426.801902 448.6757 
" clip-path="url(#pfa6eae7f34)" style="fill: none; stroke: #008000; stroke-opacity: 0.15"/>
    <path d="M 389.234442 457.376875 
L 389.234442 448.6757 
" clip-path="url(#pfa6eae7f34)" style="fill: none; stroke: #008000; stroke-opacity: 0.15"/>
    <path d="M 469.488332 457.376875 
L 469.488332 448.6757 
" clip-path="url(#pfa6eae7f34)" style="fill: none; stroke: #008000; stroke-opacity: 0.15"/>
    <path d="M 407.893806 457.376875 
L 407.893806 448.6757 
" clip-path="url(#pfa6eae7f34)" style="fill: none; stroke: #008000; stroke-opacity: 0.15"/>
    <path d="M 414.441247 457.376875 
L 414.441247 448.6757 
" clip-path="url(#pfa6eae7f34)" style="fill: none; stroke: #008000; stroke-opacity: 0.15"/>
    <path d="M 420.200463 457.376875 
L 420.200463 448.6757 
" clip-path="url(#pfa6eae7f34)" style="fill: none; stroke: #008000; stroke-opacity: 0.15"/>
    <path d="M 444.767781 457.376875 
L 444.767781 448.6757 
" clip-path="url(#pfa6eae7f34)" style="fill: none; stroke: #008000; stroke-opacity: 0.15"/>
    <path d="M 448.198782 457.376875 
L 448.198782 448.6757 
" clip-path="url(#pfa6eae7f34)" style="fill: none; stroke: #008000; stroke-opacity: 0.15"/>
    <path d="M 447.321393 457.376875 
L 447.321393 448.6757 
" clip-path="url(#pfa6eae7f34)" style="fill: none; stroke: #008000; stroke-opacity: 0.15"/>
    <path d="M 461.880831 457.376875 
L 461.880831 448.6757 
" clip-path="url(#pfa6eae7f34)" style="fill: none; stroke: #008000; stroke-opacity: 0.15"/>
    <path d="M 380.371965 457.376875 
L 380.371965 448.6757 
" clip-path="url(#pfa6eae7f34)" style="fill: none; stroke: #008000; stroke-opacity: 0.15"/>
    <path d="M 394.332517 457.376875 
L 394.332517 448.6757 
" clip-path="url(#pfa6eae7f34)" style="fill: none; stroke: #008000; stroke-opacity: 0.15"/>
    <path d="M 405.152482 457.376875 
L 405.152482 448.6757 
" clip-path="url(#pfa6eae7f34)" style="fill: none; stroke: #008000; stroke-opacity: 0.15"/>
    <path d="M 472.158827 457.376875 
L 472.158827 448.6757 
" clip-path="url(#pfa6eae7f34)" style="fill: none; stroke: #008000; stroke-opacity: 0.15"/>
    <path d="M 451.912381 457.376875 
L 451.912381 448.6757 
" clip-path="url(#pfa6eae7f34)" style="fill: none; stroke: #008000; stroke-opacity: 0.15"/>
    <path d="M 446.797517 457.376875 
L 446.797517 448.6757 
" clip-path="url(#pfa6eae7f34)" style="fill: none; stroke: #008000; stroke-opacity: 0.15"/>
    <path d="M 444.252414 457.376875 
L 444.252414 448.6757 
" clip-path="url(#pfa6eae7f34)" style="fill: none; stroke: #008000; stroke-opacity: 0.15"/>
    <path d="M 432.605068 457.376875 
L 432.605068 448.6757 
" clip-path="url(#pfa6eae7f34)" style="fill: none; stroke: #008000; stroke-opacity: 0.15"/>
    <path d="M 409.562209 457.376875 
L 409.562209 448.6757 
" clip-path="url(#pfa6eae7f34)" style="fill: none; stroke: #008000; stroke-opacity: 0.15"/>
    <path d="M 452.169462 457.376875 
L 452.169462 448.6757 
" clip-path="url(#pfa6eae7f34)" style="fill: none; stroke: #008000; stroke-opacity: 0.15"/>
    <path d="M 421.629805 457.376875 
L 421.629805 448.6757 
" clip-path="url(#pfa6eae7f34)" style="fill: none; stroke: #008000; stroke-opacity: 0.15"/>
    <path d="M 395.365038 457.376875 
L 395.365038 448.6757 
" clip-path="url(#pfa6eae7f34)" style="fill: none; stroke: #008000; stroke-opacity: 0.15"/>
    <path d="M 426.426728 457.376875 
L 426.426728 448.6757 
" clip-path="url(#pfa6eae7f34)" style="fill: none; stroke: #008000; stroke-opacity: 0.15"/>
    <path d="M 465.598013 457.376875 
L 465.598013 448.6757 
" clip-path="url(#pfa6eae7f34)" style="fill: none; stroke: #008000; stroke-opacity: 0.15"/>
    <path d="M 452.562429 457.376875 
L 452.562429 448.6757 
" clip-path="url(#pfa6eae7f34)" style="fill: none; stroke: #008000; stroke-opacity: 0.15"/>
    <path d="M 469.173539 457.376875 
L 469.173539 448.6757 
" clip-path="url(#pfa6eae7f34)" style="fill: none; stroke: #008000; stroke-opacity: 0.15"/>
    <path d="M 395.472592 457.376875 
L 395.472592 448.6757 
" clip-path="url(#pfa6eae7f34)" style="fill: none; stroke: #008000; stroke-opacity: 0.15"/>
    <path d="M 420.145555 457.376875 
L 420.145555 448.6757 
" clip-path="url(#pfa6eae7f34)" style="fill: none; stroke: #008000; stroke-opacity: 0.15"/>
    <path d="M 462.667814 457.376875 
L 462.667814 448.6757 
" clip-path="url(#pfa6eae7f34)" style="fill: none; stroke: #008000; stroke-opacity: 0.15"/>
    <path d="M 461.489438 457.376875 
L 461.489438 448.6757 
" clip-path="url(#pfa6eae7f34)" style="fill: none; stroke: #008000; stroke-opacity: 0.15"/>
    <path d="M 444.020309 457.376875 
L 444.020309 448.6757 
" clip-path="url(#pfa6eae7f34)" style="fill: none; stroke: #008000; stroke-opacity: 0.15"/>
    <path d="M 389.948634 457.376875 
L 389.948634 448.6757 
" clip-path="url(#pfa6eae7f34)" style="fill: none; stroke: #008000; stroke-opacity: 0.15"/>
    <path d="M 387.096355 457.376875 
L 387.096355 448.6757 
" clip-path="url(#pfa6eae7f34)" style="fill: none; stroke: #008000; stroke-opacity: 0.15"/>
    <path d="M 390.351546 457.376875 
L 390.351546 448.6757 
" clip-path="url(#pfa6eae7f34)" style="fill: none; stroke: #008000; stroke-opacity: 0.15"/>
    <path d="M 414.347065 457.376875 
L 414.347065 448.6757 
" clip-path="url(#pfa6eae7f34)" style="fill: none; stroke: #008000; stroke-opacity: 0.15"/>
    <path d="M 446.474173 457.376875 
L 446.474173 448.6757 
" clip-path="url(#pfa6eae7f34)" style="fill: none; stroke: #008000; stroke-opacity: 0.15"/>
    <path d="M 459.424395 457.376875 
L 459.424395 448.6757 
" clip-path="url(#pfa6eae7f34)" style="fill: none; stroke: #008000; stroke-opacity: 0.15"/>
    <path d="M 449.378821 457.376875 
L 449.378821 448.6757 
" clip-path="url(#pfa6eae7f34)" style="fill: none; stroke: #008000; stroke-opacity: 0.15"/>
    <path d="M 445.592908 457.376875 
L 445.592908 448.6757 
" clip-path="url(#pfa6eae7f34)" style="fill: none; stroke: #008000; stroke-opacity: 0.15"/>
    <path d="M 488.375921 457.376875 
L 488.375921 448.6757 
" clip-path="url(#pfa6eae7f34)" style="fill: none; stroke: #008000; stroke-opacity: 0.15"/>
    <path d="M 435.123413 457.376875 
L 435.123413 448.6757 
" clip-path="url(#pfa6eae7f34)" style="fill: none; stroke: #008000; stroke-opacity: 0.15"/>
    <path d="M 420.614261 457.376875 
L 420.614261 448.6757 
" clip-path="url(#pfa6eae7f34)" style="fill: none; stroke: #008000; stroke-opacity: 0.15"/>
    <path d="M 448.321957 457.376875 
L 448.321957 448.6757 
" clip-path="url(#pfa6eae7f34)" style="fill: none; stroke: #008000; stroke-opacity: 0.15"/>
    <path d="M 410.795849 457.376875 
L 410.795849 448.6757 
" clip-path="url(#pfa6eae7f34)" style="fill: none; stroke: #008000; stroke-opacity: 0.15"/>
    <path d="M 443.622828 457.376875 
L 443.622828 448.6757 
" clip-path="url(#pfa6eae7f34)" style="fill: none; stroke: #008000; stroke-opacity: 0.15"/>
    <path d="M 467.383415 457.376875 
L 467.383415 448.6757 
" clip-path="url(#pfa6eae7f34)" style="fill: none; stroke: #008000; stroke-opacity: 0.15"/>
    <path d="M 431.245161 457.376875 
L 431.245161 448.6757 
" clip-path="url(#pfa6eae7f34)" style="fill: none; stroke: #008000; stroke-opacity: 0.15"/>
    <path d="M 457.208776 457.376875 
L 457.208776 448.6757 
" clip-path="url(#pfa6eae7f34)" style="fill: none; stroke: #008000; stroke-opacity: 0.15"/>
    <path d="M 433.546824 457.376875 
L 433.546824 448.6757 
" clip-path="url(#pfa6eae7f34)" style="fill: none; stroke: #008000; stroke-opacity: 0.15"/>
    <path d="M 443.248224 457.376875 
L 443.248224 448.6757 
" clip-path="url(#pfa6eae7f34)" style="fill: none; stroke: #008000; stroke-opacity: 0.15"/>
    <path d="M 446.776006 457.376875 
L 446.776006 448.6757 
" clip-path="url(#pfa6eae7f34)" style="fill: none; stroke: #008000; stroke-opacity: 0.15"/>
    <path d="M 451.020467 457.376875 
L 451.020467 448.6757 
" clip-path="url(#pfa6eae7f34)" style="fill: none; stroke: #008000; stroke-opacity: 0.15"/>
    <path d="M 468.329893 457.376875 
L 468.329893 448.6757 
" clip-path="url(#pfa6eae7f34)" style="fill: none; stroke: #008000; stroke-opacity: 0.15"/>
    <path d="M 433.568335 457.376875 
L 433.568335 448.6757 
" clip-path="url(#pfa6eae7f34)" style="fill: none; stroke: #008000; stroke-opacity: 0.15"/>
    <path d="M 426.886326 457.376875 
L 426.886326 448.6757 
" clip-path="url(#pfa6eae7f34)" style="fill: none; stroke: #008000; stroke-opacity: 0.15"/>
    <path d="M 351.934601 457.376875 
L 351.934601 448.6757 
" clip-path="url(#pfa6eae7f34)" style="fill: none; stroke: #008000; stroke-opacity: 0.15"/>
    <path d="M 423.221609 457.376875 
L 423.221609 448.6757 
" clip-path="url(#pfa6eae7f34)" style="fill: none; stroke: #008000; stroke-opacity: 0.15"/>
    <path d="M 433.515275 457.376875 
L 433.515275 448.6757 
" clip-path="url(#pfa6eae7f34)" style="fill: none; stroke: #008000; stroke-opacity: 0.15"/>
    <path d="M 434.751395 457.376875 
L 434.751395 448.6757 
" clip-path="url(#pfa6eae7f34)" style="fill: none; stroke: #008000; stroke-opacity: 0.15"/>
    <path d="M 434.587678 457.376875 
L 434.587678 448.6757 
" clip-path="url(#pfa6eae7f34)" style="fill: none; stroke: #008000; stroke-opacity: 0.15"/>
    <path d="M 419.165223 457.376875 
L 419.165223 448.6757 
" clip-path="url(#pfa6eae7f34)" style="fill: none; stroke: #008000; stroke-opacity: 0.15"/>
    <path d="M 419.220588 457.376875 
L 419.220588 448.6757 
" clip-path="url(#pfa6eae7f34)" style="fill: none; stroke: #008000; stroke-opacity: 0.15"/>
    <path d="M 466.135785 457.376875 
L 466.135785 448.6757 
" clip-path="url(#pfa6eae7f34)" style="fill: none; stroke: #008000; stroke-opacity: 0.15"/>
    <path d="M 385.963216 457.376875 
L 385.963216 448.6757 
" clip-path="url(#pfa6eae7f34)" style="fill: none; stroke: #008000; stroke-opacity: 0.15"/>
    <path d="M 458.56396 457.376875 
L 458.56396 448.6757 
" clip-path="url(#pfa6eae7f34)" style="fill: none; stroke: #008000; stroke-opacity: 0.15"/>
    <path d="M 448.432343 457.376875 
L 448.432343 448.6757 
" clip-path="url(#pfa6eae7f34)" style="fill: none; stroke: #008000; stroke-opacity: 0.15"/>
    <path d="M 441.979083 457.376875 
L 441.979083 448.6757 
" clip-path="url(#pfa6eae7f34)" style="fill: none; stroke: #008000; stroke-opacity: 0.15"/>
    <path d="M 390.353007 457.376875 
L 390.353007 448.6757 
" clip-path="url(#pfa6eae7f34)" style="fill: none; stroke: #008000; stroke-opacity: 0.15"/>
    <path d="M 461.941166 457.376875 
L 461.941166 448.6757 
" clip-path="url(#pfa6eae7f34)" style="fill: none; stroke: #008000; stroke-opacity: 0.15"/>
    <path d="M 435.246182 457.376875 
L 435.246182 448.6757 
" clip-path="url(#pfa6eae7f34)" style="fill: none; stroke: #008000; stroke-opacity: 0.15"/>
    <path d="M 440.107638 457.376875 
L 440.107638 448.6757 
" clip-path="url(#pfa6eae7f34)" style="fill: none; stroke: #008000; stroke-opacity: 0.15"/>
    <path d="M 454.063467 457.376875 
L 454.063467 448.6757 
" clip-path="url(#pfa6eae7f34)" style="fill: none; stroke: #008000; stroke-opacity: 0.15"/>
    <path d="M 454.756537 457.376875 
L 454.756537 448.6757 
" clip-path="url(#pfa6eae7f34)" style="fill: none; stroke: #008000; stroke-opacity: 0.15"/>
    <path d="M 441.118648 457.376875 
L 441.118648 448.6757 
" clip-path="url(#pfa6eae7f34)" style="fill: none; stroke: #008000; stroke-opacity: 0.15"/>
    <path d="M 455.875102 457.376875 
L 455.875102 448.6757 
" clip-path="url(#pfa6eae7f34)" style="fill: none; stroke: #008000; stroke-opacity: 0.15"/>
    <path d="M 401.323524 457.376875 
L 401.323524 448.6757 
" clip-path="url(#pfa6eae7f34)" style="fill: none; stroke: #008000; stroke-opacity: 0.15"/>
    <path d="M 423.691175 457.376875 
L 423.691175 448.6757 
" clip-path="url(#pfa6eae7f34)" style="fill: none; stroke: #008000; stroke-opacity: 0.15"/>
    <path d="M 458.523037 457.376875 
L 458.523037 448.6757 
" clip-path="url(#pfa6eae7f34)" style="fill: none; stroke: #008000; stroke-opacity: 0.15"/>
    <path d="M 416.630999 457.376875 
L 416.630999 448.6757 
" clip-path="url(#pfa6eae7f34)" style="fill: none; stroke: #008000; stroke-opacity: 0.15"/>
    <path d="M 422.556366 457.376875 
L 422.556366 448.6757 
" clip-path="url(#pfa6eae7f34)" style="fill: none; stroke: #008000; stroke-opacity: 0.15"/>
    <path d="M 449.488159 457.376875 
L 449.488159 448.6757 
" clip-path="url(#pfa6eae7f34)" style="fill: none; stroke: #008000; stroke-opacity: 0.15"/>
    <path d="M 446.948093 457.376875 
L 446.948093 448.6757 
" clip-path="url(#pfa6eae7f34)" style="fill: none; stroke: #008000; stroke-opacity: 0.15"/>
    <path d="M 411.498187 457.376875 
L 411.498187 448.6757 
" clip-path="url(#pfa6eae7f34)" style="fill: none; stroke: #008000; stroke-opacity: 0.15"/>
    <path d="M 453.250776 457.376875 
L 453.250776 448.6757 
" clip-path="url(#pfa6eae7f34)" style="fill: none; stroke: #008000; stroke-opacity: 0.15"/>
    <path d="M 371.875173 457.376875 
L 371.875173 448.6757 
" clip-path="url(#pfa6eae7f34)" style="fill: none; stroke: #008000; stroke-opacity: 0.15"/>
    <path d="M 368.863652 457.376875 
L 368.863652 448.6757 
" clip-path="url(#pfa6eae7f34)" style="fill: none; stroke: #008000; stroke-opacity: 0.15"/>
    <path d="M 396.634179 457.376875 
L 396.634179 448.6757 
" clip-path="url(#pfa6eae7f34)" style="fill: none; stroke: #008000; stroke-opacity: 0.15"/>
    <path d="M 393.88551 457.376875 
L 393.88551 448.6757 
" clip-path="url(#pfa6eae7f34)" style="fill: none; stroke: #008000; stroke-opacity: 0.15"/>
    <path d="M 441.156948 457.376875 
L 441.156948 448.6757 
" clip-path="url(#pfa6eae7f34)" style="fill: none; stroke: #008000; stroke-opacity: 0.15"/>
    <path d="M 426.302057 457.376875 
L 426.302057 448.6757 
" clip-path="url(#pfa6eae7f34)" style="fill: none; stroke: #008000; stroke-opacity: 0.15"/>
    <path d="M 449.758822 457.376875 
L 449.758822 448.6757 
" clip-path="url(#pfa6eae7f34)" style="fill: none; stroke: #008000; stroke-opacity: 0.15"/>
    <path d="M 439.935551 457.376875 
L 439.935551 448.6757 
" clip-path="url(#pfa6eae7f34)" style="fill: none; stroke: #008000; stroke-opacity: 0.15"/>
    <path d="M 417.28461 457.376875 
L 417.28461 448.6757 
" clip-path="url(#pfa6eae7f34)" style="fill: none; stroke: #008000; stroke-opacity: 0.15"/>
    <path d="M 393.88551 457.376875 
L 393.88551 448.6757 
" clip-path="url(#pfa6eae7f34)" style="fill: none; stroke: #008000; stroke-opacity: 0.15"/>
    <path d="M 392.998843 457.376875 
L 392.998843 448.6757 
" clip-path="url(#pfa6eae7f34)" style="fill: none; stroke: #008000; stroke-opacity: 0.15"/>
    <path d="M 449.464864 457.376875 
L 449.464864 448.6757 
" clip-path="url(#pfa6eae7f34)" style="fill: none; stroke: #008000; stroke-opacity: 0.15"/>
    <path d="M 447.141691 457.376875 
L 447.141691 448.6757 
" clip-path="url(#pfa6eae7f34)" style="fill: none; stroke: #008000; stroke-opacity: 0.15"/>
    <path d="M 444.3883 457.376875 
L 444.3883 448.6757 
" clip-path="url(#pfa6eae7f34)" style="fill: none; stroke: #008000; stroke-opacity: 0.15"/>
    <path d="M 439.505334 457.376875 
L 439.505334 448.6757 
" clip-path="url(#pfa6eae7f34)" style="fill: none; stroke: #008000; stroke-opacity: 0.15"/>
    <path d="M 433.568335 457.376875 
L 433.568335 448.6757 
" clip-path="url(#pfa6eae7f34)" style="fill: none; stroke: #008000; stroke-opacity: 0.15"/>
    <path d="M 378.649522 457.376875 
L 378.649522 448.6757 
" clip-path="url(#pfa6eae7f34)" style="fill: none; stroke: #008000; stroke-opacity: 0.15"/>
    <path d="M 422.636618 457.376875 
L 422.636618 448.6757 
" clip-path="url(#pfa6eae7f34)" style="fill: none; stroke: #008000; stroke-opacity: 0.15"/>
    <path d="M 477.923739 457.376875 
L 477.923739 448.6757 
" clip-path="url(#pfa6eae7f34)" style="fill: none; stroke: #008000; stroke-opacity: 0.15"/>
    <path d="M 455.060312 457.376875 
L 455.060312 448.6757 
" clip-path="url(#pfa6eae7f34)" style="fill: none; stroke: #008000; stroke-opacity: 0.15"/>
    <path d="M 385.771192 457.376875 
L 385.771192 448.6757 
" clip-path="url(#pfa6eae7f34)" style="fill: none; stroke: #008000; stroke-opacity: 0.15"/>
    <path d="M 389.530872 457.376875 
L 389.530872 448.6757 
" clip-path="url(#pfa6eae7f34)" style="fill: none; stroke: #008000; stroke-opacity: 0.15"/>
    <path d="M 435.805465 457.376875 
L 435.805465 448.6757 
" clip-path="url(#pfa6eae7f34)" style="fill: none; stroke: #008000; stroke-opacity: 0.15"/>
    <path d="M 421.064942 457.376875 
L 421.064942 448.6757 
" clip-path="url(#pfa6eae7f34)" style="fill: none; stroke: #008000; stroke-opacity: 0.15"/>
    <path d="M 454.025168 457.376875 
L 454.025168 448.6757 
" clip-path="url(#pfa6eae7f34)" style="fill: none; stroke: #008000; stroke-opacity: 0.15"/>
    <path d="M 447.335289 457.376875 
L 447.335289 448.6757 
" clip-path="url(#pfa6eae7f34)" style="fill: none; stroke: #008000; stroke-opacity: 0.15"/>
    <path d="M 390.503583 457.376875 
L 390.503583 448.6757 
" clip-path="url(#pfa6eae7f34)" style="fill: none; stroke: #008000; stroke-opacity: 0.15"/>
    <path d="M 398.58213 457.376875 
L 398.58213 448.6757 
" clip-path="url(#pfa6eae7f34)" style="fill: none; stroke: #008000; stroke-opacity: 0.15"/>
    <path d="M 398.58213 457.376875 
L 398.58213 448.6757 
" clip-path="url(#pfa6eae7f34)" style="fill: none; stroke: #008000; stroke-opacity: 0.15"/>
    <path d="M 430.019042 457.376875 
L 430.019042 448.6757 
" clip-path="url(#pfa6eae7f34)" style="fill: none; stroke: #008000; stroke-opacity: 0.15"/>
    <path d="M 439.005862 457.376875 
L 439.005862 448.6757 
" clip-path="url(#pfa6eae7f34)" style="fill: none; stroke: #008000; stroke-opacity: 0.15"/>
    <path d="M 465.232328 457.376875 
L 465.232328 448.6757 
" clip-path="url(#pfa6eae7f34)" style="fill: none; stroke: #008000; stroke-opacity: 0.15"/>
    <path d="M 441.011094 457.376875 
L 441.011094 448.6757 
" clip-path="url(#pfa6eae7f34)" style="fill: none; stroke: #008000; stroke-opacity: 0.15"/>
    <path d="M 399.215483 457.376875 
L 399.215483 448.6757 
" clip-path="url(#pfa6eae7f34)" style="fill: none; stroke: #008000; stroke-opacity: 0.15"/>
    <path d="M 461.704546 457.376875 
L 461.704546 448.6757 
" clip-path="url(#pfa6eae7f34)" style="fill: none; stroke: #008000; stroke-opacity: 0.15"/>
    <path d="M 445.974055 457.376875 
L 445.974055 448.6757 
" clip-path="url(#pfa6eae7f34)" style="fill: none; stroke: #008000; stroke-opacity: 0.15"/>
    <path d="M 445.974055 457.376875 
L 445.974055 448.6757 
" clip-path="url(#pfa6eae7f34)" style="fill: none; stroke: #008000; stroke-opacity: 0.15"/>
    <path d="M 445.978265 457.376875 
L 445.978265 448.6757 
" clip-path="url(#pfa6eae7f34)" style="fill: none; stroke: #008000; stroke-opacity: 0.15"/>
    <path d="M 452.734516 457.376875 
L 452.734516 448.6757 
" clip-path="url(#pfa6eae7f34)" style="fill: none; stroke: #008000; stroke-opacity: 0.15"/>
    <path d="M 413.907404 457.376875 
L 413.907404 448.6757 
" clip-path="url(#pfa6eae7f34)" style="fill: none; stroke: #008000; stroke-opacity: 0.15"/>
    <path d="M 460.516727 457.376875 
L 460.516727 448.6757 
" clip-path="url(#pfa6eae7f34)" style="fill: none; stroke: #008000; stroke-opacity: 0.15"/>
    <path d="M 447.610208 457.376875 
L 447.610208 448.6757 
" clip-path="url(#pfa6eae7f34)" style="fill: none; stroke: #008000; stroke-opacity: 0.15"/>
    <path d="M 486.248444 457.376875 
L 486.248444 448.6757 
" clip-path="url(#pfa6eae7f34)" style="fill: none; stroke: #008000; stroke-opacity: 0.15"/>
    <path d="M 459.790079 457.376875 
L 459.790079 448.6757 
" clip-path="url(#pfa6eae7f34)" style="fill: none; stroke: #008000; stroke-opacity: 0.15"/>
    <path d="M 456.584961 457.376875 
L 456.584961 448.6757 
" clip-path="url(#pfa6eae7f34)" style="fill: none; stroke: #008000; stroke-opacity: 0.15"/>
    <path d="M 448.518386 457.376875 
L 448.518386 448.6757 
" clip-path="url(#pfa6eae7f34)" style="fill: none; stroke: #008000; stroke-opacity: 0.15"/>
    <path d="M 486.764704 457.376875 
L 486.764704 448.6757 
" clip-path="url(#pfa6eae7f34)" style="fill: none; stroke: #008000; stroke-opacity: 0.15"/>
    <path d="M 449.249756 457.376875 
L 449.249756 448.6757 
" clip-path="url(#pfa6eae7f34)" style="fill: none; stroke: #008000; stroke-opacity: 0.15"/>
    <path d="M 414.079491 457.376875 
L 414.079491 448.6757 
" clip-path="url(#pfa6eae7f34)" style="fill: none; stroke: #008000; stroke-opacity: 0.15"/>
    <path d="M 398.935842 457.376875 
L 398.935842 448.6757 
" clip-path="url(#pfa6eae7f34)" style="fill: none; stroke: #008000; stroke-opacity: 0.15"/>
    <path d="M 428.749901 457.376875 
L 428.749901 448.6757 
" clip-path="url(#pfa6eae7f34)" style="fill: none; stroke: #008000; stroke-opacity: 0.15"/>
    <path d="M 452.734516 457.376875 
L 452.734516 448.6757 
" clip-path="url(#pfa6eae7f34)" style="fill: none; stroke: #008000; stroke-opacity: 0.15"/>
    <path d="M 393.278484 457.376875 
L 393.278484 448.6757 
" clip-path="url(#pfa6eae7f34)" style="fill: none; stroke: #008000; stroke-opacity: 0.15"/>
    <path d="M 451.701994 457.376875 
L 451.701994 448.6757 
" clip-path="url(#pfa6eae7f34)" style="fill: none; stroke: #008000; stroke-opacity: 0.15"/>
    <path d="M 464.995709 457.376875 
L 464.995709 448.6757 
" clip-path="url(#pfa6eae7f34)" style="fill: none; stroke: #008000; stroke-opacity: 0.15"/>
    <path d="M 402.92532 457.376875 
L 402.92532 448.6757 
" clip-path="url(#pfa6eae7f34)" style="fill: none; stroke: #008000; stroke-opacity: 0.15"/>
    <path d="M 428.814434 457.376875 
L 428.814434 448.6757 
" clip-path="url(#pfa6eae7f34)" style="fill: none; stroke: #008000; stroke-opacity: 0.15"/>
    <path d="M 432.447671 457.376875 
L 432.447671 448.6757 
" clip-path="url(#pfa6eae7f34)" style="fill: none; stroke: #008000; stroke-opacity: 0.15"/>
    <path d="M 394.724959 457.376875 
L 394.724959 448.6757 
" clip-path="url(#pfa6eae7f34)" style="fill: none; stroke: #008000; stroke-opacity: 0.15"/>
    <path d="M 431.789295 457.376875 
L 431.789295 448.6757 
" clip-path="url(#pfa6eae7f34)" style="fill: none; stroke: #008000; stroke-opacity: 0.15"/>
    <path d="M 396.333027 457.376875 
L 396.333027 448.6757 
" clip-path="url(#pfa6eae7f34)" style="fill: none; stroke: #008000; stroke-opacity: 0.15"/>
    <path d="M 444.560387 457.376875 
L 444.560387 448.6757 
" clip-path="url(#pfa6eae7f34)" style="fill: none; stroke: #008000; stroke-opacity: 0.15"/>
    <path d="M 459.445906 457.376875 
L 459.445906 448.6757 
" clip-path="url(#pfa6eae7f34)" style="fill: none; stroke: #008000; stroke-opacity: 0.15"/>
    <path d="M 409.906383 457.376875 
L 409.906383 448.6757 
" clip-path="url(#pfa6eae7f34)" style="fill: none; stroke: #008000; stroke-opacity: 0.15"/>
    <path d="M 435.375247 457.376875 
L 435.375247 448.6757 
" clip-path="url(#pfa6eae7f34)" style="fill: none; stroke: #008000; stroke-opacity: 0.15"/>
    <path d="M 461.618503 457.376875 
L 461.618503 448.6757 
" clip-path="url(#pfa6eae7f34)" style="fill: none; stroke: #008000; stroke-opacity: 0.15"/>
    <path d="M 419.005479 457.376875 
L 419.005479 448.6757 
" clip-path="url(#pfa6eae7f34)" style="fill: none; stroke: #008000; stroke-opacity: 0.15"/>
    <path d="M 420.371784 457.376875 
L 420.371784 448.6757 
" clip-path="url(#pfa6eae7f34)" style="fill: none; stroke: #008000; stroke-opacity: 0.15"/>
    <path d="M 392.547115 457.376875 
L 392.547115 448.6757 
" clip-path="url(#pfa6eae7f34)" style="fill: none; stroke: #008000; stroke-opacity: 0.15"/>
    <path d="M 429.97602 457.376875 
L 429.97602 448.6757 
" clip-path="url(#pfa6eae7f34)" style="fill: none; stroke: #008000; stroke-opacity: 0.15"/>
    <path d="M 419.607783 457.376875 
L 419.607783 448.6757 
" clip-path="url(#pfa6eae7f34)" style="fill: none; stroke: #008000; stroke-opacity: 0.15"/>
   </g>
   <g id="LineCollection_2">
    <path d="M 500.036908 457.376875 
L 500.036908 444.325112 
" clip-path="url(#pfa6eae7f34)" style="fill: none; stroke: #ff0000; stroke-opacity: 0.25"/>
    <path d="M 346.363287 457.376875 
L 346.363287 444.325112 
" clip-path="url(#pfa6eae7f34)" style="fill: none; stroke: #ff0000; stroke-opacity: 0.25"/>
    <path d="M 489.488715 457.376875 
L 489.488715 444.325112 
" clip-path="url(#pfa6eae7f34)" style="fill: none; stroke: #ff0000; stroke-opacity: 0.25"/>
    <path d="M 326.637824 457.376875 
L 326.637824 444.325112 
" clip-path="url(#pfa6eae7f34)" style="fill: none; stroke: #ff0000; stroke-opacity: 0.25"/>
    <path d="M 342.21169 457.376875 
L 342.21169 444.325112 
" clip-path="url(#pfa6eae7f34)" style="fill: none; stroke: #ff0000; stroke-opacity: 0.25"/>
    <path d="M 572.829676 457.376875 
L 572.829676 444.325112 
" clip-path="url(#pfa6eae7f34)" style="fill: none; stroke: #ff0000; stroke-opacity: 0.25"/>
   </g>
   <g id="patch_3">
    <path d="M 50.14375 457.376875 
L 50.14375 22.318125 
" style="fill: none; stroke: #000000; stroke-width: 0.8; stroke-linejoin: miter; stroke-linecap: square"/>
   </g>
   <g id="patch_4">
    <path d="M 849.32375 457.376875 
L 849.32375 22.318125 
" style="fill: none; stroke: #000000; stroke-width: 0.8; stroke-linejoin: miter; stroke-linecap: square"/>
   </g>
   <g id="patch_5">
    <path d="M 50.14375 457.376875 
L 849.32375 457.376875 
" style="fill: none; stroke: #000000; stroke-width: 0.8; stroke-linejoin: miter; stroke-linecap: square"/>
   </g>
   <g id="patch_6">
    <path d="M 50.14375 22.318125 
L 849.32375 22.318125 
" style="fill: none; stroke: #000000; stroke-width: 0.8; stroke-linejoin: miter; stroke-linecap: square"/>
   </g>
   <g id="text_18">
    <!-- wbd_delta: tail_cluster target distribution -->
    <g transform="translate(326.067188 16.318125) scale(0.12 -0.12)">
     <defs>
      <path id="DejaVuSans-77" d="M 269 3500 
L 844 3500 
L 1563 769 
L 2278 3500 
L 2956 3500 
L 3675 769 
L 4391 3500 
L 4966 3500 
L 4050 0 
L 3372 0 
L 2619 2869 
L 1863 0 
L 1184 0 
L 269 3500 
z
" transform="scale(0.015625)"/>
      <path id="DejaVuSans-3a" d="M 750 794 
L 1409 794 
L 1409 0 
L 750 0 
L 750 794 
z
M 750 3309 
L 1409 3309 
L 1409 2516 
L 750 2516 
L 750 3309 
z
" transform="scale(0.015625)"/>
      <path id="DejaVuSans-20" transform="scale(0.015625)"/>
      <path id="DejaVuSans-63" d="M 3122 3366 
L 3122 2828 
Q 2878 2963 2633 3030 
Q 2388 3097 2138 3097 
Q 1578 3097 1268 2742 
Q 959 2388 959 1747 
Q 959 1106 1268 751 
Q 1578 397 2138 397 
Q 2388 397 2633 464 
Q 2878 531 3122 666 
L 3122 134 
Q 2881 22 2623 -34 
Q 2366 -91 2075 -91 
Q 1284 -91 818 406 
Q 353 903 353 1747 
Q 353 2603 823 3093 
Q 1294 3584 2113 3584 
Q 2378 3584 2631 3529 
Q 2884 3475 3122 3366 
z
" transform="scale(0.015625)"/>
      <path id="DejaVuSans-75" d="M 544 1381 
L 544 3500 
L 1119 3500 
L 1119 1403 
Q 1119 906 1312 657 
Q 1506 409 1894 409 
Q 2359 409 2629 706 
Q 2900 1003 2900 1516 
L 2900 3500 
L 3475 3500 
L 3475 0 
L 2900 0 
L 2900 538 
Q 2691 219 2414 64 
Q 2138 -91 1772 -91 
Q 1169 -91 856 284 
Q 544 659 544 1381 
z
M 1991 3584 
L 1991 3584 
z
" transform="scale(0.015625)"/>
      <path id="DejaVuSans-6f" d="M 1959 3097 
Q 1497 3097 1228 2736 
Q 959 2375 959 1747 
Q 959 1119 1226 758 
Q 1494 397 1959 397 
Q 2419 397 2687 759 
Q 2956 1122 2956 1747 
Q 2956 2369 2687 2733 
Q 2419 3097 1959 3097 
z
M 1959 3584 
Q 2709 3584 3137 3096 
Q 3566 2609 3566 1747 
Q 3566 888 3137 398 
Q 2709 -91 1959 -91 
Q 1206 -91 779 398 
Q 353 888 353 1747 
Q 353 2609 779 3096 
Q 1206 3584 1959 3584 
z
" transform="scale(0.015625)"/>
     </defs>
     <use xlink:href="#DejaVuSans-77"/>
     <use xlink:href="#DejaVuSans-62" x="81.787109"/>
     <use xlink:href="#DejaVuSans-64" x="145.263672"/>
     <use xlink:href="#DejaVuSans-5f" x="208.740234"/>
     <use xlink:href="#DejaVuSans-64" x="258.740234"/>
     <use xlink:href="#DejaVuSans-65" x="322.216797"/>
     <use xlink:href="#DejaVuSans-6c" x="383.740234"/>
     <use xlink:href="#DejaVuSans-74" x="411.523438"/>
     <use xlink:href="#DejaVuSans-61" x="450.732422"/>
     <use xlink:href="#DejaVuSans-3a" x="512.011719"/>
     <use xlink:href="#DejaVuSans-20" x="545.703125"/>
     <use xlink:href="#DejaVuSans-74" x="577.490234"/>
     <use xlink:href="#DejaVuSans-61" x="616.699219"/>
     <use xlink:href="#DejaVuSans-69" x="677.978516"/>
     <use xlink:href="#DejaVuSans-6c" x="705.761719"/>
     <use xlink:href="#DejaVuSans-5f" x="733.544922"/>
     <use xlink:href="#DejaVuSans-63" x="783.544922"/>
     <use xlink:href="#DejaVuSans-6c" x="838.525391"/>
     <use xlink:href="#DejaVuSans-75" x="866.308594"/>
     <use xlink:href="#DejaVuSans-73" x="929.6875"/>
     <use xlink:href="#DejaVuSans-74" x="981.787109"/>
     <use xlink:href="#DejaVuSans-65" x="1020.996094"/>
     <use xlink:href="#DejaVuSans-72" x="1082.519531"/>
     <use xlink:href="#DejaVuSans-20" x="1123.632812"/>
     <use xlink:href="#DejaVuSans-74" x="1155.419922"/>
     <use xlink:href="#DejaVuSans-61" x="1194.628906"/>
     <use xlink:href="#DejaVuSans-72" x="1255.908203"/>
     <use xlink:href="#DejaVuSans-67" x="1295.271484"/>
     <use xlink:href="#DejaVuSans-65" x="1358.748047"/>
     <use xlink:href="#DejaVuSans-74" x="1420.271484"/>
     <use xlink:href="#DejaVuSans-20" x="1459.480469"/>
     <use xlink:href="#DejaVuSans-64" x="1491.267578"/>
     <use xlink:href="#DejaVuSans-69" x="1554.744141"/>
     <use xlink:href="#DejaVuSans-73" x="1582.527344"/>
     <use xlink:href="#DejaVuSans-74" x="1634.626953"/>
     <use xlink:href="#DejaVuSans-72" x="1673.835938"/>
     <use xlink:href="#DejaVuSans-69" x="1714.949219"/>
     <use xlink:href="#DejaVuSans-62" x="1742.732422"/>
     <use xlink:href="#DejaVuSans-75" x="1806.208984"/>
     <use xlink:href="#DejaVuSans-74" x="1869.587891"/>
     <use xlink:href="#DejaVuSans-69" x="1908.796875"/>
     <use xlink:href="#DejaVuSans-6f" x="1936.580078"/>
     <use xlink:href="#DejaVuSans-6e" x="1997.761719"/>
    </g>
   </g>
   <g id="legend_1">
    <g id="patch_7">
     <path d="M 732.784688 74.3525 
L 842.32375 74.3525 
Q 844.32375 74.3525 844.32375 72.3525 
L 844.32375 29.318125 
Q 844.32375 27.318125 842.32375 27.318125 
L 732.784688 27.318125 
Q 730.784688 27.318125 730.784688 29.318125 
L 730.784688 72.3525 
Q 730.784688 74.3525 732.784688 74.3525 
z
" style="fill: #ffffff; opacity: 0.8; stroke: #cccccc; stroke-linejoin: miter"/>
    </g>
    <g id="patch_8">
     <path d="M 734.784688 38.916562 
L 754.784688 38.916562 
L 754.784688 31.916562 
L 734.784688 31.916562 
z
" style="fill: #0000ff; fill-opacity: 0.25; stroke: #0000ff; stroke-linejoin: miter"/>
    </g>
    <g id="text_19">
     <!-- Original -->
     <g transform="translate(762.784688 38.916562) scale(0.1 -0.1)">
      <defs>
       <path id="DejaVuSans-4f" d="M 2522 4238 
Q 1834 4238 1429 3725 
Q 1025 3213 1025 2328 
Q 1025 1447 1429 934 
Q 1834 422 2522 422 
Q 3209 422 3611 934 
Q 4013 1447 4013 2328 
Q 4013 3213 3611 3725 
Q 3209 4238 2522 4238 
z
M 2522 4750 
Q 3503 4750 4090 4092 
Q 4678 3434 4678 2328 
Q 4678 1225 4090 567 
Q 3503 -91 2522 -91 
Q 1538 -91 948 565 
Q 359 1222 359 2328 
Q 359 3434 948 4092 
Q 1538 4750 2522 4750 
z
" transform="scale(0.015625)"/>
      </defs>
      <use xlink:href="#DejaVuSans-4f"/>
      <use xlink:href="#DejaVuSans-72" x="78.710938"/>
      <use xlink:href="#DejaVuSans-69" x="119.824219"/>
      <use xlink:href="#DejaVuSans-67" x="147.607422"/>
      <use xlink:href="#DejaVuSans-69" x="211.083984"/>
      <use xlink:href="#DejaVuSans-6e" x="238.867188"/>
      <use xlink:href="#DejaVuSans-61" x="302.246094"/>
      <use xlink:href="#DejaVuSans-6c" x="363.525391"/>
     </g>
    </g>
    <g id="patch_9">
     <path d="M 734.784688 53.594687 
L 754.784688 53.594687 
L 754.784688 46.594687 
L 734.784688 46.594687 
z
" style="fill: #008000; fill-opacity: 0.25; stroke: #008000; stroke-linejoin: miter"/>
    </g>
    <g id="text_20">
     <!-- Non-Interesting -->
     <g transform="translate(762.784688 53.594687) scale(0.1 -0.1)">
      <defs>
       <path id="DejaVuSans-4e" d="M 628 4666 
L 1478 4666 
L 3547 763 
L 3547 4666 
L 4159 4666 
L 4159 0 
L 3309 0 
L 1241 3903 
L 1241 0 
L 628 0 
L 628 4666 
z
" transform="scale(0.015625)"/>
       <path id="DejaVuSans-2d" d="M 313 2009 
L 1997 2009 
L 1997 1497 
L 313 1497 
L 313 2009 
z
" transform="scale(0.015625)"/>
       <path id="DejaVuSans-49" d="M 628 4666 
L 1259 4666 
L 1259 0 
L 628 0 
L 628 4666 
z
" transform="scale(0.015625)"/>
      </defs>
      <use xlink:href="#DejaVuSans-4e"/>
      <use xlink:href="#DejaVuSans-6f" x="74.804688"/>
      <use xlink:href="#DejaVuSans-6e" x="135.986328"/>
      <use xlink:href="#DejaVuSans-2d" x="199.365234"/>
      <use xlink:href="#DejaVuSans-49" x="235.449219"/>
      <use xlink:href="#DejaVuSans-6e" x="264.941406"/>
      <use xlink:href="#DejaVuSans-74" x="328.320312"/>
      <use xlink:href="#DejaVuSans-65" x="367.529297"/>
      <use xlink:href="#DejaVuSans-72" x="429.052734"/>
      <use xlink:href="#DejaVuSans-65" x="467.916016"/>
      <use xlink:href="#DejaVuSans-73" x="529.439453"/>
      <use xlink:href="#DejaVuSans-74" x="581.539062"/>
      <use xlink:href="#DejaVuSans-69" x="620.748047"/>
      <use xlink:href="#DejaVuSans-6e" x="648.53125"/>
      <use xlink:href="#DejaVuSans-67" x="711.910156"/>
     </g>
    </g>
    <g id="patch_10">
     <path d="M 734.784688 68.272812 
L 754.784688 68.272812 
L 754.784688 61.272812 
L 734.784688 61.272812 
z
" style="fill: #ff0000; fill-opacity: 0.25; stroke: #ff0000; stroke-linejoin: miter"/>
    </g>
    <g id="text_21">
     <!-- Interesting -->
     <g transform="translate(762.784688 68.272812) scale(0.1 -0.1)">
      <use xlink:href="#DejaVuSans-49"/>
      <use xlink:href="#DejaVuSans-6e" x="29.492188"/>
      <use xlink:href="#DejaVuSans-74" x="92.871094"/>
      <use xlink:href="#DejaVuSans-65" x="132.080078"/>
      <use xlink:href="#DejaVuSans-72" x="193.603516"/>
      <use xlink:href="#DejaVuSans-65" x="232.466797"/>
      <use xlink:href="#DejaVuSans-73" x="293.990234"/>
      <use xlink:href="#DejaVuSans-74" x="346.089844"/>
      <use xlink:href="#DejaVuSans-69" x="385.298828"/>
      <use xlink:href="#DejaVuSans-6e" x="413.082031"/>
      <use xlink:href="#DejaVuSans-67" x="476.460938"/>
     </g>
    </g>
   </g>
  </g>
 </g>
 <defs>
  <clipPath id="pfa6eae7f34">
   <rect x="50.14375" y="22.318125" width="799.18" height="435.05875"/>
  </clipPath>
 </defs>
</svg>
