<?xml version="1.0" encoding="utf-8" standalone="no"?>
<!DOCTYPE svg PUBLIC "-//W3C//DTD SVG 1.1//EN"
  "http://www.w3.org/Graphics/SVG/1.1/DTD/svg11.dtd">
<svg xmlns:xlink="http://www.w3.org/1999/xlink" width="1000.8pt" height="495.838125pt" viewBox="0 0 1000.8 495.838125" xmlns="http://www.w3.org/2000/svg" version="1.1">
 <metadata>
  <rdf:RDF xmlns:dc="http://purl.org/dc/elements/1.1/" xmlns:cc="http://creativecommons.org/ns#" xmlns:rdf="http://www.w3.org/1999/02/22-rdf-syntax-ns#">
   <cc:Work>
    <dc:type rdf:resource="http://purl.org/dc/dcmitype/StillImage"/>
    <dc:date>2026-02-14T19:39:15.024128</dc:date>
    <dc:format>image/svg+xml</dc:format>
    <dc:creator>
     <cc:Agent>
      <dc:title>Matplotlib v3.9.1, https://matplotlib.org/</dc:title>
     </cc:Agent>
    </dc:creator>
   </cc:Work>
  </rdf:RDF>
 </metadata>
 <defs>
  <style type="text/css">*{stroke-linejoin: round; stroke-linecap: butt}</style>
 </defs>
 <g id="figure_1">
  <g id="patch_1">
   <path d="M 0 495.838125 
L 1000.8 495.838125 
L 1000.8 0 
L 0 0 
z
" style="fill: #ffffff"/>
  </g>
  <g id="axes_1">
   <g id="text_1">
    <!-- Tree 1 -->
    <g transform="translate(482.180625 16.318125) scale(0.12 -0.12)">
     <defs>
      <path id="DejaVuSans-54" d="M -19 4666 
L 3928 4666 
L 3928 4134 
L 2272 4134 
L 2272 0 
L 1638 0 
L 1638 4134 
L -19 4134 
L -19 4666 
z
" transform="scale(0.015625)"/>
      <path id="DejaVuSans-72" d="M 2631 2963 
Q 2534 3019 2420 3045 
Q 2306 3072 2169 3072 
Q 1681 3072 1420 2755 
Q 1159 2438 1159 1844 
L 1159 0 
L 581 0 
L 581 3500 
L 1159 3500 
L 1159 2956 
Q 1341 3275 1631 3429 
Q 1922 3584 2338 3584 
Q 2397 3584 2469 3576 
Q 2541 3569 2628 3553 
L 2631 2963 
z
" transform="scale(0.015625)"/>
      <path id="DejaVuSans-65" d="M 3597 1894 
L 3597 1613 
L 953 1613 
Q 991 1019 1311 708 
Q 1631 397 2203 397 
Q 2534 397 2845 478 
Q 3156 559 3463 722 
L 3463 178 
Q 3153 47 2828 -22 
Q 2503 -91 2169 -91 
Q 1331 -91 842 396 
Q 353 884 353 1716 
Q 353 2575 817 3079 
Q 1281 3584 2069 3584 
Q 2775 3584 3186 3129 
Q 3597 2675 3597 1894 
z
M 3022 2063 
Q 3016 2534 2758 2815 
Q 2500 3097 2075 3097 
Q 1594 3097 1305 2825 
Q 1016 2553 972 2059 
L 3022 2063 
z
" transform="scale(0.015625)"/>
      <path id="DejaVuSans-20" transform="scale(0.015625)"/>
      <path id="DejaVuSans-31" d="M 794 531 
L 1825 531 
L 1825 4091 
L 703 3866 
L 703 4441 
L 1819 4666 
L 2450 4666 
L 2450 531 
L 3481 531 
L 3481 0 
L 794 0 
L 794 531 
z
" transform="scale(0.015625)"/>
     </defs>
     <use xlink:href="#DejaVuSans-54"/>
     <use xlink:href="#DejaVuSans-72" x="46.333984"/>
     <use xlink:href="#DejaVuSans-65" x="85.197266"/>
     <use xlink:href="#DejaVuSans-65" x="146.720703"/>
     <use xlink:href="#DejaVuSans-20" x="208.244141"/>
     <use xlink:href="#DejaVuSans-31" x="240.03125"/>
    </g>
   </g>
   <g id="patch_2">
    <path d="M 759.526096 445.178061 
Q 793.152667 417.926161 827.647841 389.970323 
" style="fill: none; stroke: #000000; stroke-linecap: round"/>
    <path d="M 762.024399 444.626157 
L 759.526096 445.178061 
L 760.583555 442.848276 
" style="fill: none; stroke: #000000; stroke-linecap: round"/>
   </g>
   <g id="text_2">
    <g id="patch_3">
     <path d="M 720.504317 463.017503 
L 773.495683 463.017503 
Q 775.212002 463.017503 775.212002 461.301183 
L 775.212002 449.357924 
Q 775.212002 447.641604 773.495683 447.641604 
L 720.504317 447.641604 
Q 718.787998 447.641604 718.787998 449.357924 
L 718.787998 461.301183 
Q 718.787998 463.017503 720.504317 463.017503 
z
" style="fill: #3fa0e6; stroke: #000000; stroke-linejoin: miter"/>
    </g>
    <!-- mean=1.874e+04 -->
    <g transform="translate(720.504317 453.705039) scale(0.057211 -0.057211)">
     <defs>
      <path id="DejaVuSans-6d" d="M 3328 2828 
Q 3544 3216 3844 3400 
Q 4144 3584 4550 3584 
Q 5097 3584 5394 3201 
Q 5691 2819 5691 2113 
L 5691 0 
L 5113 0 
L 5113 2094 
Q 5113 2597 4934 2840 
Q 4756 3084 4391 3084 
Q 3944 3084 3684 2787 
Q 3425 2491 3425 1978 
L 3425 0 
L 2847 0 
L 2847 2094 
Q 2847 2600 2669 2842 
Q 2491 3084 2119 3084 
Q 1678 3084 1418 2786 
Q 1159 2488 1159 1978 
L 1159 0 
L 581 0 
L 581 3500 
L 1159 3500 
L 1159 2956 
Q 1356 3278 1631 3431 
Q 1906 3584 2284 3584 
Q 2666 3584 2933 3390 
Q 3200 3197 3328 2828 
z
" transform="scale(0.015625)"/>
      <path id="DejaVuSans-61" d="M 2194 1759 
Q 1497 1759 1228 1600 
Q 959 1441 959 1056 
Q 959 750 1161 570 
Q 1363 391 1709 391 
Q 2188 391 2477 730 
Q 2766 1069 2766 1631 
L 2766 1759 
L 2194 1759 
z
M 3341 1997 
L 3341 0 
L 2766 0 
L 2766 531 
Q 2569 213 2275 61 
Q 1981 -91 1556 -91 
Q 1019 -91 701 211 
Q 384 513 384 1019 
Q 384 1609 779 1909 
Q 1175 2209 1959 2209 
L 2766 2209 
L 2766 2266 
Q 2766 2663 2505 2880 
Q 2244 3097 1772 3097 
Q 1472 3097 1187 3025 
Q 903 2953 641 2809 
L 641 3341 
Q 956 3463 1253 3523 
Q 1550 3584 1831 3584 
Q 2591 3584 2966 3190 
Q 3341 2797 3341 1997 
z
" transform="scale(0.015625)"/>
      <path id="DejaVuSans-6e" d="M 3513 2113 
L 3513 0 
L 2938 0 
L 2938 2094 
Q 2938 2591 2744 2837 
Q 2550 3084 2163 3084 
Q 1697 3084 1428 2787 
Q 1159 2491 1159 1978 
L 1159 0 
L 581 0 
L 581 3500 
L 1159 3500 
L 1159 2956 
Q 1366 3272 1645 3428 
Q 1925 3584 2291 3584 
Q 2894 3584 3203 3211 
Q 3513 2838 3513 2113 
z
" transform="scale(0.015625)"/>
      <path id="DejaVuSans-3d" d="M 678 2906 
L 4684 2906 
L 4684 2381 
L 678 2381 
L 678 2906 
z
M 678 1631 
L 4684 1631 
L 4684 1100 
L 678 1100 
L 678 1631 
z
" transform="scale(0.015625)"/>
      <path id="DejaVuSans-2e" d="M 684 794 
L 1344 794 
L 1344 0 
L 684 0 
L 684 794 
z
" transform="scale(0.015625)"/>
      <path id="DejaVuSans-38" d="M 2034 2216 
Q 1584 2216 1326 1975 
Q 1069 1734 1069 1313 
Q 1069 891 1326 650 
Q 1584 409 2034 409 
Q 2484 409 2743 651 
Q 3003 894 3003 1313 
Q 3003 1734 2745 1975 
Q 2488 2216 2034 2216 
z
M 1403 2484 
Q 997 2584 770 2862 
Q 544 3141 544 3541 
Q 544 4100 942 4425 
Q 1341 4750 2034 4750 
Q 2731 4750 3128 4425 
Q 3525 4100 3525 3541 
Q 3525 3141 3298 2862 
Q 3072 2584 2669 2484 
Q 3125 2378 3379 2068 
Q 3634 1759 3634 1313 
Q 3634 634 3220 271 
Q 2806 -91 2034 -91 
Q 1263 -91 848 271 
Q 434 634 434 1313 
Q 434 1759 690 2068 
Q 947 2378 1403 2484 
z
M 1172 3481 
Q 1172 3119 1398 2916 
Q 1625 2713 2034 2713 
Q 2441 2713 2670 2916 
Q 2900 3119 2900 3481 
Q 2900 3844 2670 4047 
Q 2441 4250 2034 4250 
Q 1625 4250 1398 4047 
Q 1172 3844 1172 3481 
z
" transform="scale(0.015625)"/>
      <path id="DejaVuSans-37" d="M 525 4666 
L 3525 4666 
L 3525 4397 
L 1831 0 
L 1172 0 
L 2766 4134 
L 525 4134 
L 525 4666 
z
" transform="scale(0.015625)"/>
      <path id="DejaVuSans-34" d="M 2419 4116 
L 825 1625 
L 2419 1625 
L 2419 4116 
z
M 2253 4666 
L 3047 4666 
L 3047 1625 
L 3713 1625 
L 3713 1100 
L 3047 1100 
L 3047 0 
L 2419 0 
L 2419 1100 
L 313 1100 
L 313 1709 
L 2253 4666 
z
" transform="scale(0.015625)"/>
      <path id="DejaVuSans-2b" d="M 2944 4013 
L 2944 2272 
L 4684 2272 
L 4684 1741 
L 2944 1741 
L 2944 0 
L 2419 0 
L 2419 1741 
L 678 1741 
L 678 2272 
L 2419 2272 
L 2419 4013 
L 2944 4013 
z
" transform="scale(0.015625)"/>
      <path id="DejaVuSans-30" d="M 2034 4250 
Q 1547 4250 1301 3770 
Q 1056 3291 1056 2328 
Q 1056 1369 1301 889 
Q 1547 409 2034 409 
Q 2525 409 2770 889 
Q 3016 1369 3016 2328 
Q 3016 3291 2770 3770 
Q 2525 4250 2034 4250 
z
M 2034 4750 
Q 2819 4750 3233 4129 
Q 3647 3509 3647 2328 
Q 3647 1150 3233 529 
Q 2819 -91 2034 -91 
Q 1250 -91 836 529 
Q 422 1150 422 2328 
Q 422 3509 836 4129 
Q 1250 4750 2034 4750 
z
" transform="scale(0.015625)"/>
     </defs>
     <use xlink:href="#DejaVuSans-6d"/>
     <use xlink:href="#DejaVuSans-65" x="97.412109"/>
     <use xlink:href="#DejaVuSans-61" x="158.935547"/>
     <use xlink:href="#DejaVuSans-6e" x="220.214844"/>
     <use xlink:href="#DejaVuSans-3d" x="283.59375"/>
     <use xlink:href="#DejaVuSans-31" x="367.382812"/>
     <use xlink:href="#DejaVuSans-2e" x="431.005859"/>
     <use xlink:href="#DejaVuSans-38" x="462.792969"/>
     <use xlink:href="#DejaVuSans-37" x="526.416016"/>
     <use xlink:href="#DejaVuSans-34" x="590.039062"/>
     <use xlink:href="#DejaVuSans-65" x="653.662109"/>
     <use xlink:href="#DejaVuSans-2b" x="715.185547"/>
     <use xlink:href="#DejaVuSans-30" x="798.974609"/>
     <use xlink:href="#DejaVuSans-34" x="862.597656"/>
    </g>
    <!-- pred=1 -->
    <g transform="translate(736.27926 460.111381) scale(0.057211 -0.057211)">
     <defs>
      <path id="DejaVuSans-70" d="M 1159 525 
L 1159 -1331 
L 581 -1331 
L 581 3500 
L 1159 3500 
L 1159 2969 
Q 1341 3281 1617 3432 
Q 1894 3584 2278 3584 
Q 2916 3584 3314 3078 
Q 3713 2572 3713 1747 
Q 3713 922 3314 415 
Q 2916 -91 2278 -91 
Q 1894 -91 1617 61 
Q 1341 213 1159 525 
z
M 3116 1747 
Q 3116 2381 2855 2742 
Q 2594 3103 2138 3103 
Q 1681 3103 1420 2742 
Q 1159 2381 1159 1747 
Q 1159 1113 1420 752 
Q 1681 391 2138 391 
Q 2594 391 2855 752 
Q 3116 1113 3116 1747 
z
" transform="scale(0.015625)"/>
      <path id="DejaVuSans-64" d="M 2906 2969 
L 2906 4863 
L 3481 4863 
L 3481 0 
L 2906 0 
L 2906 525 
Q 2725 213 2448 61 
Q 2172 -91 1784 -91 
Q 1150 -91 751 415 
Q 353 922 353 1747 
Q 353 2572 751 3078 
Q 1150 3584 1784 3584 
Q 2172 3584 2448 3432 
Q 2725 3281 2906 2969 
z
M 947 1747 
Q 947 1113 1208 752 
Q 1469 391 1925 391 
Q 2381 391 2643 752 
Q 2906 1113 2906 1747 
Q 2906 2381 2643 2742 
Q 2381 3103 1925 3103 
Q 1469 3103 1208 2742 
Q 947 2381 947 1747 
z
" transform="scale(0.015625)"/>
     </defs>
     <use xlink:href="#DejaVuSans-70"/>
     <use xlink:href="#DejaVuSans-72" x="63.476562"/>
     <use xlink:href="#DejaVuSans-65" x="102.339844"/>
     <use xlink:href="#DejaVuSans-64" x="163.863281"/>
     <use xlink:href="#DejaVuSans-3d" x="227.339844"/>
     <use xlink:href="#DejaVuSans-31" x="311.128906"/>
    </g>
   </g>
   <g id="patch_4">
    <path d="M 898.873904 445.178061 
Q 865.247333 417.926161 830.752159 389.970323 
" style="fill: none; stroke: #000000; stroke-linecap: round"/>
    <path d="M 897.816445 442.848276 
L 898.873904 445.178061 
L 896.375601 444.626157 
" style="fill: none; stroke: #000000; stroke-linecap: round"/>
   </g>
   <g id="text_3">
    <g id="patch_5">
     <path d="M 893.610616 463.017503 
L 929.189384 463.017503 
Q 930.905703 463.017503 930.905703 461.301183 
L 930.905703 449.357924 
Q 930.905703 447.641604 929.189384 447.641604 
L 893.610616 447.641604 
Q 891.894297 447.641604 891.894297 449.357924 
L 891.894297 461.301183 
Q 891.894297 463.017503 893.610616 463.017503 
z
" style="fill: #e58139; stroke: #000000; stroke-linejoin: miter"/>
    </g>
    <!-- mean=2609 -->
    <g transform="translate(893.610616 453.705039) scale(0.057211 -0.057211)">
     <defs>
      <path id="DejaVuSans-32" d="M 1228 531 
L 3431 531 
L 3431 0 
L 469 0 
L 469 531 
Q 828 903 1448 1529 
Q 2069 2156 2228 2338 
Q 2531 2678 2651 2914 
Q 2772 3150 2772 3378 
Q 2772 3750 2511 3984 
Q 2250 4219 1831 4219 
Q 1534 4219 1204 4116 
Q 875 4013 500 3803 
L 500 4441 
Q 881 4594 1212 4672 
Q 1544 4750 1819 4750 
Q 2544 4750 2975 4387 
Q 3406 4025 3406 3419 
Q 3406 3131 3298 2873 
Q 3191 2616 2906 2266 
Q 2828 2175 2409 1742 
Q 1991 1309 1228 531 
z
" transform="scale(0.015625)"/>
      <path id="DejaVuSans-36" d="M 2113 2584 
Q 1688 2584 1439 2293 
Q 1191 2003 1191 1497 
Q 1191 994 1439 701 
Q 1688 409 2113 409 
Q 2538 409 2786 701 
Q 3034 994 3034 1497 
Q 3034 2003 2786 2293 
Q 2538 2584 2113 2584 
z
M 3366 4563 
L 3366 3988 
Q 3128 4100 2886 4159 
Q 2644 4219 2406 4219 
Q 1781 4219 1451 3797 
Q 1122 3375 1075 2522 
Q 1259 2794 1537 2939 
Q 1816 3084 2150 3084 
Q 2853 3084 3261 2657 
Q 3669 2231 3669 1497 
Q 3669 778 3244 343 
Q 2819 -91 2113 -91 
Q 1303 -91 875 529 
Q 447 1150 447 2328 
Q 447 3434 972 4092 
Q 1497 4750 2381 4750 
Q 2619 4750 2861 4703 
Q 3103 4656 3366 4563 
z
" transform="scale(0.015625)"/>
      <path id="DejaVuSans-39" d="M 703 97 
L 703 672 
Q 941 559 1184 500 
Q 1428 441 1663 441 
Q 2288 441 2617 861 
Q 2947 1281 2994 2138 
Q 2813 1869 2534 1725 
Q 2256 1581 1919 1581 
Q 1219 1581 811 2004 
Q 403 2428 403 3163 
Q 403 3881 828 4315 
Q 1253 4750 1959 4750 
Q 2769 4750 3195 4129 
Q 3622 3509 3622 2328 
Q 3622 1225 3098 567 
Q 2575 -91 1691 -91 
Q 1453 -91 1209 -44 
Q 966 3 703 97 
z
M 1959 2075 
Q 2384 2075 2632 2365 
Q 2881 2656 2881 3163 
Q 2881 3666 2632 3958 
Q 2384 4250 1959 4250 
Q 1534 4250 1286 3958 
Q 1038 3666 1038 3163 
Q 1038 2656 1286 2365 
Q 1534 2075 1959 2075 
z
" transform="scale(0.015625)"/>
     </defs>
     <use xlink:href="#DejaVuSans-6d"/>
     <use xlink:href="#DejaVuSans-65" x="97.412109"/>
     <use xlink:href="#DejaVuSans-61" x="158.935547"/>
     <use xlink:href="#DejaVuSans-6e" x="220.214844"/>
     <use xlink:href="#DejaVuSans-3d" x="283.59375"/>
     <use xlink:href="#DejaVuSans-32" x="367.382812"/>
     <use xlink:href="#DejaVuSans-36" x="431.005859"/>
     <use xlink:href="#DejaVuSans-30" x="494.628906"/>
     <use xlink:href="#DejaVuSans-39" x="558.251953"/>
    </g>
    <!-- pred=0 -->
    <g transform="translate(900.67926 460.111381) scale(0.057211 -0.057211)">
     <use xlink:href="#DejaVuSans-70"/>
     <use xlink:href="#DejaVuSans-72" x="63.476562"/>
     <use xlink:href="#DejaVuSans-65" x="102.339844"/>
     <use xlink:href="#DejaVuSans-64" x="163.863281"/>
     <use xlink:href="#DejaVuSans-3d" x="227.339844"/>
     <use xlink:href="#DejaVuSans-30" x="311.128906"/>
    </g>
   </g>
   <g id="patch_6">
    <path d="M 677.326096 378.560918 
Q 710.952667 351.309019 745.447841 323.35318 
" style="fill: none; stroke: #000000; stroke-linecap: round"/>
    <path d="M 679.824399 378.009015 
L 677.326096 378.560918 
L 678.383555 376.231133 
" style="fill: none; stroke: #000000; stroke-linecap: round"/>
   </g>
   <g id="text_4">
    <g id="patch_7">
     <path d="M 646.101503 396.40036 
L 683.498497 396.40036 
Q 685.214816 396.40036 685.214816 394.684041 
L 685.214816 382.740781 
Q 685.214816 381.024461 683.498497 381.024461 
L 646.101503 381.024461 
Q 644.385184 381.024461 644.385184 382.740781 
L 644.385184 394.684041 
Q 644.385184 396.40036 646.101503 396.40036 
z
" style="fill: #e58139; stroke: #000000; stroke-linejoin: miter"/>
    </g>
    <!-- mean=106.2 -->
    <g transform="translate(646.101503 387.087896) scale(0.057211 -0.057211)">
     <use xlink:href="#DejaVuSans-6d"/>
     <use xlink:href="#DejaVuSans-65" x="97.412109"/>
     <use xlink:href="#DejaVuSans-61" x="158.935547"/>
     <use xlink:href="#DejaVuSans-6e" x="220.214844"/>
     <use xlink:href="#DejaVuSans-3d" x="283.59375"/>
     <use xlink:href="#DejaVuSans-31" x="367.382812"/>
     <use xlink:href="#DejaVuSans-30" x="431.005859"/>
     <use xlink:href="#DejaVuSans-36" x="494.628906"/>
     <use xlink:href="#DejaVuSans-2e" x="558.251953"/>
     <use xlink:href="#DejaVuSans-32" x="590.039062"/>
    </g>
    <!-- pred=0 -->
    <g transform="translate(654.07926 393.494238) scale(0.057211 -0.057211)">
     <use xlink:href="#DejaVuSans-70"/>
     <use xlink:href="#DejaVuSans-72" x="63.476562"/>
     <use xlink:href="#DejaVuSans-65" x="102.339844"/>
     <use xlink:href="#DejaVuSans-64" x="163.863281"/>
     <use xlink:href="#DejaVuSans-3d" x="227.339844"/>
     <use xlink:href="#DejaVuSans-30" x="311.128906"/>
    </g>
   </g>
   <g id="patch_8">
    <path d="M 820.527337 381.683846 
Q 784.975576 352.87172 748.555213 323.355655 
" style="fill: none; stroke: #000000; stroke-linecap: round"/>
    <path d="M 819.469878 379.354061 
L 820.527337 381.683846 
L 818.029034 381.131943 
" style="fill: none; stroke: #000000; stroke-linecap: round"/>
   </g>
   <g id="text_5">
    <g id="patch_9">
     <path d="M 779.688204 393.276748 
L 878.711796 393.276748 
Q 880.428116 393.276748 880.428116 391.560428 
L 880.428116 385.864393 
Q 880.428116 384.148073 878.711796 384.148073 
L 779.688204 384.148073 
Q 777.971884 384.148073 777.971884 385.864393 
L 777.971884 391.560428 
Q 777.971884 393.276748 779.688204 393.276748 
z
" style="fill: #8ac5f0; stroke: #000000; stroke-linejoin: miter"/>
    </g>
    <!-- vol5y_inflation_annual% &lt;= 6.657 -->
    <g transform="translate(779.688204 390.211509) scale(0.057211 -0.057211)">
     <defs>
      <path id="DejaVuSans-76" d="M 191 3500 
L 800 3500 
L 1894 563 
L 2988 3500 
L 3597 3500 
L 2284 0 
L 1503 0 
L 191 3500 
z
" transform="scale(0.015625)"/>
      <path id="DejaVuSans-6f" d="M 1959 3097 
Q 1497 3097 1228 2736 
Q 959 2375 959 1747 
Q 959 1119 1226 758 
Q 1494 397 1959 397 
Q 2419 397 2687 759 
Q 2956 1122 2956 1747 
Q 2956 2369 2687 2733 
Q 2419 3097 1959 3097 
z
M 1959 3584 
Q 2709 3584 3137 3096 
Q 3566 2609 3566 1747 
Q 3566 888 3137 398 
Q 2709 -91 1959 -91 
Q 1206 -91 779 398 
Q 353 888 353 1747 
Q 353 2609 779 3096 
Q 1206 3584 1959 3584 
z
" transform="scale(0.015625)"/>
      <path id="DejaVuSans-6c" d="M 603 4863 
L 1178 4863 
L 1178 0 
L 603 0 
L 603 4863 
z
" transform="scale(0.015625)"/>
      <path id="DejaVuSans-35" d="M 691 4666 
L 3169 4666 
L 3169 4134 
L 1269 4134 
L 1269 2991 
Q 1406 3038 1543 3061 
Q 1681 3084 1819 3084 
Q 2600 3084 3056 2656 
Q 3513 2228 3513 1497 
Q 3513 744 3044 326 
Q 2575 -91 1722 -91 
Q 1428 -91 1123 -41 
Q 819 9 494 109 
L 494 744 
Q 775 591 1075 516 
Q 1375 441 1709 441 
Q 2250 441 2565 725 
Q 2881 1009 2881 1497 
Q 2881 1984 2565 2268 
Q 2250 2553 1709 2553 
Q 1456 2553 1204 2497 
Q 953 2441 691 2322 
L 691 4666 
z
" transform="scale(0.015625)"/>
      <path id="DejaVuSans-79" d="M 2059 -325 
Q 1816 -950 1584 -1140 
Q 1353 -1331 966 -1331 
L 506 -1331 
L 506 -850 
L 844 -850 
Q 1081 -850 1212 -737 
Q 1344 -625 1503 -206 
L 1606 56 
L 191 3500 
L 800 3500 
L 1894 763 
L 2988 3500 
L 3597 3500 
L 2059 -325 
z
" transform="scale(0.015625)"/>
      <path id="DejaVuSans-5f" d="M 3263 -1063 
L 3263 -1509 
L -63 -1509 
L -63 -1063 
L 3263 -1063 
z
" transform="scale(0.015625)"/>
      <path id="DejaVuSans-69" d="M 603 3500 
L 1178 3500 
L 1178 0 
L 603 0 
L 603 3500 
z
M 603 4863 
L 1178 4863 
L 1178 4134 
L 603 4134 
L 603 4863 
z
" transform="scale(0.015625)"/>
      <path id="DejaVuSans-66" d="M 2375 4863 
L 2375 4384 
L 1825 4384 
Q 1516 4384 1395 4259 
Q 1275 4134 1275 3809 
L 1275 3500 
L 2222 3500 
L 2222 3053 
L 1275 3053 
L 1275 0 
L 697 0 
L 697 3053 
L 147 3053 
L 147 3500 
L 697 3500 
L 697 3744 
Q 697 4328 969 4595 
Q 1241 4863 1831 4863 
L 2375 4863 
z
" transform="scale(0.015625)"/>
      <path id="DejaVuSans-74" d="M 1172 4494 
L 1172 3500 
L 2356 3500 
L 2356 3053 
L 1172 3053 
L 1172 1153 
Q 1172 725 1289 603 
Q 1406 481 1766 481 
L 2356 481 
L 2356 0 
L 1766 0 
Q 1100 0 847 248 
Q 594 497 594 1153 
L 594 3053 
L 172 3053 
L 172 3500 
L 594 3500 
L 594 4494 
L 1172 4494 
z
" transform="scale(0.015625)"/>
      <path id="DejaVuSans-75" d="M 544 1381 
L 544 3500 
L 1119 3500 
L 1119 1403 
Q 1119 906 1312 657 
Q 1506 409 1894 409 
Q 2359 409 2629 706 
Q 2900 1003 2900 1516 
L 2900 3500 
L 3475 3500 
L 3475 0 
L 2900 0 
L 2900 538 
Q 2691 219 2414 64 
Q 2138 -91 1772 -91 
Q 1169 -91 856 284 
Q 544 659 544 1381 
z
M 1991 3584 
L 1991 3584 
z
" transform="scale(0.015625)"/>
      <path id="DejaVuSans-25" d="M 4653 2053 
Q 4381 2053 4226 1822 
Q 4072 1591 4072 1178 
Q 4072 772 4226 539 
Q 4381 306 4653 306 
Q 4919 306 5073 539 
Q 5228 772 5228 1178 
Q 5228 1588 5073 1820 
Q 4919 2053 4653 2053 
z
M 4653 2450 
Q 5147 2450 5437 2106 
Q 5728 1763 5728 1178 
Q 5728 594 5436 251 
Q 5144 -91 4653 -91 
Q 4153 -91 3862 251 
Q 3572 594 3572 1178 
Q 3572 1766 3864 2108 
Q 4156 2450 4653 2450 
z
M 1428 4353 
Q 1159 4353 1004 4120 
Q 850 3888 850 3481 
Q 850 3069 1003 2837 
Q 1156 2606 1428 2606 
Q 1700 2606 1854 2837 
Q 2009 3069 2009 3481 
Q 2009 3884 1853 4118 
Q 1697 4353 1428 4353 
z
M 4250 4750 
L 4750 4750 
L 1831 -91 
L 1331 -91 
L 4250 4750 
z
M 1428 4750 
Q 1922 4750 2215 4408 
Q 2509 4066 2509 3481 
Q 2509 2891 2217 2550 
Q 1925 2209 1428 2209 
Q 931 2209 642 2551 
Q 353 2894 353 3481 
Q 353 4063 643 4406 
Q 934 4750 1428 4750 
z
" transform="scale(0.015625)"/>
      <path id="DejaVuSans-3c" d="M 4684 3150 
L 1459 2003 
L 4684 863 
L 4684 294 
L 678 1747 
L 678 2266 
L 4684 3719 
L 4684 3150 
z
" transform="scale(0.015625)"/>
     </defs>
     <use xlink:href="#DejaVuSans-76"/>
     <use xlink:href="#DejaVuSans-6f" x="59.179688"/>
     <use xlink:href="#DejaVuSans-6c" x="120.361328"/>
     <use xlink:href="#DejaVuSans-35" x="148.144531"/>
     <use xlink:href="#DejaVuSans-79" x="211.767578"/>
     <use xlink:href="#DejaVuSans-5f" x="270.947266"/>
     <use xlink:href="#DejaVuSans-69" x="320.947266"/>
     <use xlink:href="#DejaVuSans-6e" x="348.730469"/>
     <use xlink:href="#DejaVuSans-66" x="412.109375"/>
     <use xlink:href="#DejaVuSans-6c" x="447.314453"/>
     <use xlink:href="#DejaVuSans-61" x="475.097656"/>
     <use xlink:href="#DejaVuSans-74" x="536.376953"/>
     <use xlink:href="#DejaVuSans-69" x="575.585938"/>
     <use xlink:href="#DejaVuSans-6f" x="603.369141"/>
     <use xlink:href="#DejaVuSans-6e" x="664.550781"/>
     <use xlink:href="#DejaVuSans-5f" x="727.929688"/>
     <use xlink:href="#DejaVuSans-61" x="777.929688"/>
     <use xlink:href="#DejaVuSans-6e" x="839.208984"/>
     <use xlink:href="#DejaVuSans-6e" x="902.587891"/>
     <use xlink:href="#DejaVuSans-75" x="965.966797"/>
     <use xlink:href="#DejaVuSans-61" x="1029.345703"/>
     <use xlink:href="#DejaVuSans-6c" x="1090.625"/>
     <use xlink:href="#DejaVuSans-25" x="1118.408203"/>
     <use xlink:href="#DejaVuSans-20" x="1213.427734"/>
     <use xlink:href="#DejaVuSans-3c" x="1245.214844"/>
     <use xlink:href="#DejaVuSans-3d" x="1329.003906"/>
     <use xlink:href="#DejaVuSans-20" x="1412.792969"/>
     <use xlink:href="#DejaVuSans-36" x="1444.580078"/>
     <use xlink:href="#DejaVuSans-2e" x="1508.203125"/>
     <use xlink:href="#DejaVuSans-36" x="1539.990234"/>
     <use xlink:href="#DejaVuSans-35" x="1603.613281"/>
     <use xlink:href="#DejaVuSans-37" x="1667.236328"/>
    </g>
   </g>
   <g id="patch_10">
    <path d="M 430.726096 311.943775 
Q 464.352667 284.691876 498.847841 256.736037 
" style="fill: none; stroke: #000000; stroke-linecap: round"/>
    <path d="M 433.224399 311.391872 
L 430.726096 311.943775 
L 431.783555 309.61399 
" style="fill: none; stroke: #000000; stroke-linecap: round"/>
   </g>
   <g id="text_6">
    <g id="patch_11">
     <path d="M 398.469477 329.783217 
L 437.930523 329.783217 
Q 439.646843 329.783217 439.646843 328.066898 
L 439.646843 316.123638 
Q 439.646843 314.407318 437.930523 314.407318 
L 398.469477 314.407318 
Q 396.753157 314.407318 396.753157 316.123638 
L 396.753157 328.066898 
Q 396.753157 329.783217 398.469477 329.783217 
z
" style="fill: #e89051; stroke: #000000; stroke-linejoin: miter"/>
    </g>
    <!-- mean=-100.5 -->
    <g transform="translate(398.469477 320.470754) scale(0.057211 -0.057211)">
     <defs>
      <path id="DejaVuSans-2d" d="M 313 2009 
L 1997 2009 
L 1997 1497 
L 313 1497 
L 313 2009 
z
" transform="scale(0.015625)"/>
     </defs>
     <use xlink:href="#DejaVuSans-6d"/>
     <use xlink:href="#DejaVuSans-65" x="97.412109"/>
     <use xlink:href="#DejaVuSans-61" x="158.935547"/>
     <use xlink:href="#DejaVuSans-6e" x="220.214844"/>
     <use xlink:href="#DejaVuSans-3d" x="283.59375"/>
     <use xlink:href="#DejaVuSans-2d" x="367.382812"/>
     <use xlink:href="#DejaVuSans-31" x="403.466797"/>
     <use xlink:href="#DejaVuSans-30" x="467.089844"/>
     <use xlink:href="#DejaVuSans-30" x="530.712891"/>
     <use xlink:href="#DejaVuSans-2e" x="594.335938"/>
     <use xlink:href="#DejaVuSans-35" x="626.123047"/>
    </g>
    <!-- pred=0 -->
    <g transform="translate(407.47926 326.877095) scale(0.057211 -0.057211)">
     <use xlink:href="#DejaVuSans-70"/>
     <use xlink:href="#DejaVuSans-72" x="63.476562"/>
     <use xlink:href="#DejaVuSans-65" x="102.339844"/>
     <use xlink:href="#DejaVuSans-64" x="163.863281"/>
     <use xlink:href="#DejaVuSans-3d" x="227.339844"/>
     <use xlink:href="#DejaVuSans-30" x="311.128906"/>
    </g>
   </g>
   <g id="patch_12">
    <path d="M 570.073904 311.943775 
Q 536.447333 284.691876 501.952159 256.736037 
" style="fill: none; stroke: #000000; stroke-linecap: round"/>
    <path d="M 569.016445 309.61399 
L 570.073904 311.943775 
L 567.575601 311.391872 
" style="fill: none; stroke: #000000; stroke-linecap: round"/>
   </g>
   <g id="text_7">
    <g id="patch_13">
     <path d="M 564.810616 329.783217 
L 600.389384 329.783217 
Q 602.105703 329.783217 602.105703 328.066898 
L 602.105703 316.123638 
Q 602.105703 314.407318 600.389384 314.407318 
L 564.810616 314.407318 
Q 563.094297 314.407318 563.094297 316.123638 
L 563.094297 328.066898 
Q 563.094297 329.783217 564.810616 329.783217 
z
" style="fill: #43a2e6; stroke: #000000; stroke-linejoin: miter"/>
    </g>
    <!-- mean=9429 -->
    <g transform="translate(564.810616 320.470754) scale(0.057211 -0.057211)">
     <use xlink:href="#DejaVuSans-6d"/>
     <use xlink:href="#DejaVuSans-65" x="97.412109"/>
     <use xlink:href="#DejaVuSans-61" x="158.935547"/>
     <use xlink:href="#DejaVuSans-6e" x="220.214844"/>
     <use xlink:href="#DejaVuSans-3d" x="283.59375"/>
     <use xlink:href="#DejaVuSans-39" x="367.382812"/>
     <use xlink:href="#DejaVuSans-34" x="431.005859"/>
     <use xlink:href="#DejaVuSans-32" x="494.628906"/>
     <use xlink:href="#DejaVuSans-39" x="558.251953"/>
    </g>
    <!-- pred=1 -->
    <g transform="translate(571.87926 326.877095) scale(0.057211 -0.057211)">
     <use xlink:href="#DejaVuSans-70"/>
     <use xlink:href="#DejaVuSans-72" x="63.476562"/>
     <use xlink:href="#DejaVuSans-65" x="102.339844"/>
     <use xlink:href="#DejaVuSans-64" x="163.863281"/>
     <use xlink:href="#DejaVuSans-3d" x="227.339844"/>
     <use xlink:href="#DejaVuSans-31" x="311.128906"/>
    </g>
   </g>
   <g id="patch_14">
    <path d="M 755.672663 315.066703 
Q 791.224424 286.254577 827.644787 256.738512 
" style="fill: none; stroke: #000000; stroke-linecap: round"/>
    <path d="M 758.170966 314.5148 
L 755.672663 315.066703 
L 756.730122 312.736918 
" style="fill: none; stroke: #000000; stroke-linecap: round"/>
   </g>
   <g id="text_8">
    <g id="patch_15">
     <path d="M 701.109906 326.659605 
L 792.890094 326.659605 
Q 794.606413 326.659605 794.606413 324.943286 
L 794.606413 319.24725 
Q 794.606413 317.530931 792.890094 317.530931 
L 701.109906 317.530931 
Q 699.393587 317.530931 699.393587 319.24725 
L 699.393587 324.943286 
Q 699.393587 326.659605 701.109906 326.659605 
z
" style="fill: #f3c4a2; stroke: #000000; stroke-linejoin: miter"/>
    </g>
    <!-- lag5y_land_area &lt;= 1.996e+04 -->
    <g transform="translate(701.109906 323.594366) scale(0.057211 -0.057211)">
     <defs>
      <path id="DejaVuSans-67" d="M 2906 1791 
Q 2906 2416 2648 2759 
Q 2391 3103 1925 3103 
Q 1463 3103 1205 2759 
Q 947 2416 947 1791 
Q 947 1169 1205 825 
Q 1463 481 1925 481 
Q 2391 481 2648 825 
Q 2906 1169 2906 1791 
z
M 3481 434 
Q 3481 -459 3084 -895 
Q 2688 -1331 1869 -1331 
Q 1566 -1331 1297 -1286 
Q 1028 -1241 775 -1147 
L 775 -588 
Q 1028 -725 1275 -790 
Q 1522 -856 1778 -856 
Q 2344 -856 2625 -561 
Q 2906 -266 2906 331 
L 2906 616 
Q 2728 306 2450 153 
Q 2172 0 1784 0 
Q 1141 0 747 490 
Q 353 981 353 1791 
Q 353 2603 747 3093 
Q 1141 3584 1784 3584 
Q 2172 3584 2450 3431 
Q 2728 3278 2906 2969 
L 2906 3500 
L 3481 3500 
L 3481 434 
z
" transform="scale(0.015625)"/>
     </defs>
     <use xlink:href="#DejaVuSans-6c"/>
     <use xlink:href="#DejaVuSans-61" x="27.783203"/>
     <use xlink:href="#DejaVuSans-67" x="89.0625"/>
     <use xlink:href="#DejaVuSans-35" x="152.539062"/>
     <use xlink:href="#DejaVuSans-79" x="216.162109"/>
     <use xlink:href="#DejaVuSans-5f" x="275.341797"/>
     <use xlink:href="#DejaVuSans-6c" x="325.341797"/>
     <use xlink:href="#DejaVuSans-61" x="353.125"/>
     <use xlink:href="#DejaVuSans-6e" x="414.404297"/>
     <use xlink:href="#DejaVuSans-64" x="477.783203"/>
     <use xlink:href="#DejaVuSans-5f" x="541.259766"/>
     <use xlink:href="#DejaVuSans-61" x="591.259766"/>
     <use xlink:href="#DejaVuSans-72" x="652.539062"/>
     <use xlink:href="#DejaVuSans-65" x="691.402344"/>
     <use xlink:href="#DejaVuSans-61" x="752.925781"/>
     <use xlink:href="#DejaVuSans-20" x="814.205078"/>
     <use xlink:href="#DejaVuSans-3c" x="845.992188"/>
     <use xlink:href="#DejaVuSans-3d" x="929.78125"/>
     <use xlink:href="#DejaVuSans-20" x="1013.570312"/>
     <use xlink:href="#DejaVuSans-31" x="1045.357422"/>
     <use xlink:href="#DejaVuSans-2e" x="1108.980469"/>
     <use xlink:href="#DejaVuSans-39" x="1140.767578"/>
     <use xlink:href="#DejaVuSans-39" x="1204.390625"/>
     <use xlink:href="#DejaVuSans-36" x="1268.013672"/>
     <use xlink:href="#DejaVuSans-65" x="1331.636719"/>
     <use xlink:href="#DejaVuSans-2b" x="1393.160156"/>
     <use xlink:href="#DejaVuSans-30" x="1476.949219"/>
     <use xlink:href="#DejaVuSans-34" x="1540.572266"/>
    </g>
   </g>
   <g id="patch_16">
    <path d="M 898.873904 311.943775 
Q 865.247333 284.691876 830.752159 256.736037 
" style="fill: none; stroke: #000000; stroke-linecap: round"/>
    <path d="M 897.816445 309.61399 
L 898.873904 311.943775 
L 896.375601 311.391872 
" style="fill: none; stroke: #000000; stroke-linecap: round"/>
   </g>
   <g id="text_9">
    <g id="patch_17">
     <path d="M 895.43063 329.783217 
L 927.36937 329.783217 
Q 929.08569 329.783217 929.08569 328.066898 
L 929.08569 316.123638 
Q 929.08569 314.407318 927.36937 314.407318 
L 895.43063 314.407318 
Q 893.71431 314.407318 893.71431 316.123638 
L 893.71431 328.066898 
Q 893.71431 329.783217 895.43063 329.783217 
z
" style="fill: #e78b48; stroke: #000000; stroke-linejoin: miter"/>
    </g>
    <!-- mean=392 -->
    <g transform="translate(895.43063 320.470754) scale(0.057211 -0.057211)">
     <defs>
      <path id="DejaVuSans-33" d="M 2597 2516 
Q 3050 2419 3304 2112 
Q 3559 1806 3559 1356 
Q 3559 666 3084 287 
Q 2609 -91 1734 -91 
Q 1441 -91 1130 -33 
Q 819 25 488 141 
L 488 750 
Q 750 597 1062 519 
Q 1375 441 1716 441 
Q 2309 441 2620 675 
Q 2931 909 2931 1356 
Q 2931 1769 2642 2001 
Q 2353 2234 1838 2234 
L 1294 2234 
L 1294 2753 
L 1863 2753 
Q 2328 2753 2575 2939 
Q 2822 3125 2822 3475 
Q 2822 3834 2567 4026 
Q 2313 4219 1838 4219 
Q 1578 4219 1281 4162 
Q 984 4106 628 3988 
L 628 4550 
Q 988 4650 1302 4700 
Q 1616 4750 1894 4750 
Q 2613 4750 3031 4423 
Q 3450 4097 3450 3541 
Q 3450 3153 3228 2886 
Q 3006 2619 2597 2516 
z
" transform="scale(0.015625)"/>
     </defs>
     <use xlink:href="#DejaVuSans-6d"/>
     <use xlink:href="#DejaVuSans-65" x="97.412109"/>
     <use xlink:href="#DejaVuSans-61" x="158.935547"/>
     <use xlink:href="#DejaVuSans-6e" x="220.214844"/>
     <use xlink:href="#DejaVuSans-3d" x="283.59375"/>
     <use xlink:href="#DejaVuSans-33" x="367.382812"/>
     <use xlink:href="#DejaVuSans-39" x="431.005859"/>
     <use xlink:href="#DejaVuSans-32" x="494.628906"/>
    </g>
    <!-- pred=0 -->
    <g transform="translate(900.67926 326.877095) scale(0.057211 -0.057211)">
     <use xlink:href="#DejaVuSans-70"/>
     <use xlink:href="#DejaVuSans-72" x="63.476562"/>
     <use xlink:href="#DejaVuSans-65" x="102.339844"/>
     <use xlink:href="#DejaVuSans-64" x="163.863281"/>
     <use xlink:href="#DejaVuSans-3d" x="227.339844"/>
     <use xlink:href="#DejaVuSans-30" x="311.128906"/>
    </g>
   </g>
   <g id="patch_18">
    <path d="M 184.126096 245.326632 
Q 217.752667 218.074733 252.247841 190.118895 
" style="fill: none; stroke: #000000; stroke-linecap: round"/>
    <path d="M 186.624399 244.774729 
L 184.126096 245.326632 
L 185.183555 242.996847 
" style="fill: none; stroke: #000000; stroke-linecap: round"/>
   </g>
   <g id="text_10">
    <g id="patch_19">
     <path d="M 145.104317 263.166074 
L 198.095683 263.166074 
Q 199.812002 263.166074 199.812002 261.449755 
L 199.812002 249.506495 
Q 199.812002 247.790176 198.095683 247.790176 
L 145.104317 247.790176 
Q 143.387998 247.790176 143.387998 249.506495 
L 143.387998 261.449755 
Q 143.387998 263.166074 145.104317 263.166074 
z
" style="fill: #4da7e8; stroke: #000000; stroke-linejoin: miter"/>
    </g>
    <!-- mean=1.036e+04 -->
    <g transform="translate(145.104317 253.853611) scale(0.057211 -0.057211)">
     <use xlink:href="#DejaVuSans-6d"/>
     <use xlink:href="#DejaVuSans-65" x="97.412109"/>
     <use xlink:href="#DejaVuSans-61" x="158.935547"/>
     <use xlink:href="#DejaVuSans-6e" x="220.214844"/>
     <use xlink:href="#DejaVuSans-3d" x="283.59375"/>
     <use xlink:href="#DejaVuSans-31" x="367.382812"/>
     <use xlink:href="#DejaVuSans-2e" x="431.005859"/>
     <use xlink:href="#DejaVuSans-30" x="462.792969"/>
     <use xlink:href="#DejaVuSans-33" x="526.416016"/>
     <use xlink:href="#DejaVuSans-36" x="590.039062"/>
     <use xlink:href="#DejaVuSans-65" x="653.662109"/>
     <use xlink:href="#DejaVuSans-2b" x="715.185547"/>
     <use xlink:href="#DejaVuSans-30" x="798.974609"/>
     <use xlink:href="#DejaVuSans-34" x="862.597656"/>
    </g>
    <!-- pred=1 -->
    <g transform="translate(160.87926 260.259952) scale(0.057211 -0.057211)">
     <use xlink:href="#DejaVuSans-70"/>
     <use xlink:href="#DejaVuSans-72" x="63.476562"/>
     <use xlink:href="#DejaVuSans-65" x="102.339844"/>
     <use xlink:href="#DejaVuSans-64" x="163.863281"/>
     <use xlink:href="#DejaVuSans-3d" x="227.339844"/>
     <use xlink:href="#DejaVuSans-31" x="311.128906"/>
    </g>
   </g>
   <g id="patch_20">
    <path d="M 323.473904 245.326632 
Q 289.847333 218.074733 255.352159 190.118895 
" style="fill: none; stroke: #000000; stroke-linecap: round"/>
    <path d="M 322.416445 242.996847 
L 323.473904 245.326632 
L 320.975601 244.774729 
" style="fill: none; stroke: #000000; stroke-linecap: round"/>
   </g>
   <g id="text_11">
    <g id="patch_21">
     <path d="M 310.292304 263.166074 
L 361.707696 263.166074 
Q 363.424015 263.166074 363.424015 261.449755 
L 363.424015 249.506495 
Q 363.424015 247.790176 361.707696 247.790176 
L 310.292304 247.790176 
Q 308.575985 247.790176 308.575985 249.506495 
L 308.575985 261.449755 
Q 308.575985 263.166074 310.292304 263.166074 
z
" style="fill: #e6853f; stroke: #000000; stroke-linejoin: miter"/>
    </g>
    <!-- mean=-1.33e+04 -->
    <g transform="translate(310.292304 253.853611) scale(0.057211 -0.057211)">
     <use xlink:href="#DejaVuSans-6d"/>
     <use xlink:href="#DejaVuSans-65" x="97.412109"/>
     <use xlink:href="#DejaVuSans-61" x="158.935547"/>
     <use xlink:href="#DejaVuSans-6e" x="220.214844"/>
     <use xlink:href="#DejaVuSans-3d" x="283.59375"/>
     <use xlink:href="#DejaVuSans-2d" x="367.382812"/>
     <use xlink:href="#DejaVuSans-31" x="403.466797"/>
     <use xlink:href="#DejaVuSans-2e" x="467.089844"/>
     <use xlink:href="#DejaVuSans-33" x="498.876953"/>
     <use xlink:href="#DejaVuSans-33" x="562.5"/>
     <use xlink:href="#DejaVuSans-65" x="626.123047"/>
     <use xlink:href="#DejaVuSans-2b" x="687.646484"/>
     <use xlink:href="#DejaVuSans-30" x="771.435547"/>
     <use xlink:href="#DejaVuSans-34" x="835.058594"/>
    </g>
    <!-- pred=0 -->
    <g transform="translate(325.27926 260.259952) scale(0.057211 -0.057211)">
     <use xlink:href="#DejaVuSans-70"/>
     <use xlink:href="#DejaVuSans-72" x="63.476562"/>
     <use xlink:href="#DejaVuSans-65" x="102.339844"/>
     <use xlink:href="#DejaVuSans-64" x="163.863281"/>
     <use xlink:href="#DejaVuSans-3d" x="227.339844"/>
     <use xlink:href="#DejaVuSans-30" x="311.128906"/>
    </g>
   </g>
   <g id="patch_22">
    <path d="M 515.788204 249.242613 
Q 588.848736 219.63748 662.945464 189.612466 
" style="fill: none; stroke: #000000; stroke-linecap: round"/>
    <path d="M 518.338832 249.443647 
L 515.788204 249.242613 
L 517.479407 247.322731 
" style="fill: none; stroke: #000000; stroke-linecap: round"/>
   </g>
   <g id="text_12">
    <g id="patch_23">
     <path d="M 445.388383 260.042462 
L 555.411617 260.042462 
Q 557.127936 260.042462 557.127936 258.326143 
L 557.127936 252.630107 
Q 557.127936 250.913788 555.411617 250.913788 
L 445.388383 250.913788 
Q 443.672064 250.913788 443.672064 252.630107 
L 443.672064 258.326143 
Q 443.672064 260.042462 445.388383 260.042462 
z
" style="fill: #deeffb; stroke: #000000; stroke-linejoin: miter"/>
    </g>
    <!-- vol7y_GDP_current_US &lt;= 5.395e+10 -->
    <g transform="translate(445.388383 256.977223) scale(0.057211 -0.057211)">
     <defs>
      <path id="DejaVuSans-47" d="M 3809 666 
L 3809 1919 
L 2778 1919 
L 2778 2438 
L 4434 2438 
L 4434 434 
Q 4069 175 3628 42 
Q 3188 -91 2688 -91 
Q 1594 -91 976 548 
Q 359 1188 359 2328 
Q 359 3472 976 4111 
Q 1594 4750 2688 4750 
Q 3144 4750 3555 4637 
Q 3966 4525 4313 4306 
L 4313 3634 
Q 3963 3931 3569 4081 
Q 3175 4231 2741 4231 
Q 1884 4231 1454 3753 
Q 1025 3275 1025 2328 
Q 1025 1384 1454 906 
Q 1884 428 2741 428 
Q 3075 428 3337 486 
Q 3600 544 3809 666 
z
" transform="scale(0.015625)"/>
      <path id="DejaVuSans-44" d="M 1259 4147 
L 1259 519 
L 2022 519 
Q 2988 519 3436 956 
Q 3884 1394 3884 2338 
Q 3884 3275 3436 3711 
Q 2988 4147 2022 4147 
L 1259 4147 
z
M 628 4666 
L 1925 4666 
Q 3281 4666 3915 4102 
Q 4550 3538 4550 2338 
Q 4550 1131 3912 565 
Q 3275 0 1925 0 
L 628 0 
L 628 4666 
z
" transform="scale(0.015625)"/>
      <path id="DejaVuSans-50" d="M 1259 4147 
L 1259 2394 
L 2053 2394 
Q 2494 2394 2734 2622 
Q 2975 2850 2975 3272 
Q 2975 3691 2734 3919 
Q 2494 4147 2053 4147 
L 1259 4147 
z
M 628 4666 
L 2053 4666 
Q 2838 4666 3239 4311 
Q 3641 3956 3641 3272 
Q 3641 2581 3239 2228 
Q 2838 1875 2053 1875 
L 1259 1875 
L 1259 0 
L 628 0 
L 628 4666 
z
" transform="scale(0.015625)"/>
      <path id="DejaVuSans-63" d="M 3122 3366 
L 3122 2828 
Q 2878 2963 2633 3030 
Q 2388 3097 2138 3097 
Q 1578 3097 1268 2742 
Q 959 2388 959 1747 
Q 959 1106 1268 751 
Q 1578 397 2138 397 
Q 2388 397 2633 464 
Q 2878 531 3122 666 
L 3122 134 
Q 2881 22 2623 -34 
Q 2366 -91 2075 -91 
Q 1284 -91 818 406 
Q 353 903 353 1747 
Q 353 2603 823 3093 
Q 1294 3584 2113 3584 
Q 2378 3584 2631 3529 
Q 2884 3475 3122 3366 
z
" transform="scale(0.015625)"/>
      <path id="DejaVuSans-55" d="M 556 4666 
L 1191 4666 
L 1191 1831 
Q 1191 1081 1462 751 
Q 1734 422 2344 422 
Q 2950 422 3222 751 
Q 3494 1081 3494 1831 
L 3494 4666 
L 4128 4666 
L 4128 1753 
Q 4128 841 3676 375 
Q 3225 -91 2344 -91 
Q 1459 -91 1007 375 
Q 556 841 556 1753 
L 556 4666 
z
" transform="scale(0.015625)"/>
      <path id="DejaVuSans-53" d="M 3425 4513 
L 3425 3897 
Q 3066 4069 2747 4153 
Q 2428 4238 2131 4238 
Q 1616 4238 1336 4038 
Q 1056 3838 1056 3469 
Q 1056 3159 1242 3001 
Q 1428 2844 1947 2747 
L 2328 2669 
Q 3034 2534 3370 2195 
Q 3706 1856 3706 1288 
Q 3706 609 3251 259 
Q 2797 -91 1919 -91 
Q 1588 -91 1214 -16 
Q 841 59 441 206 
L 441 856 
Q 825 641 1194 531 
Q 1563 422 1919 422 
Q 2459 422 2753 634 
Q 3047 847 3047 1241 
Q 3047 1584 2836 1778 
Q 2625 1972 2144 2069 
L 1759 2144 
Q 1053 2284 737 2584 
Q 422 2884 422 3419 
Q 422 4038 858 4394 
Q 1294 4750 2059 4750 
Q 2388 4750 2728 4690 
Q 3069 4631 3425 4513 
z
" transform="scale(0.015625)"/>
     </defs>
     <use xlink:href="#DejaVuSans-76"/>
     <use xlink:href="#DejaVuSans-6f" x="59.179688"/>
     <use xlink:href="#DejaVuSans-6c" x="120.361328"/>
     <use xlink:href="#DejaVuSans-37" x="148.144531"/>
     <use xlink:href="#DejaVuSans-79" x="211.767578"/>
     <use xlink:href="#DejaVuSans-5f" x="270.947266"/>
     <use xlink:href="#DejaVuSans-47" x="320.947266"/>
     <use xlink:href="#DejaVuSans-44" x="398.4375"/>
     <use xlink:href="#DejaVuSans-50" x="475.439453"/>
     <use xlink:href="#DejaVuSans-5f" x="535.742188"/>
     <use xlink:href="#DejaVuSans-63" x="585.742188"/>
     <use xlink:href="#DejaVuSans-75" x="640.722656"/>
     <use xlink:href="#DejaVuSans-72" x="704.101562"/>
     <use xlink:href="#DejaVuSans-72" x="743.464844"/>
     <use xlink:href="#DejaVuSans-65" x="782.328125"/>
     <use xlink:href="#DejaVuSans-6e" x="843.851562"/>
     <use xlink:href="#DejaVuSans-74" x="907.230469"/>
     <use xlink:href="#DejaVuSans-5f" x="946.439453"/>
     <use xlink:href="#DejaVuSans-55" x="996.439453"/>
     <use xlink:href="#DejaVuSans-53" x="1069.632812"/>
     <use xlink:href="#DejaVuSans-20" x="1133.109375"/>
     <use xlink:href="#DejaVuSans-3c" x="1164.896484"/>
     <use xlink:href="#DejaVuSans-3d" x="1248.685547"/>
     <use xlink:href="#DejaVuSans-20" x="1332.474609"/>
     <use xlink:href="#DejaVuSans-35" x="1364.261719"/>
     <use xlink:href="#DejaVuSans-2e" x="1427.884766"/>
     <use xlink:href="#DejaVuSans-33" x="1459.671875"/>
     <use xlink:href="#DejaVuSans-39" x="1523.294922"/>
     <use xlink:href="#DejaVuSans-35" x="1586.917969"/>
     <use xlink:href="#DejaVuSans-65" x="1650.541016"/>
     <use xlink:href="#DejaVuSans-2b" x="1712.064453"/>
     <use xlink:href="#DejaVuSans-31" x="1795.853516"/>
     <use xlink:href="#DejaVuSans-30" x="1859.476562"/>
    </g>
   </g>
   <g id="patch_24">
    <path d="M 813.811796 249.242613 
Q 740.751264 219.63748 666.654536 189.612466 
" style="fill: none; stroke: #000000; stroke-linecap: round"/>
    <path d="M 812.120593 247.322731 
L 813.811796 249.242613 
L 811.261168 249.443647 
" style="fill: none; stroke: #000000; stroke-linecap: round"/>
   </g>
   <g id="text_13">
    <g id="patch_25">
     <path d="M 782.072279 260.042462 
L 876.327721 260.042462 
Q 878.04404 260.042462 878.04404 258.326143 
L 878.04404 252.630107 
Q 878.04404 250.913788 876.327721 250.913788 
L 782.072279 250.913788 
Q 780.35596 250.913788 780.35596 252.630107 
L 780.35596 258.326143 
Q 780.35596 260.042462 782.072279 260.042462 
z
" style="fill: #e99558; stroke: #000000; stroke-linejoin: miter"/>
    </g>
    <!-- lag5y_population &lt;= 3.612e+06 -->
    <g transform="translate(782.072279 256.977223) scale(0.057211 -0.057211)">
     <use xlink:href="#DejaVuSans-6c"/>
     <use xlink:href="#DejaVuSans-61" x="27.783203"/>
     <use xlink:href="#DejaVuSans-67" x="89.0625"/>
     <use xlink:href="#DejaVuSans-35" x="152.539062"/>
     <use xlink:href="#DejaVuSans-79" x="216.162109"/>
     <use xlink:href="#DejaVuSans-5f" x="275.341797"/>
     <use xlink:href="#DejaVuSans-70" x="325.341797"/>
     <use xlink:href="#DejaVuSans-6f" x="388.818359"/>
     <use xlink:href="#DejaVuSans-70" x="450"/>
     <use xlink:href="#DejaVuSans-75" x="513.476562"/>
     <use xlink:href="#DejaVuSans-6c" x="576.855469"/>
     <use xlink:href="#DejaVuSans-61" x="604.638672"/>
     <use xlink:href="#DejaVuSans-74" x="665.917969"/>
     <use xlink:href="#DejaVuSans-69" x="705.126953"/>
     <use xlink:href="#DejaVuSans-6f" x="732.910156"/>
     <use xlink:href="#DejaVuSans-6e" x="794.091797"/>
     <use xlink:href="#DejaVuSans-20" x="857.470703"/>
     <use xlink:href="#DejaVuSans-3c" x="889.257812"/>
     <use xlink:href="#DejaVuSans-3d" x="973.046875"/>
     <use xlink:href="#DejaVuSans-20" x="1056.835938"/>
     <use xlink:href="#DejaVuSans-33" x="1088.623047"/>
     <use xlink:href="#DejaVuSans-2e" x="1152.246094"/>
     <use xlink:href="#DejaVuSans-36" x="1184.033203"/>
     <use xlink:href="#DejaVuSans-31" x="1247.65625"/>
     <use xlink:href="#DejaVuSans-32" x="1311.279297"/>
     <use xlink:href="#DejaVuSans-65" x="1374.902344"/>
     <use xlink:href="#DejaVuSans-2b" x="1436.425781"/>
     <use xlink:href="#DejaVuSans-30" x="1520.214844"/>
     <use xlink:href="#DejaVuSans-36" x="1583.837891"/>
    </g>
   </g>
   <g id="patch_26">
    <path d="M 101.926096 178.709489 
Q 135.552667 151.45759 170.047841 123.501752 
" style="fill: none; stroke: #000000; stroke-linecap: round"/>
    <path d="M 104.424399 178.157586 
L 101.926096 178.709489 
L 102.983555 176.379705 
" style="fill: none; stroke: #000000; stroke-linecap: round"/>
   </g>
   <g id="text_14">
    <g id="patch_27">
     <path d="M 70.701503 196.548932 
L 108.098497 196.548932 
Q 109.814816 196.548932 109.814816 194.832612 
L 109.814816 182.889352 
Q 109.814816 181.173033 108.098497 181.173033 
L 70.701503 181.173033 
Q 68.985184 181.173033 68.985184 182.889352 
L 68.985184 194.832612 
Q 68.985184 196.548932 70.701503 196.548932 
z
" style="fill: #e88d4c; stroke: #000000; stroke-linejoin: miter"/>
    </g>
    <!-- mean=270.6 -->
    <g transform="translate(70.701503 187.236468) scale(0.057211 -0.057211)">
     <use xlink:href="#DejaVuSans-6d"/>
     <use xlink:href="#DejaVuSans-65" x="97.412109"/>
     <use xlink:href="#DejaVuSans-61" x="158.935547"/>
     <use xlink:href="#DejaVuSans-6e" x="220.214844"/>
     <use xlink:href="#DejaVuSans-3d" x="283.59375"/>
     <use xlink:href="#DejaVuSans-32" x="367.382812"/>
     <use xlink:href="#DejaVuSans-37" x="431.005859"/>
     <use xlink:href="#DejaVuSans-30" x="494.628906"/>
     <use xlink:href="#DejaVuSans-2e" x="558.251953"/>
     <use xlink:href="#DejaVuSans-36" x="590.039062"/>
    </g>
    <!-- pred=0 -->
    <g transform="translate(78.67926 193.642809) scale(0.057211 -0.057211)">
     <use xlink:href="#DejaVuSans-70"/>
     <use xlink:href="#DejaVuSans-72" x="63.476562"/>
     <use xlink:href="#DejaVuSans-65" x="102.339844"/>
     <use xlink:href="#DejaVuSans-64" x="163.863281"/>
     <use xlink:href="#DejaVuSans-3d" x="227.339844"/>
     <use xlink:href="#DejaVuSans-30" x="311.128906"/>
    </g>
   </g>
   <g id="patch_28">
    <path d="M 245.127337 181.832417 
Q 209.575576 153.020292 173.155213 123.504227 
" style="fill: none; stroke: #000000; stroke-linecap: round"/>
    <path d="M 244.069878 179.502633 
L 245.127337 181.832417 
L 242.629034 181.280514 
" style="fill: none; stroke: #000000; stroke-linecap: round"/>
   </g>
   <g id="text_15">
    <g id="patch_29">
     <path d="M 188.626341 193.425319 
L 318.973659 193.425319 
Q 320.689978 193.425319 320.689978 191.709 
L 320.689978 186.012964 
Q 320.689978 184.296645 318.973659 184.296645 
L 188.626341 184.296645 
Q 186.910022 184.296645 186.910022 186.012964 
L 186.910022 191.709 
Q 186.910022 193.425319 188.626341 193.425319 
z
" style="fill: #6ab5eb; stroke: #000000; stroke-linejoin: miter"/>
    </g>
    <!-- pct_change5y_population_density &lt;= 0.1653 -->
    <g transform="translate(188.626341 190.36008) scale(0.057211 -0.057211)">
     <defs>
      <path id="DejaVuSans-68" d="M 3513 2113 
L 3513 0 
L 2938 0 
L 2938 2094 
Q 2938 2591 2744 2837 
Q 2550 3084 2163 3084 
Q 1697 3084 1428 2787 
Q 1159 2491 1159 1978 
L 1159 0 
L 581 0 
L 581 4863 
L 1159 4863 
L 1159 2956 
Q 1366 3272 1645 3428 
Q 1925 3584 2291 3584 
Q 2894 3584 3203 3211 
Q 3513 2838 3513 2113 
z
" transform="scale(0.015625)"/>
      <path id="DejaVuSans-73" d="M 2834 3397 
L 2834 2853 
Q 2591 2978 2328 3040 
Q 2066 3103 1784 3103 
Q 1356 3103 1142 2972 
Q 928 2841 928 2578 
Q 928 2378 1081 2264 
Q 1234 2150 1697 2047 
L 1894 2003 
Q 2506 1872 2764 1633 
Q 3022 1394 3022 966 
Q 3022 478 2636 193 
Q 2250 -91 1575 -91 
Q 1294 -91 989 -36 
Q 684 19 347 128 
L 347 722 
Q 666 556 975 473 
Q 1284 391 1588 391 
Q 1994 391 2212 530 
Q 2431 669 2431 922 
Q 2431 1156 2273 1281 
Q 2116 1406 1581 1522 
L 1381 1569 
Q 847 1681 609 1914 
Q 372 2147 372 2553 
Q 372 3047 722 3315 
Q 1072 3584 1716 3584 
Q 2034 3584 2315 3537 
Q 2597 3491 2834 3397 
z
" transform="scale(0.015625)"/>
     </defs>
     <use xlink:href="#DejaVuSans-70"/>
     <use xlink:href="#DejaVuSans-63" x="63.476562"/>
     <use xlink:href="#DejaVuSans-74" x="118.457031"/>
     <use xlink:href="#DejaVuSans-5f" x="157.666016"/>
     <use xlink:href="#DejaVuSans-63" x="207.666016"/>
     <use xlink:href="#DejaVuSans-68" x="262.646484"/>
     <use xlink:href="#DejaVuSans-61" x="326.025391"/>
     <use xlink:href="#DejaVuSans-6e" x="387.304688"/>
     <use xlink:href="#DejaVuSans-67" x="450.683594"/>
     <use xlink:href="#DejaVuSans-65" x="514.160156"/>
     <use xlink:href="#DejaVuSans-35" x="575.683594"/>
     <use xlink:href="#DejaVuSans-79" x="639.306641"/>
     <use xlink:href="#DejaVuSans-5f" x="698.486328"/>
     <use xlink:href="#DejaVuSans-70" x="748.486328"/>
     <use xlink:href="#DejaVuSans-6f" x="811.962891"/>
     <use xlink:href="#DejaVuSans-70" x="873.144531"/>
     <use xlink:href="#DejaVuSans-75" x="936.621094"/>
     <use xlink:href="#DejaVuSans-6c" x="1000"/>
     <use xlink:href="#DejaVuSans-61" x="1027.783203"/>
     <use xlink:href="#DejaVuSans-74" x="1089.0625"/>
     <use xlink:href="#DejaVuSans-69" x="1128.271484"/>
     <use xlink:href="#DejaVuSans-6f" x="1156.054688"/>
     <use xlink:href="#DejaVuSans-6e" x="1217.236328"/>
     <use xlink:href="#DejaVuSans-5f" x="1280.615234"/>
     <use xlink:href="#DejaVuSans-64" x="1330.615234"/>
     <use xlink:href="#DejaVuSans-65" x="1394.091797"/>
     <use xlink:href="#DejaVuSans-6e" x="1455.615234"/>
     <use xlink:href="#DejaVuSans-73" x="1518.994141"/>
     <use xlink:href="#DejaVuSans-69" x="1571.09375"/>
     <use xlink:href="#DejaVuSans-74" x="1598.876953"/>
     <use xlink:href="#DejaVuSans-79" x="1638.085938"/>
     <use xlink:href="#DejaVuSans-20" x="1697.265625"/>
     <use xlink:href="#DejaVuSans-3c" x="1729.052734"/>
     <use xlink:href="#DejaVuSans-3d" x="1812.841797"/>
     <use xlink:href="#DejaVuSans-20" x="1896.630859"/>
     <use xlink:href="#DejaVuSans-30" x="1928.417969"/>
     <use xlink:href="#DejaVuSans-2e" x="1992.041016"/>
     <use xlink:href="#DejaVuSans-31" x="2023.828125"/>
     <use xlink:href="#DejaVuSans-36" x="2087.451172"/>
     <use xlink:href="#DejaVuSans-35" x="2151.074219"/>
     <use xlink:href="#DejaVuSans-33" x="2214.697266"/>
    </g>
   </g>
   <g id="patch_30">
    <path d="M 673.472663 181.832417 
Q 709.024424 153.020292 745.444787 123.504227 
" style="fill: none; stroke: #000000; stroke-linecap: round"/>
    <path d="M 675.970966 181.280514 
L 673.472663 181.832417 
L 674.530122 179.502633 
" style="fill: none; stroke: #000000; stroke-linecap: round"/>
   </g>
   <g id="text_16">
    <g id="patch_31">
     <path d="M 620.10105 193.425319 
L 709.49895 193.425319 
Q 711.215269 193.425319 711.215269 191.709 
L 711.215269 186.012964 
Q 711.215269 184.296645 709.49895 184.296645 
L 620.10105 184.296645 
Q 618.384731 184.296645 618.384731 186.012964 
L 618.384731 191.709 
Q 618.384731 193.425319 620.10105 193.425319 
z
" style="fill: #eb9d65; stroke: #000000; stroke-linejoin: miter"/>
    </g>
    <!-- latest_tax_revenue% &lt;= 13.47 -->
    <g transform="translate(620.10105 190.36008) scale(0.057211 -0.057211)">
     <defs>
      <path id="DejaVuSans-78" d="M 3513 3500 
L 2247 1797 
L 3578 0 
L 2900 0 
L 1881 1375 
L 863 0 
L 184 0 
L 1544 1831 
L 300 3500 
L 978 3500 
L 1906 2253 
L 2834 3500 
L 3513 3500 
z
" transform="scale(0.015625)"/>
     </defs>
     <use xlink:href="#DejaVuSans-6c"/>
     <use xlink:href="#DejaVuSans-61" x="27.783203"/>
     <use xlink:href="#DejaVuSans-74" x="89.0625"/>
     <use xlink:href="#DejaVuSans-65" x="128.271484"/>
     <use xlink:href="#DejaVuSans-73" x="189.794922"/>
     <use xlink:href="#DejaVuSans-74" x="241.894531"/>
     <use xlink:href="#DejaVuSans-5f" x="281.103516"/>
     <use xlink:href="#DejaVuSans-74" x="331.103516"/>
     <use xlink:href="#DejaVuSans-61" x="370.3125"/>
     <use xlink:href="#DejaVuSans-78" x="431.591797"/>
     <use xlink:href="#DejaVuSans-5f" x="490.771484"/>
     <use xlink:href="#DejaVuSans-72" x="540.771484"/>
     <use xlink:href="#DejaVuSans-65" x="579.634766"/>
     <use xlink:href="#DejaVuSans-76" x="641.158203"/>
     <use xlink:href="#DejaVuSans-65" x="700.337891"/>
     <use xlink:href="#DejaVuSans-6e" x="761.861328"/>
     <use xlink:href="#DejaVuSans-75" x="825.240234"/>
     <use xlink:href="#DejaVuSans-65" x="888.619141"/>
     <use xlink:href="#DejaVuSans-25" x="950.142578"/>
     <use xlink:href="#DejaVuSans-20" x="1045.162109"/>
     <use xlink:href="#DejaVuSans-3c" x="1076.949219"/>
     <use xlink:href="#DejaVuSans-3d" x="1160.738281"/>
     <use xlink:href="#DejaVuSans-20" x="1244.527344"/>
     <use xlink:href="#DejaVuSans-31" x="1276.314453"/>
     <use xlink:href="#DejaVuSans-33" x="1339.9375"/>
     <use xlink:href="#DejaVuSans-2e" x="1403.560547"/>
     <use xlink:href="#DejaVuSans-34" x="1435.347656"/>
     <use xlink:href="#DejaVuSans-37" x="1498.970703"/>
    </g>
   </g>
   <g id="patch_32">
    <path d="M 816.673904 178.709489 
Q 783.047333 151.45759 748.552159 123.501752 
" style="fill: none; stroke: #000000; stroke-linecap: round"/>
    <path d="M 815.616445 176.379705 
L 816.673904 178.709489 
L 814.175601 178.157586 
" style="fill: none; stroke: #000000; stroke-linecap: round"/>
   </g>
   <g id="text_17">
    <g id="patch_33">
     <path d="M 809.469477 196.548932 
L 848.930523 196.548932 
Q 850.646843 196.548932 850.646843 194.832612 
L 850.646843 182.889352 
Q 850.646843 181.173033 848.930523 181.173033 
L 809.469477 181.173033 
Q 807.753157 181.173033 807.753157 182.889352 
L 807.753157 194.832612 
Q 807.753157 196.548932 809.469477 196.548932 
z
" style="fill: #e5833d; stroke: #000000; stroke-linejoin: miter"/>
    </g>
    <!-- mean=-107.3 -->
    <g transform="translate(809.469477 187.236468) scale(0.057211 -0.057211)">
     <use xlink:href="#DejaVuSans-6d"/>
     <use xlink:href="#DejaVuSans-65" x="97.412109"/>
     <use xlink:href="#DejaVuSans-61" x="158.935547"/>
     <use xlink:href="#DejaVuSans-6e" x="220.214844"/>
     <use xlink:href="#DejaVuSans-3d" x="283.59375"/>
     <use xlink:href="#DejaVuSans-2d" x="367.382812"/>
     <use xlink:href="#DejaVuSans-31" x="403.466797"/>
     <use xlink:href="#DejaVuSans-30" x="467.089844"/>
     <use xlink:href="#DejaVuSans-37" x="530.712891"/>
     <use xlink:href="#DejaVuSans-2e" x="594.335938"/>
     <use xlink:href="#DejaVuSans-33" x="626.123047"/>
    </g>
    <!-- pred=0 -->
    <g transform="translate(818.47926 193.642809) scale(0.057211 -0.057211)">
     <use xlink:href="#DejaVuSans-70"/>
     <use xlink:href="#DejaVuSans-72" x="63.476562"/>
     <use xlink:href="#DejaVuSans-65" x="102.339844"/>
     <use xlink:href="#DejaVuSans-64" x="163.863281"/>
     <use xlink:href="#DejaVuSans-3d" x="227.339844"/>
     <use xlink:href="#DejaVuSans-30" x="311.128906"/>
    </g>
   </g>
   <g id="patch_34">
    <path d="M 196.51537 116.474667 
Q 326.390703 86.40194 457.355251 56.077004 
" style="fill: none; stroke: #000000; stroke-linecap: round"/>
    <path d="M 199.002924 117.073159 
L 196.51537 116.474667 
L 198.486696 114.843719 
" style="fill: none; stroke: #000000; stroke-linecap: round"/>
   </g>
   <g id="text_18">
    <g id="patch_35">
     <path d="M 126.535885 126.808177 
L 216.664115 126.808177 
Q 218.380434 126.808177 218.380434 125.091857 
L 218.380434 119.395822 
Q 218.380434 117.679502 216.664115 117.679502 
L 126.535885 117.679502 
Q 124.819566 117.679502 124.819566 119.395822 
L 124.819566 125.091857 
Q 124.819566 126.808177 126.535885 126.808177 
z
" style="fill: #94caf1; stroke: #000000; stroke-linejoin: miter"/>
    </g>
    <!-- delta10y_population &lt;= -354.5 -->
    <g transform="translate(126.535885 123.742937) scale(0.057211 -0.057211)">
     <use xlink:href="#DejaVuSans-64"/>
     <use xlink:href="#DejaVuSans-65" x="63.476562"/>
     <use xlink:href="#DejaVuSans-6c" x="125"/>
     <use xlink:href="#DejaVuSans-74" x="152.783203"/>
     <use xlink:href="#DejaVuSans-61" x="191.992188"/>
     <use xlink:href="#DejaVuSans-31" x="253.271484"/>
     <use xlink:href="#DejaVuSans-30" x="316.894531"/>
     <use xlink:href="#DejaVuSans-79" x="380.517578"/>
     <use xlink:href="#DejaVuSans-5f" x="439.697266"/>
     <use xlink:href="#DejaVuSans-70" x="489.697266"/>
     <use xlink:href="#DejaVuSans-6f" x="553.173828"/>
     <use xlink:href="#DejaVuSans-70" x="614.355469"/>
     <use xlink:href="#DejaVuSans-75" x="677.832031"/>
     <use xlink:href="#DejaVuSans-6c" x="741.210938"/>
     <use xlink:href="#DejaVuSans-61" x="768.994141"/>
     <use xlink:href="#DejaVuSans-74" x="830.273438"/>
     <use xlink:href="#DejaVuSans-69" x="869.482422"/>
     <use xlink:href="#DejaVuSans-6f" x="897.265625"/>
     <use xlink:href="#DejaVuSans-6e" x="958.447266"/>
     <use xlink:href="#DejaVuSans-20" x="1021.826172"/>
     <use xlink:href="#DejaVuSans-3c" x="1053.613281"/>
     <use xlink:href="#DejaVuSans-3d" x="1137.402344"/>
     <use xlink:href="#DejaVuSans-20" x="1221.191406"/>
     <use xlink:href="#DejaVuSans-2d" x="1252.978516"/>
     <use xlink:href="#DejaVuSans-33" x="1289.0625"/>
     <use xlink:href="#DejaVuSans-35" x="1352.685547"/>
     <use xlink:href="#DejaVuSans-34" x="1416.308594"/>
     <use xlink:href="#DejaVuSans-2e" x="1479.931641"/>
     <use xlink:href="#DejaVuSans-35" x="1511.71875"/>
    </g>
   </g>
   <g id="patch_36">
    <path d="M 722.08463 116.474667 
Q 592.209297 86.40194 461.244749 56.077004 
" style="fill: none; stroke: #000000; stroke-linecap: round"/>
    <path d="M 720.113304 114.843719 
L 722.08463 116.474667 
L 719.597076 117.073159 
" style="fill: none; stroke: #000000; stroke-linecap: round"/>
   </g>
   <g id="text_19">
    <g id="patch_37">
     <path d="M 708.765854 126.808177 
L 785.234146 126.808177 
Q 786.950466 126.808177 786.950466 125.091857 
L 786.950466 119.395822 
Q 786.950466 117.679502 785.234146 117.679502 
L 708.765854 117.679502 
Q 707.049534 117.679502 707.049534 119.395822 
L 707.049534 125.091857 
Q 707.049534 126.808177 708.765854 126.808177 
z
" style="fill: #e78a47; stroke: #000000; stroke-linejoin: miter"/>
    </g>
    <!-- latest_birth_rate &lt;= 25.86 -->
    <g transform="translate(708.765854 123.742937) scale(0.057211 -0.057211)">
     <defs>
      <path id="DejaVuSans-62" d="M 3116 1747 
Q 3116 2381 2855 2742 
Q 2594 3103 2138 3103 
Q 1681 3103 1420 2742 
Q 1159 2381 1159 1747 
Q 1159 1113 1420 752 
Q 1681 391 2138 391 
Q 2594 391 2855 752 
Q 3116 1113 3116 1747 
z
M 1159 2969 
Q 1341 3281 1617 3432 
Q 1894 3584 2278 3584 
Q 2916 3584 3314 3078 
Q 3713 2572 3713 1747 
Q 3713 922 3314 415 
Q 2916 -91 2278 -91 
Q 1894 -91 1617 61 
Q 1341 213 1159 525 
L 1159 0 
L 581 0 
L 581 4863 
L 1159 4863 
L 1159 2969 
z
" transform="scale(0.015625)"/>
     </defs>
     <use xlink:href="#DejaVuSans-6c"/>
     <use xlink:href="#DejaVuSans-61" x="27.783203"/>
     <use xlink:href="#DejaVuSans-74" x="89.0625"/>
     <use xlink:href="#DejaVuSans-65" x="128.271484"/>
     <use xlink:href="#DejaVuSans-73" x="189.794922"/>
     <use xlink:href="#DejaVuSans-74" x="241.894531"/>
     <use xlink:href="#DejaVuSans-5f" x="281.103516"/>
     <use xlink:href="#DejaVuSans-62" x="331.103516"/>
     <use xlink:href="#DejaVuSans-69" x="394.580078"/>
     <use xlink:href="#DejaVuSans-72" x="422.363281"/>
     <use xlink:href="#DejaVuSans-74" x="463.476562"/>
     <use xlink:href="#DejaVuSans-68" x="502.685547"/>
     <use xlink:href="#DejaVuSans-5f" x="566.064453"/>
     <use xlink:href="#DejaVuSans-72" x="616.064453"/>
     <use xlink:href="#DejaVuSans-61" x="657.177734"/>
     <use xlink:href="#DejaVuSans-74" x="718.457031"/>
     <use xlink:href="#DejaVuSans-65" x="757.666016"/>
     <use xlink:href="#DejaVuSans-20" x="819.189453"/>
     <use xlink:href="#DejaVuSans-3c" x="850.976562"/>
     <use xlink:href="#DejaVuSans-3d" x="934.765625"/>
     <use xlink:href="#DejaVuSans-20" x="1018.554688"/>
     <use xlink:href="#DejaVuSans-32" x="1050.341797"/>
     <use xlink:href="#DejaVuSans-35" x="1113.964844"/>
     <use xlink:href="#DejaVuSans-2e" x="1177.587891"/>
     <use xlink:href="#DejaVuSans-38" x="1209.375"/>
     <use xlink:href="#DejaVuSans-36" x="1272.998047"/>
    </g>
   </g>
   <g id="patch_38">
    <path d="M 459.3 55.626696 
Q 459.3 55.626696 459.3 55.626696 
" style="fill: none; stroke: #000000; stroke-linecap: round"/>
   </g>
   <g id="text_20">
    <g id="patch_39">
     <path d="M 403.865561 60.191034 
L 514.734439 60.191034 
Q 516.450759 60.191034 516.450759 58.474714 
L 516.450759 52.778679 
Q 516.450759 51.062359 514.734439 51.062359 
L 403.865561 51.062359 
Q 402.149241 51.062359 402.149241 52.778679 
L 402.149241 58.474714 
Q 402.149241 60.191034 403.865561 60.191034 
z
" style="fill: #e89051; stroke: #000000; stroke-linejoin: miter"/>
    </g>
    <!-- latest_rural_population &lt;= 3.465e+04 -->
    <g transform="translate(403.865561 57.125794) scale(0.057211 -0.057211)">
     <use xlink:href="#DejaVuSans-6c"/>
     <use xlink:href="#DejaVuSans-61" x="27.783203"/>
     <use xlink:href="#DejaVuSans-74" x="89.0625"/>
     <use xlink:href="#DejaVuSans-65" x="128.271484"/>
     <use xlink:href="#DejaVuSans-73" x="189.794922"/>
     <use xlink:href="#DejaVuSans-74" x="241.894531"/>
     <use xlink:href="#DejaVuSans-5f" x="281.103516"/>
     <use xlink:href="#DejaVuSans-72" x="331.103516"/>
     <use xlink:href="#DejaVuSans-75" x="372.216797"/>
     <use xlink:href="#DejaVuSans-72" x="435.595703"/>
     <use xlink:href="#DejaVuSans-61" x="476.708984"/>
     <use xlink:href="#DejaVuSans-6c" x="537.988281"/>
     <use xlink:href="#DejaVuSans-5f" x="565.771484"/>
     <use xlink:href="#DejaVuSans-70" x="615.771484"/>
     <use xlink:href="#DejaVuSans-6f" x="679.248047"/>
     <use xlink:href="#DejaVuSans-70" x="740.429688"/>
     <use xlink:href="#DejaVuSans-75" x="803.90625"/>
     <use xlink:href="#DejaVuSans-6c" x="867.285156"/>
     <use xlink:href="#DejaVuSans-61" x="895.068359"/>
     <use xlink:href="#DejaVuSans-74" x="956.347656"/>
     <use xlink:href="#DejaVuSans-69" x="995.556641"/>
     <use xlink:href="#DejaVuSans-6f" x="1023.339844"/>
     <use xlink:href="#DejaVuSans-6e" x="1084.521484"/>
     <use xlink:href="#DejaVuSans-20" x="1147.900391"/>
     <use xlink:href="#DejaVuSans-3c" x="1179.6875"/>
     <use xlink:href="#DejaVuSans-3d" x="1263.476562"/>
     <use xlink:href="#DejaVuSans-20" x="1347.265625"/>
     <use xlink:href="#DejaVuSans-33" x="1379.052734"/>
     <use xlink:href="#DejaVuSans-2e" x="1442.675781"/>
     <use xlink:href="#DejaVuSans-34" x="1474.462891"/>
     <use xlink:href="#DejaVuSans-36" x="1538.085938"/>
     <use xlink:href="#DejaVuSans-35" x="1601.708984"/>
     <use xlink:href="#DejaVuSans-65" x="1665.332031"/>
     <use xlink:href="#DejaVuSans-2b" x="1726.855469"/>
     <use xlink:href="#DejaVuSans-30" x="1810.644531"/>
     <use xlink:href="#DejaVuSans-34" x="1874.267578"/>
    </g>
   </g>
  </g>
 </g>
</svg>
